<svg width="124" height="124" viewBox="0 0 124 124" fill="none" xmlns="http://www.w3.org/2000/svg">
<rect width="124" height="124" rx="24" fill="white"/>
<path d="M62.6292 68.4235V56.9622H94.8323C98.6527 74.974 85.2812 96.2592 62.0853 94.0761C38.8903 93.2575 28.5195 73.6096 28.5195 63.2391C29.3387 38.407 49.5323 25.5812 70.2713 31.3112L65.6323 34.04C72.7273 33.4943 79.6405 36.496 82.2784 38.952L78.1851 40.0435C89.1006 44.9555 88.8277 50.2314 90.1921 55.0524C87.3541 45.0101 73.2731 44.5916 66.7238 45.7741L71.3629 41.6808C61.8118 39.2249 52.8065 46.3196 50.0777 48.7756L51.1692 44.9552C41.0735 52.0502 39.6795 62.0952 43.0951 69.1058C55.3145 94.1866 81.7313 77.8867 81.7313 68.4235H62.6292Z" fill="#292524"/>
</svg>
