<svg width="132" height="24" viewBox="0 0 132 24" fill="none" xmlns="http://www.w3.org/2000/svg">
<path d="M6.74444 20C2.87512 20 0.161222 17.6316 0 14.2368H2.44519C2.60642 16.8158 4.62169 18 6.77131 18C9.13589 18 10.6406 16.7895 10.6406 15.0263C10.6406 10.6579 0.725497 11.7105 0.725497 5.60526C0.725497 2.68421 3.22443 0.789474 6.52948 0.789474C10.0764 0.789474 12.4141 2.94737 12.5753 6.13158L10.1838 6.18421C9.99574 4.10526 8.65223 2.78947 6.55635 2.78947C4.7023 2.78947 3.19756 3.78947 3.19756 5.52632C3.19756 10.1316 13.1396 8.71053 13.1396 14.8947C13.1396 18.0526 10.4794 20 6.74444 20Z" fill="#1C201D"/>
<path d="M21.4066 20C17.2148 20 14.0441 16.9737 14.0441 12.9474C14.0441 8.92105 17.2148 5.89474 21.4066 5.89474C25.6252 5.89474 28.769 8.92105 28.769 12.9474C28.769 16.9737 25.6252 20 21.4066 20ZM21.4066 17.9211C24.3086 17.9211 26.4851 15.7632 26.4851 12.9211C26.4851 10.1053 24.3086 7.97368 21.4066 7.97368C18.5315 7.97368 16.3281 10.1053 16.3281 12.9211C16.3281 15.7632 18.5315 17.9211 21.4066 17.9211Z" fill="#1C201D"/>
<path d="M30.4619 0H32.7996V19.7368H30.4619V0Z" fill="#1C201D"/>
<path d="M47.0366 9.26316L47.3859 6.18421H49.4012V19.7368H47.0366V16.5526C46.1768 18.6316 44.1346 20 41.3939 20C37.1752 20 34.4613 16.8947 34.4613 12.9211C34.4613 8.89474 37.2558 5.89474 41.5013 5.89474C43.9197 5.89474 45.9618 7.13158 47.0366 9.13158V9.26316ZM41.9581 17.9474C44.9139 17.9474 47.0098 15.7632 47.0098 12.9474C47.0098 10.1579 44.9139 7.97368 41.9581 7.97368C38.9755 7.97368 36.8259 10.0526 36.8259 12.9474C36.8259 15.8684 38.9755 17.9474 41.9581 17.9474Z" fill="#1C201D"/>
<path d="M53.7328 6.18421L54.0015 8.42105C54.7807 6.81579 56.2317 5.81579 58.7575 6.13158L58.7306 8.1579C55.8018 7.76316 54.109 8.97369 54.109 11.3684V19.7368H51.7712V6.18421H53.7328Z" fill="#1C201D"/>
<path d="M60.4149 1.05263H67.025C70.9211 1.05263 73.7963 3.10526 73.7963 7.10526C73.7963 11.0263 70.9211 13.2368 66.8906 13.2368H62.8063V19.7368H60.4149V1.05263ZM62.8063 11.0789H67.025C69.5508 11.0789 71.4048 9.81579 71.4048 7.1579C71.4048 4.5 69.5508 3.18421 67.025 3.18421H62.8063V11.0789Z" fill="#1C201D"/>
<path d="M81.5288 20C77.3371 20 74.1664 16.9737 74.1664 12.9474C74.1664 8.92105 77.3371 5.89474 81.5288 5.89474C85.7474 5.89474 88.8913 8.92105 88.8913 12.9474C88.8913 16.9737 85.7474 20 81.5288 20ZM81.5288 17.9211C84.4308 17.9211 86.6073 15.7632 86.6073 12.9211C86.6073 10.1053 84.4308 7.97368 81.5288 7.97368C78.6537 7.97368 76.4503 10.1053 76.4503 12.9211C76.4503 15.7632 78.6537 17.9211 81.5288 17.9211Z" fill="#1C201D"/>
<path d="M107.159 6.18421H109.577L105.009 19.7368H102.618C99.8233 11.4474 99.4471 10.1579 99.1246 8.36842C98.7753 10.1579 98.3723 11.4211 95.5509 19.7368H93.1594L88.5915 6.18421H91.0636C93.7237 14.3684 94.1268 15.7105 94.4761 17.5789C94.8523 15.7105 95.2822 14.3158 97.9961 6.18421H100.334C102.94 14.1053 103.37 15.4211 103.773 17.3947C104.149 15.6579 104.552 14.2632 107.159 6.18421Z" fill="#1C201D"/>
<path d="M116.292 5.89474C120.511 5.89474 123.44 8.86842 123.359 13.6579H111.59C111.751 16.3158 113.847 18.0789 116.534 18.0789C118.845 18.0789 120.269 16.8421 120.887 15.5526L122.956 15.7895C122.23 18.0789 119.785 20 116.507 20C112.369 20 109.252 17.2105 109.252 12.9474C109.252 8.97368 112.208 5.89474 116.292 5.89474ZM116.292 7.78947C113.739 7.78947 111.778 9.52632 111.59 11.8947H120.914C120.833 9.57895 119.006 7.78947 116.292 7.78947Z" fill="#1C201D"/>
<path d="M126.975 6.18421L127.244 8.42105C128.023 6.81579 129.474 5.81579 132 6.13158L131.973 8.1579C129.044 7.76316 127.351 8.97369 127.351 11.3684V19.7368H125.014V6.18421H126.975Z" fill="#1C201D"/>
</svg>
