<?xml version="1.0" encoding="utf-8"?><svg viewBox="0 0 40 40" xmlns="http://www.w3.org/2000/svg" xmlns:xlink="http://www.w3.org/1999/xlink"><style>:root>svg{display:none}:root>svg:target{display:block}</style><svg viewBox="0 0 17 15" id="chevron.right" xmlns="http://www.w3.org/2000/svg"><path d="M5.137 14.796a.636.636 0 01-.506-.212c-.119-.137-.178-.324-.178-.56v-1.956H3.94c-.647 0-1.21-.13-1.688-.39a2.723 2.723 0 01-1.114-1.12C.878 10.07.748 9.484.748 8.8V3.448c0-.683.128-1.269.383-1.757A2.66 2.66 0 012.25.571C2.74.305 3.328.173 4.017.173h8.961c.693 0 1.281.132 1.764.396.488.26.86.634 1.114 1.121.26.488.39 1.074.39 1.757v5.353c0 .683-.13 1.269-.39 1.757a2.62 2.62 0 01-1.114 1.12c-.483.26-1.07.39-1.764.39h-4.43L6.02 14.331a2.527 2.527 0 01-.465.356.826.826 0 01-.417.109z"/></svg><svg viewBox="0 0 40 40" id="energy" xmlns="http://www.w3.org/2000/svg"><g clip-path="url(#bclip0_1_23)"><path d="M25.999 16V0l-9.78 11.74L5.999 24h8v16l20-24h-8z"/></g><defs><clipPath id="bclip0_1_23"><path d="M0 0h40v40H0z"/></clipPath></defs></svg><svg viewBox="0 0 40 40" id="home" xmlns="http://www.w3.org/2000/svg"><path d="M16.666 31.666v-8.333h6.667v8.333c0 .917.75 1.667 1.667 1.667h5c.916 0 1.666-.75 1.666-1.667V20H34.5c.766 0 1.133-.95.55-1.45L21.116 6a1.68 1.68 0 00-2.233 0L4.95 18.55c-.567.5-.217 1.45.55 1.45h2.833v11.666c0 .917.75 1.667 1.667 1.667h5c.916 0 1.666-.75 1.666-1.667z"/></svg><svg viewBox="0 0 40 40" id="pig" xmlns="http://www.w3.org/2000/svg"><path fill-rule="evenodd" clip-rule="evenodd" d="M19.166 5a7.5 7.5 0 017.227 5.487l.087.341 3.116-.778a1.667 1.667 0 012.055 1.4l.015.217v3.016c.94.9 1.71 1.963 2.274 3.137l.23.513H35a1.667 1.667 0 011.655 1.472l.011.195v5a1.666 1.666 0 01-.741 1.387l-.18.103-1.947.975a10.833 10.833 0 01-3.367 3.875l-.431.29v1.703a1.667 1.667 0 01-1.472 1.655l-.195.012h-5a1.667 1.667 0 01-1.655-1.472l-.012-.195H20a1.667 1.667 0 01-1.472 1.655l-.195.012h-5a1.667 1.667 0 01-1.655-1.472l-.012-.195V31.63a10.833 10.833 0 01-4.756-6.835 5 5 0 01-3.567-4.488L3.333 20v-.833a1.667 1.667 0 013.322-.195l.011.195V20c.003.249.053.48.15.692a10.834 10.834 0 014.897-7.352A7.501 7.501 0 0119.166 5zm7.5 13.333a1.667 1.667 0 100 3.334 1.667 1.667 0 000-3.334zm-7.5-10a4.167 4.167 0 00-4.13 3.615 10.837 10.837 0 012.464-.281h5.628l.117-.029a4.167 4.167 0 00-4.079-3.305z"/></svg><svg viewBox="0 0 23 16" id="quote" xmlns="http://www.w3.org/2000/svg"><path d="M11.04 0l-3.6 15.52H0L5.52 0h5.52zm11.92 0l-3.6 15.52h-7.44L17.44 0h5.52z"/><defs><linearGradient id="epaint0_linear_1_213" x1="11.48" y1="15.52" x2="11.48" y2="0" gradientUnits="userSpaceOnUse"><stop stop-color="#CACAB9"/><stop offset="1" stop-color="#CACAB9" stop-opacity=".56"/></linearGradient></defs></svg><svg viewBox="0 0 40 40" id="solar_panel" xmlns="http://www.w3.org/2000/svg"><path d="M35.834 19.916H4.167L10.5 2.5h19l6.334 17.416zM8.767 7.25H31.217M6.467 13.582H33.533M16.834 2.5l-3.167 17.416M23.167 2.5l3.167 17.416M20 26.25L16.833 31H20v-4.75zM20 34.166l3.167-4.75H20v4.75z"/></svg><svg viewBox="0 0 25 20" id="video" xmlns="http://www.w3.org/2000/svg"><path d="M13.008 12.342c.195 0 .316-.108.361-.322.11-.593.218-1.094.322-1.504a4.35 4.35 0 01.4-1.036c.164-.273.375-.498.636-.673.26-.176.595-.316 1.005-.42.417-.111.931-.209 1.543-.293.222-.02.332-.14.332-.362 0-.214-.11-.338-.332-.37a13.165 13.165 0 01-1.543-.294 3.643 3.643 0 01-1.035-.43 2.056 2.056 0 01-.644-.673 3.875 3.875 0 01-.4-1.026c-.105-.41-.2-.904-.284-1.484-.039-.221-.16-.332-.361-.332-.195 0-.322.107-.381.322a21.11 21.11 0 01-.332 1.514c-.104.41-.238.752-.4 1.025a1.998 1.998 0 01-.625.674c-.26.17-.596.31-1.006.42a13.79 13.79 0 01-1.534.283c-.22.033-.332.157-.332.371 0 .209.111.33.332.362.769.078 1.387.192 1.856.342.469.143.83.354 1.084.634.26.274.459.648.596 1.123.136.476.257 1.081.361 1.817.032.221.16.332.38.332zm-3.965 1.65c.143 0 .238-.078.283-.234.065-.365.12-.651.166-.86.052-.214.127-.377.225-.488.097-.11.25-.192.459-.244.215-.059.524-.117.928-.176.156-.039.234-.133.234-.283 0-.163-.078-.254-.234-.273a9.523 9.523 0 01-.928-.186c-.209-.065-.362-.15-.46-.254a1.13 1.13 0 01-.224-.478c-.045-.209-.1-.489-.166-.84-.045-.176-.14-.264-.283-.264-.137 0-.231.088-.283.264l-.186.84c-.045.208-.117.367-.215.478-.09.104-.244.189-.459.254-.208.059-.51.12-.908.186-.156.02-.234.11-.234.273 0 .156.084.25.254.283.397.059.7.117.908.176.208.052.358.133.45.244.09.104.159.26.204.469l.186.85c.052.175.146.263.283.263zm-6.24 2.402c-.834 0-1.462-.204-1.885-.615-.417-.41-.625-1.041-.625-1.894V2.693C.293 1.84.501 1.21.918.8 1.341.389 1.969.184 2.803.184h19.394c.834 0 1.459.205 1.875.615.423.41.635 1.041.635 1.894v11.192c0 .853-.212 1.484-.635 1.894-.416.41-1.041.616-1.875.616H2.803zm4.785 3.311a.76.76 0 01-.557-.234.76.76 0 01-.234-.557c0-.221.078-.41.234-.566a.777.777 0 01.557-.225h9.824c.215 0 .4.075.557.225a.772.772 0 01.234.566.76.76 0 01-.234.557.76.76 0 01-.557.234H7.588z"/></svg></svg>