<svg width="218" height="161" viewBox="0 0 218 161" fill="none" xmlns="http://www.w3.org/2000/svg">
<path d="M35.3971 159.909C17.6993 159.987 0.899065 145.153 1.15873 125.595C1.42596 105.565 19.4338 91.984 36.1509 92.2008C46.8956 92.3395 57.4135 98.1858 63.5144 107.637C64.3211 108.888 72.207 121.571 67.1825 136.571C62.7203 149.89 49.815 159.843 35.3996 159.909H35.3971Z" fill="#4A4899"/>
<path d="M37.9434 155.239C35.9896 155.146 24.6524 154.425 16.4313 144.817C15.4153 143.63 7.21682 133.717 9.7177 120.424C10.2194 117.762 11.8253 111.381 17.3489 105.862C17.9162 105.295 27.8441 95.6923 40.9813 97.9032C54.1462 100.119 64.8178 113.241 64.0463 127.813C63.3052 141.833 52.2705 153.621 37.9434 155.239Z" fill="#9EE9EF"/>
<path d="M60.8018 112.949C61.3287 114.928 64.4271 127.41 56.6748 138.737C55.137 140.983 48.6251 150.498 36.5039 151.345C23.7196 152.237 15.564 142.725 14.7271 141.717C15.2363 142.579 22.807 154.957 36.5039 155.24C46.5352 155.449 53.279 149.033 55.1849 147.218C57.4664 145.047 62.8741 139.191 64.0111 129.911C65.0321 121.569 62.0195 115.221 60.8018 112.949Z" fill="#53C2E0"/>
<path opacity="0.46" d="M35.5484 97.17C35.5862 96.3178 35.624 95.4632 35.6618 94.6111C38.1652 94.4321 42.5267 94.4623 47.4276 96.3682C54.5042 99.1212 58.432 104.128 59.9194 106.263C59.3093 107.002 58.6967 107.741 58.0866 108.479C56.8059 106.518 53.3571 101.814 46.9309 99.0809C42.1485 97.0489 37.8552 97.0187 35.5459 97.17H35.5484Z" fill="white"/>
<path opacity="0.46" d="M38.6972 155.185C38.735 156.009 38.7703 156.834 38.8081 157.66C36.3501 157.865 32.1122 157.88 27.3474 156.082C19.9859 153.304 16.0153 147.954 14.6136 145.844C15.1279 145.189 15.6447 144.533 16.159 143.88C17.4397 145.842 20.8885 150.546 27.3146 153.279C32.0971 155.311 36.3904 155.341 38.6997 155.19L38.6972 155.185Z" fill="white"/>
<path d="M29.9718 92.6626C27.2062 93.487 17.2355 96.8223 10.4892 107.103C9.19333 109.077 2.73692 119.361 5.33109 132.662C8.85804 150.727 25.9003 158.033 27.2819 158.601C24.5112 157.933 20.2986 156.559 15.9573 153.538C6.29917 146.817 3.33693 137.058 2.69406 134.726C2.0159 132.266 -0.336238 122.661 4.27476 112.138C5.48487 109.375 8.16474 104.272 13.585 99.8299C20.1095 94.4803 26.939 93.0937 29.9718 92.6676V92.6626Z" fill="#333172"/>
<path opacity="0.46" d="M29.5508 93.0959C26.5306 94.0161 22.0633 95.8186 17.654 99.4716C16.8246 100.157 12.8564 103.513 9.56141 109.205C7.43364 112.881 6.06219 116.708 6.13026 116.741C6.15799 116.753 6.42522 116.224 6.53111 116.025C13.7338 102.172 22.7465 97.0186 22.7465 97.0186C26.8962 94.6463 31.4013 93.5396 31.2601 93.0808C31.1996 92.8841 30.3223 92.9774 29.5533 93.0959H29.5508Z" fill="white"/>
<path d="M37.7417 155.361H35.982C35.7803 155.343 35.5812 155.326 35.3795 155.336C33.9576 155.273 32.5509 155.096 31.1567 154.801C28.5575 154.249 26.0844 153.321 23.7423 152.013C21.0095 150.485 18.5893 148.526 16.4767 146.139C14.5657 143.978 13.0001 141.563 11.7825 138.898C10.8421 136.839 10.1438 134.691 9.68747 132.457C9.3799 130.949 9.18578 129.427 9.10763 127.886C9.10763 127.859 9.11519 127.826 9.0799 127.813V124.73C9.12527 124.707 9.10511 124.662 9.10763 124.627C9.18326 123.227 9.34713 121.841 9.61184 120.467C10.1211 117.827 10.9581 115.309 12.1304 112.914C13.5699 109.974 15.4304 107.37 17.7044 105.101C19.8019 103.009 22.1515 101.304 24.7558 99.9935C28.2323 98.2439 31.9004 97.3161 35.7451 97.1901C37.2577 97.1396 38.7678 97.2229 40.2678 97.4371C42.0552 97.6943 43.8023 98.1229 45.5066 98.7456C49.7747 100.304 53.463 102.822 56.5664 106.284C59.0421 109.044 60.9303 112.205 62.2337 115.755C63.1337 118.206 63.7035 120.739 63.9506 123.354C64.0691 124.601 64.1119 125.854 64.0741 127.112C64.0464 128.068 63.9808 129.018 63.8674 129.964C63.6279 131.953 63.2043 133.897 62.5791 135.79C61.1068 140.255 58.7471 144.117 55.5101 147.377C53.4504 149.451 51.1361 151.146 48.5747 152.459C45.315 154.131 41.8762 155.078 38.2611 155.313C38.0871 155.323 37.9106 155.303 37.7392 155.363L37.7417 155.361ZM55.0689 119.481C54.9983 119.486 54.9555 119.527 54.9101 119.554C54.3706 119.882 53.8336 120.215 53.289 120.535C53.1706 120.606 53.1252 120.679 53.1252 120.827C53.1302 125.958 53.1277 131.086 53.1302 136.216C53.1302 136.337 53.0974 136.405 52.9941 136.466C51.5924 137.315 50.1932 138.172 48.794 139.027C46.999 140.124 45.2015 141.22 43.4065 142.317C42.4183 142.919 41.43 143.522 40.4443 144.127C39.1938 144.891 37.9459 145.652 36.6955 146.416C36.6199 146.464 36.5593 146.482 36.4711 146.429C35.2005 145.66 33.9425 144.863 32.6593 144.117C32.2105 143.855 31.7769 143.562 31.3332 143.293C27.6046 141.016 23.8734 138.742 20.1423 136.468C20.0313 136.4 19.996 136.327 19.996 136.196C19.9986 129.583 19.9986 122.97 19.996 116.355C19.996 116.204 20.0439 116.128 20.165 116.053C24.6776 113.302 29.1903 110.547 33.7005 107.791C34.6207 107.229 35.5408 106.667 36.461 106.102C36.5367 106.057 36.5921 106.044 36.6728 106.094C38.6896 107.33 40.7065 108.56 42.7233 109.793C44.8763 111.109 47.0318 112.425 49.1848 113.743C49.2705 113.796 49.336 113.796 49.4217 113.743C49.8554 113.474 50.294 113.209 50.7302 112.942C50.8915 112.843 51.0529 112.745 51.2293 112.637C51.1663 112.596 51.1209 112.568 51.073 112.538C48.5192 110.978 45.9629 109.422 43.4116 107.857C42.2368 107.136 41.0493 106.437 39.8796 105.706C38.8359 105.053 37.777 104.42 36.7283 103.775C36.6148 103.704 36.5367 103.699 36.4207 103.773C35.0366 104.625 33.6475 105.469 32.261 106.316C31.2172 106.954 30.1735 107.589 29.1323 108.227C25.4919 110.451 21.849 112.674 18.2086 114.898C18.1153 114.956 18.075 115.014 18.075 115.135C18.0775 122.557 18.0775 129.981 18.075 137.403C18.075 137.522 18.1103 137.582 18.2061 137.64C20.3439 138.941 22.4793 140.247 24.6146 141.55C27.3222 143.204 30.0273 144.863 32.7349 146.517C33.9702 147.271 35.2081 148.022 36.4409 148.778C36.5417 148.841 36.6123 148.834 36.7131 148.773C41.1956 146.033 45.678 143.295 50.1604 140.557C51.7562 139.584 53.3495 138.608 54.9454 137.638C55.0437 137.577 55.0714 137.512 55.0714 137.398C55.0714 131.479 55.0714 125.559 55.0714 119.638C55.0714 119.587 55.0714 119.534 55.0714 119.481H55.0689ZM33.9778 116.585C32.4273 116.585 30.8794 116.585 29.329 116.579C29.1853 116.579 29.1575 116.622 29.1575 116.766C29.1626 117.638 29.1601 118.511 29.1601 119.383C29.1601 119.6 29.1349 119.58 29.3416 119.58C32.3618 119.58 35.3845 119.58 38.4048 119.58C38.6216 119.58 38.8333 119.605 39.0451 119.648C40.5376 119.948 41.9241 121.533 41.6494 123.56C41.425 125.222 40.0056 126.555 38.4199 126.558C35.3845 126.558 32.3517 126.558 29.3164 126.558C29.213 126.558 29.155 126.56 29.155 126.707C29.1601 129.886 29.1601 133.067 29.155 136.246C29.155 136.372 29.1928 136.397 29.3038 136.397C30.1231 136.392 30.945 136.392 31.7643 136.397C31.903 136.397 31.9383 136.365 31.9383 136.216C31.9332 134.058 31.9357 131.902 31.9357 129.744C31.9357 129.53 31.9131 129.555 32.1097 129.555C33.8618 129.555 35.6114 129.55 37.3636 129.555C38.0115 129.555 38.6543 129.523 39.2922 129.407C39.8342 129.308 40.3813 129.215 40.8855 128.978C42.4611 128.234 43.5376 126.984 44.1528 125.285C44.5385 124.218 44.6343 123.114 44.4351 122C44.0317 119.738 42.8317 118.112 40.8552 117.144C40.0863 116.766 39.2644 116.592 38.4174 116.587C36.9375 116.582 35.4551 116.587 33.9753 116.587L33.9778 116.585ZM38.7401 131.544C38.7602 131.59 38.7728 131.625 38.7905 131.658C39.5821 133.12 40.3762 134.582 41.1678 136.047C41.2183 136.14 41.2762 136.158 41.367 136.158C42.3477 136.158 43.3284 136.158 44.3091 136.158C44.4729 136.158 44.4729 136.158 44.3897 136.002C43.4922 134.345 42.5922 132.692 41.6973 131.033C41.6494 130.944 41.609 130.922 41.5157 130.957C41.0317 131.141 40.5376 131.277 40.0308 131.376C39.6073 131.459 39.1838 131.514 38.7401 131.547V131.544ZM51.1966 116.169C51.1966 116.527 51.1991 116.885 51.1966 117.245C51.1966 117.336 51.2243 117.384 51.2974 117.427C51.8672 117.757 52.4369 118.09 53.0016 118.43C53.0899 118.483 53.1554 118.475 53.2411 118.425C53.8033 118.09 54.3681 117.757 54.9328 117.429C55.0109 117.384 55.0412 117.333 55.0412 117.237C55.0361 116.529 55.0387 115.823 55.0412 115.115C55.0412 115.027 55.0185 114.976 54.9429 114.931C54.3655 114.583 53.7907 114.23 53.221 113.874C53.1403 113.824 53.0848 113.834 53.0092 113.879C52.4394 114.232 51.8697 114.583 51.2974 114.928C51.2167 114.976 51.194 115.032 51.194 115.125C51.1991 115.473 51.194 115.823 51.194 116.171L51.1966 116.169Z" fill="#151142"/>
<path d="M35.3467 155.361C35.3467 155.361 35.3669 155.346 35.377 155.335C35.5786 155.325 35.7803 155.343 35.9795 155.361H35.3467Z" fill="#4764FC"/>
<path d="M55.0689 119.482C55.0689 119.537 55.0689 119.588 55.0689 119.638C55.0689 125.557 55.0689 131.477 55.0689 137.399C55.0689 137.512 55.0412 137.578 54.9429 137.638C53.347 138.609 51.7512 139.582 50.1579 140.558C45.6755 143.295 41.1905 146.033 36.7106 148.774C36.6098 148.834 36.5392 148.839 36.4383 148.779C35.2055 148.022 33.9677 147.274 32.7324 146.517C30.0248 144.864 27.3197 143.207 24.6121 141.551C22.4768 140.245 20.3414 138.942 18.2036 137.641C18.1078 137.583 18.0725 137.52 18.0725 137.404C18.075 129.982 18.075 122.557 18.0725 115.135C18.0725 115.017 18.1128 114.956 18.2061 114.898C21.849 112.677 25.4894 110.451 29.1298 108.228C30.1735 107.59 31.2172 106.955 32.2584 106.317C33.645 105.47 35.0341 104.625 36.4182 103.773C36.5341 103.702 36.6123 103.707 36.7257 103.775C37.7745 104.423 38.8308 105.054 39.8771 105.707C41.0468 106.438 42.2342 107.136 43.409 107.857C45.9603 109.423 48.5167 110.978 51.0705 112.539C51.1184 112.566 51.1638 112.597 51.2268 112.637C51.0503 112.745 50.889 112.844 50.7277 112.942C50.2915 113.209 49.8528 113.474 49.4192 113.744C49.3335 113.797 49.268 113.799 49.1822 113.744C47.0293 112.425 44.8763 111.109 42.7208 109.793C40.704 108.56 38.6871 107.33 36.6703 106.095C36.5896 106.044 36.5341 106.057 36.4585 106.102C35.5408 106.667 34.6181 107.229 33.698 107.791C29.1853 110.547 24.6751 113.303 20.1624 116.053C20.0414 116.126 19.9935 116.202 19.9935 116.356C19.9986 122.968 19.996 129.581 19.9935 136.196C19.9935 136.327 20.0288 136.403 20.1397 136.468C23.8709 138.74 27.6021 141.016 31.3307 143.293C31.7744 143.565 32.208 143.855 32.6568 144.117C33.94 144.866 35.1955 145.66 36.4686 146.429C36.5568 146.482 36.6173 146.462 36.693 146.417C37.9409 145.653 39.1913 144.889 40.4418 144.127C41.43 143.525 42.4183 142.922 43.404 142.317C45.199 141.221 46.9965 140.124 48.7915 139.027C50.1907 138.173 51.5898 137.318 52.9916 136.466C53.0924 136.405 53.1277 136.337 53.1277 136.216C53.1252 131.086 53.1277 125.958 53.1227 120.828C53.1227 120.682 53.1655 120.606 53.2865 120.535C53.8311 120.215 54.368 119.882 54.9076 119.555C54.9529 119.527 54.9958 119.487 55.0664 119.482H55.0689Z" fill="url(#paint0_linear_2001_2)"/>
<path d="M33.9778 116.585C35.4576 116.585 36.94 116.58 38.4199 116.585C39.2695 116.587 40.0888 116.764 40.8577 117.142C42.8342 118.11 44.0343 119.736 44.4376 121.997C44.6368 123.114 44.541 124.216 44.1553 125.282C43.5401 126.982 42.4636 128.232 40.888 128.976C40.3838 129.213 39.8367 129.308 39.2947 129.404C38.6569 129.52 38.0115 129.556 37.3661 129.553C35.6139 129.548 33.8643 129.553 32.1122 129.553C31.9181 129.553 31.9383 129.53 31.9383 129.742C31.9383 131.9 31.9383 134.056 31.9408 136.214C31.9408 136.362 31.9055 136.398 31.7668 136.395C30.9475 136.388 30.1256 136.39 29.3063 136.395C29.1953 136.395 29.1575 136.37 29.1575 136.244C29.1601 133.065 29.1601 129.883 29.1575 126.704C29.1575 126.558 29.2155 126.555 29.3189 126.555C32.3542 126.555 35.3871 126.555 38.4224 126.555C40.0081 126.555 41.4275 125.222 41.6519 123.558C41.9267 121.531 40.5376 119.945 39.0476 119.645C38.8358 119.602 38.6216 119.577 38.4073 119.577C35.387 119.577 32.3643 119.577 29.3441 119.577C29.1374 119.577 29.1626 119.597 29.1626 119.381C29.1626 118.508 29.1651 117.636 29.1601 116.764C29.1601 116.62 29.1878 116.577 29.3315 116.577C30.8819 116.582 32.4299 116.582 33.9803 116.582L33.9778 116.585Z" fill="url(#paint1_linear_2001_2)"/>
<path d="M38.7401 131.545C39.1812 131.512 39.6073 131.457 40.0308 131.373C40.535 131.273 41.0317 131.139 41.5157 130.955C41.609 130.92 41.6493 130.942 41.6972 131.031C42.5922 132.687 43.4922 134.343 44.3897 135.999C44.4754 136.156 44.4729 136.156 44.3091 136.156C43.3284 136.156 42.3477 136.156 41.367 136.156C41.2762 136.156 41.2182 136.138 41.1678 136.045C40.3787 134.58 39.5846 133.118 38.7905 131.656C38.7728 131.623 38.7602 131.588 38.7401 131.542V131.545Z" fill="url(#paint2_linear_2001_2)"/>
<path d="M51.1965 116.169C51.1965 115.821 51.1991 115.47 51.1965 115.122C51.1965 115.029 51.2192 114.974 51.2999 114.926C51.8722 114.58 52.4419 114.23 53.0117 113.877C53.0873 113.832 53.1428 113.822 53.2235 113.872C53.7957 114.227 54.3705 114.58 54.9453 114.928C55.0184 114.974 55.0437 115.024 55.0437 115.112C55.0411 115.821 55.0411 116.527 55.0437 117.235C55.0437 117.331 55.0159 117.381 54.9353 117.427C54.368 117.754 53.8058 118.087 53.2436 118.423C53.1579 118.473 53.0924 118.48 53.0041 118.428C52.4369 118.09 51.8697 117.757 51.2999 117.424C51.2268 117.381 51.1965 117.333 51.1991 117.243C51.2041 116.885 51.1991 116.527 51.1991 116.166L51.1965 116.169Z" fill="url(#paint3_linear_2001_2)"/>
<path d="M37.6636 159.352C34.3282 159.433 31.0105 158.926 27.8441 157.875C24.7331 156.844 21.8036 155.293 19.1565 153.362C16.4993 151.423 14.1169 149.074 12.1253 146.454C10.0933 143.785 8.42945 140.82 7.24456 137.681C6.04706 134.505 5.31596 131.154 5.13696 127.761C4.95797 124.367 5.33108 120.911 6.22606 117.606C7.10086 114.384 8.45719 111.306 10.2219 108.472C11.9791 105.649 14.1422 103.085 16.6229 100.871C19.1036 98.6577 21.8465 96.8577 24.8339 95.4862C27.8189 94.1173 31.0433 93.2223 34.3131 92.8996C37.5829 92.5769 41.1048 92.819 44.3872 93.661C47.4881 94.4576 50.4302 95.7736 53.1075 97.5283C55.7496 99.2602 58.1042 101.411 60.1211 103.836C62.1379 106.259 63.8069 108.969 65.1102 111.835C66.4136 114.702 67.3464 117.782 67.8607 120.906C68.37 123.994 68.4557 127.161 68.0901 130.272C67.7044 133.559 66.7741 136.794 65.4102 139.806C64.006 142.91 62.148 145.814 59.9093 148.383C57.6782 150.944 55.079 153.183 52.1823 154.96C49.2579 156.755 46.0461 158.064 42.6855 158.767C41.0317 159.113 39.3527 159.304 37.6661 159.352C37.0459 159.37 37.0434 160.335 37.6661 160.318C41.2309 160.219 44.7654 159.476 48.0654 158.124C51.3151 156.793 54.3176 154.928 56.9849 152.646C59.6396 150.375 61.9463 147.695 63.827 144.75C65.7077 141.806 67.1624 138.586 68.0926 135.223C68.9725 132.036 69.3607 128.721 69.2624 125.419C69.1641 122.116 68.6145 118.945 67.6565 115.846C66.696 112.74 65.3321 109.75 63.5976 107C61.8707 104.259 59.7757 101.741 57.3555 99.5855C54.9277 97.4224 52.1772 95.6173 49.1974 94.3114C46.0738 92.9425 42.741 92.1206 39.3401 91.8736C35.8963 91.624 32.4072 91.987 29.0819 92.9122C25.8096 93.8249 22.6885 95.2795 19.8624 97.1577C17.0363 99.0384 14.4875 101.333 12.3169 103.939C10.1286 106.569 8.30592 109.498 6.9496 112.642C5.59327 115.786 4.66805 119.207 4.30501 122.666C3.93442 126.175 4.15123 129.737 4.90251 133.186C5.65378 136.635 6.90422 139.837 8.60089 142.852C10.2774 145.832 12.3875 148.58 14.838 150.967C17.2884 153.354 20.0288 155.351 23.0415 156.897C26.0466 158.439 29.2962 159.521 32.6416 160.007C34.3055 160.25 35.9845 160.358 37.6661 160.318C38.2863 160.302 38.2888 159.337 37.6661 159.352H37.6636Z" fill="black"/>
<path d="M37.6661 159.352C39.3527 159.304 41.0317 159.113 42.6855 158.767C46.0461 158.064 49.2579 156.755 52.1823 154.96C55.079 153.183 57.6782 150.944 59.9093 148.383C62.148 145.814 64.006 142.91 65.4102 139.806C66.7741 136.794 67.7044 133.559 68.0901 130.272C68.4557 127.161 68.37 123.994 67.8607 120.906C67.3464 117.782 66.4136 114.702 65.1102 111.835C63.8069 108.969 62.1379 106.259 60.1211 103.836C58.1042 101.411 55.7496 99.2602 53.1075 97.5283C50.4302 95.7736 47.4881 94.4576 44.3872 93.661C41.1048 92.819 37.5829 92.5769 34.3131 92.8996C31.0433 93.2223 27.8189 94.1173 24.8339 95.4862C21.8465 96.8577 19.1036 98.6577 16.6229 100.871C14.1422 103.085 11.9791 105.649 10.2219 108.472C8.45719 111.306 7.10086 114.384 6.22606 117.606C5.33108 120.911 4.95797 124.367 5.13696 127.761C5.31596 131.154 6.04706 134.505 7.24456 137.681C8.42945 140.82 10.0933 143.785 12.1253 146.454C14.1169 149.074 16.4993 151.423 19.1565 153.362C21.8036 155.293 24.7331 156.844 27.8441 157.875C31.0105 158.926 34.3282 159.433 37.6636 159.352H37.6661ZM37.6661 159.352C37.0459 159.37 37.0434 160.335 37.6661 160.318M37.6661 159.352C38.2888 159.337 38.2863 160.302 37.6661 160.318M37.6661 160.318C41.2309 160.219 44.7654 159.476 48.0654 158.124C51.3151 156.793 54.3176 154.928 56.9849 152.646C59.6396 150.375 61.9463 147.695 63.827 144.75C65.7077 141.806 67.1624 138.586 68.0926 135.223C68.9725 132.036 69.3607 128.721 69.2624 125.419C69.1641 122.116 68.6145 118.945 67.6565 115.846C66.696 112.74 65.3321 109.75 63.5976 107C61.8707 104.259 59.7757 101.741 57.3555 99.5855C54.9277 97.4224 52.1773 95.6173 49.1974 94.3114C46.0738 92.9425 42.741 92.1206 39.3401 91.8736C35.8963 91.624 32.4072 91.987 29.0819 92.9122C25.8096 93.8249 22.6885 95.2795 19.8624 97.1577C17.0363 99.0384 14.4875 101.333 12.3169 103.939C10.1286 106.569 8.30592 109.498 6.9496 112.642C5.59327 115.786 4.66805 119.207 4.30501 122.666C3.93442 126.175 4.15123 129.737 4.90251 133.186C5.65378 136.635 6.90422 139.837 8.60089 142.852C10.2774 145.832 12.3875 148.58 14.838 150.967C17.2884 153.354 20.0288 155.351 23.0415 156.897C26.0466 158.439 29.2962 159.521 32.6416 160.007C34.3055 160.25 35.9845 160.358 37.6661 160.318Z" stroke="black" stroke-width="0.206726" stroke-miterlimit="10"/>
<path d="M38.1829 91.8102C34.9988 91.5757 31.787 91.7723 28.6483 92.3673C23.6995 93.3051 18.9599 95.3069 14.8657 98.2439C11.5455 100.629 8.65382 103.583 6.34454 106.957C5.23276 108.58 4.27224 110.3 3.50332 112.11C2.02346 115.591 1.14109 119.315 0.858733 123.086C0.498223 127.871 1.16126 132.729 2.78482 137.247C3.94198 140.471 5.56049 143.537 7.58742 146.3C8.79248 147.946 10.1387 149.479 11.6236 150.878C14.3312 153.435 17.4473 155.573 20.8204 157.151C25.2549 159.226 30.1105 160.332 35.0064 160.39C35.8913 160.4 36.7787 160.375 37.6636 160.317C38.2812 160.277 38.2863 159.311 37.6636 159.352C33.1332 159.644 28.5752 159.042 24.2894 157.534C20.5028 156.203 16.9556 154.163 13.8774 151.589C12.2211 150.205 10.6908 148.67 9.33199 146.991C7.5496 144.79 5.98151 142.226 4.77897 139.597C2.94112 135.576 1.89741 131.194 1.75119 126.777C1.61001 122.547 2.268 118.304 3.67727 114.316C4.31762 112.503 5.11931 110.771 6.11765 109.102C7.90003 106.127 10.1639 103.442 12.7631 101.148C16.522 97.8304 21.0171 95.3901 25.8398 94.0236C29.3365 93.0329 32.982 92.5892 36.6148 92.6976C37.1367 92.7127 37.661 92.7404 38.1829 92.7782C38.8031 92.8236 38.8006 91.8581 38.1829 91.8127V91.8102Z" fill="black" stroke="black" stroke-width="0.206726" stroke-miterlimit="10"/>
<path d="M8.63367 105.205C9.79587 105.28 10.9556 105.353 12.1178 105.429C12.3699 105.444 12.6119 105.194 12.6018 104.945C12.5892 104.67 12.39 104.479 12.1178 104.461C10.9556 104.385 9.79587 104.312 8.63367 104.236C8.38156 104.221 8.13954 104.471 8.14963 104.721C8.16223 104.995 8.36139 105.187 8.63367 105.205Z" fill="black" stroke="black" stroke-width="0.206726" stroke-miterlimit="10"/>
<path d="M12.1581 101.499C13.28 101.574 14.3993 101.647 15.5212 101.723C15.7733 101.741 16.0153 101.489 16.0052 101.239C15.9926 100.964 15.7934 100.775 15.5212 100.755C14.3993 100.679 13.28 100.606 12.1581 100.531C11.906 100.513 11.664 100.765 11.674 101.015C11.6866 101.29 11.8858 101.479 12.1581 101.499Z" fill="black" stroke="black" stroke-width="0.206726" stroke-miterlimit="10"/>
<path d="M16.3531 98.2868C17.3893 98.3625 18.4229 98.4356 19.4591 98.5112C19.7112 98.5288 19.9532 98.2767 19.9431 98.0272C19.9305 97.7498 19.7313 97.5633 19.4591 97.5431C18.4229 97.4675 17.3893 97.3944 16.3531 97.3187C16.101 97.3011 15.859 97.5532 15.8691 97.8028C15.8817 98.0801 16.0808 98.2667 16.3531 98.2868Z" fill="black" stroke="black" stroke-width="0.206726" stroke-miterlimit="10"/>
<path d="M5.68152 109.374C6.90675 109.402 8.12946 109.43 9.35469 109.458C9.60679 109.463 9.84881 109.231 9.83873 108.974C9.82865 108.716 9.62696 108.497 9.35469 108.49C8.12946 108.462 6.90675 108.434 5.68152 108.406C5.42941 108.401 5.18739 108.633 5.19748 108.89C5.20756 109.148 5.40925 109.367 5.68152 109.374Z" fill="black" stroke="black" stroke-width="0.206726" stroke-miterlimit="10"/>
<path d="M3.52854 113.67C4.75377 113.698 5.97648 113.726 7.20171 113.754C7.45381 113.759 7.69583 113.527 7.68575 113.269C7.67567 113.012 7.47398 112.793 7.20171 112.785C5.97648 112.758 4.75377 112.73 3.52854 112.702C3.27643 112.697 3.03441 112.929 3.04449 113.186C3.05458 113.443 3.25626 113.663 3.52854 113.67Z" fill="black" stroke="black" stroke-width="0.206726" stroke-miterlimit="10"/>
<path d="M2.16214 117.969C3.38737 117.996 4.61008 118.024 5.83531 118.052C6.08742 118.057 6.32944 117.825 6.31936 117.568C6.30927 117.311 6.10759 117.091 5.83531 117.084C4.61008 117.056 3.38737 117.028 2.16214 117.001C1.91004 116.996 1.66802 117.227 1.6781 117.485C1.68818 117.742 1.88987 117.961 2.16214 117.969Z" fill="black" stroke="black" stroke-width="0.206726" stroke-miterlimit="10"/>
<path d="M1.46381 122.022C2.61593 122.05 3.76805 122.078 4.92269 122.106C5.17479 122.111 5.41682 121.879 5.40673 121.622C5.39665 121.364 5.19496 121.145 4.92269 121.137C3.77057 121.11 2.61845 121.082 1.46381 121.054C1.2117 121.049 0.969682 121.281 0.979766 121.538C0.98985 121.795 1.19153 122.015 1.46381 122.022Z" fill="black" stroke="black" stroke-width="0.206726" stroke-miterlimit="10"/>
<path d="M4.61762 125.194C3.4655 125.166 2.31338 125.139 1.15874 125.111C1.08058 125.111 0.992348 124.66 0.909153 124.044C0.886464 124.12 0.866294 124.196 0.841084 124.271C0.841084 124.274 0.841083 124.276 0.838562 124.279C0.939404 125.27 1.05285 126.074 1.15874 126.076C2.31086 126.104 3.46298 126.132 4.61762 126.16C4.86972 126.165 5.11174 125.933 5.10166 125.676C5.08905 125.408 4.88989 125.199 4.61762 125.192V125.194Z" fill="black" stroke="black" stroke-width="0.206726" stroke-miterlimit="10"/>
<path d="M1.6554 131.449C2.80752 131.476 3.95964 131.504 5.11428 131.532C5.36638 131.537 5.6084 131.305 5.59832 131.048C5.58824 130.791 5.38655 130.571 5.11428 130.564C3.96216 130.536 2.81004 130.508 1.6554 130.481C1.40329 130.476 1.16127 130.707 1.17136 130.965C1.18144 131.222 1.38312 131.441 1.6554 131.449Z" fill="black"/>
<path d="M3.03693 136.821C4.13611 136.849 5.23528 136.876 6.33446 136.904C6.58657 136.912 6.82859 136.677 6.8185 136.42C6.80842 136.163 6.60674 135.943 6.33446 135.936C5.23528 135.908 4.13611 135.88 3.03693 135.853C2.78482 135.845 2.5428 136.08 2.55289 136.337C2.56297 136.594 2.76465 136.813 3.03693 136.821Z" fill="black" stroke="black" stroke-width="0.206726" stroke-miterlimit="10"/>
<path d="M5.29831 142.193C6.39749 142.221 7.49667 142.249 8.59585 142.277C8.84795 142.284 9.08997 142.05 9.07989 141.793C9.0698 141.535 8.86812 141.316 8.59585 141.308C7.49667 141.281 6.39749 141.253 5.29831 141.225C5.04621 141.218 4.80419 141.452 4.81427 141.709C4.82435 141.966 5.02604 142.186 5.29831 142.193Z" fill="black" stroke="black" stroke-width="0.206726" stroke-miterlimit="10"/>
<path d="M8.35886 147.036C9.45804 147.064 10.5572 147.092 11.6564 147.119C11.9085 147.127 12.1505 146.892 12.1404 146.635C12.1304 146.378 11.9287 146.159 11.6564 146.151C10.5572 146.124 9.45804 146.096 8.35886 146.068C8.10675 146.06 7.86473 146.295 7.87482 146.552C7.8849 146.809 8.08658 147.029 8.35886 147.036Z" fill="black" stroke="black" stroke-width="0.206726" stroke-miterlimit="10"/>
<path d="M11.6539 150.792C12.7531 150.82 13.8523 150.848 14.9514 150.876C15.2035 150.883 15.4456 150.649 15.4355 150.392C15.4254 150.134 15.2237 149.915 14.9514 149.908C13.8523 149.88 12.7531 149.852 11.6539 149.824C11.4018 149.817 11.1598 150.051 11.1699 150.308C11.1799 150.566 11.3816 150.785 11.6539 150.792Z" fill="black" stroke="black" stroke-width="0.206726" stroke-miterlimit="10"/>
<path d="M15.5867 154.037C16.6254 154.065 17.6641 154.093 18.7028 154.12C18.9549 154.128 19.1969 153.893 19.1868 153.636C19.1767 153.379 18.975 153.16 18.7028 153.152C17.6641 153.124 16.6254 153.097 15.5867 153.069C15.3346 153.061 15.0926 153.296 15.1027 153.553C15.1128 153.81 15.3145 154.03 15.5867 154.037Z" fill="black" stroke="black" stroke-width="0.206726" stroke-miterlimit="10"/>
<path d="M38.0215 154.744C35.3013 154.839 32.5937 154.444 30.0046 153.607C27.4155 152.77 24.9978 151.509 22.7868 149.946C20.5255 148.348 18.5011 146.417 16.7439 144.276C14.9791 142.123 13.4968 139.731 12.3371 137.2C11.1799 134.674 10.3631 131.986 9.93452 129.241C9.50595 126.495 9.49082 123.715 9.92948 120.997C10.3681 118.279 11.311 115.481 12.622 112.965C13.9531 110.416 15.6598 108.071 17.6691 106.014C19.696 103.939 22.0179 102.165 24.5667 100.781C27.1155 99.3965 29.9239 98.4158 32.8105 97.9444C35.6997 97.4729 38.6896 97.536 41.5561 98.1259C44.299 98.6906 46.9259 99.7217 49.336 101.144C51.7462 102.565 53.9092 104.348 55.795 106.403C57.6984 108.472 59.2992 110.807 60.5698 113.315C61.843 115.831 62.7631 118.526 63.2926 121.297C63.827 124.103 63.9329 126.989 63.5875 129.826C63.2396 132.71 62.4052 135.551 61.185 138.185C59.9648 140.822 58.369 143.285 56.4504 145.464C54.5546 147.617 52.3588 149.505 49.9159 151.01C47.4957 152.502 44.8486 153.609 42.0704 154.222C40.7367 154.517 39.3854 154.688 38.0215 154.741C37.4014 154.764 37.3988 155.732 38.0215 155.707C40.951 155.593 43.8452 154.943 46.5477 153.816C49.2806 152.676 51.8041 151.098 54.058 149.177C56.3118 147.256 58.3084 144.959 59.932 142.456C61.5682 139.93 62.8413 137.157 63.6657 134.263C64.485 131.384 64.8506 128.373 64.727 125.381C64.606 122.462 64.0438 119.56 63.0884 116.799C62.1354 114.049 60.8043 111.424 59.1379 109.037C57.4891 106.675 55.5277 104.532 53.284 102.722C51.0403 100.912 48.5192 99.4217 45.8141 98.3755C43.0687 97.3141 40.1367 96.7368 37.1921 96.6788C34.2475 96.6208 31.0634 97.1225 28.1794 98.1335C25.2953 99.1444 22.681 100.581 20.2986 102.407C17.9136 104.234 15.8086 106.395 14.0489 108.83C12.322 111.215 10.9455 113.86 10.0127 116.653C9.07989 119.446 8.63618 122.293 8.64879 125.189C8.6614 128.058 9.12527 130.93 9.9673 133.67C10.8093 136.411 12.0346 139.068 13.5699 141.506C15.1052 143.943 16.938 146.177 19.038 148.131C21.0952 150.044 23.4121 151.698 25.923 152.964C28.4189 154.219 31.1063 155.104 33.8744 155.487C35.2484 155.676 36.6325 155.757 38.019 155.709C38.6392 155.687 38.6417 154.721 38.019 154.744H38.0215Z" fill="black" stroke="black" stroke-width="0.206726" stroke-miterlimit="10"/>
<path d="M176.714 80.2928C197.326 80.3835 216.897 63.1068 216.592 40.324C216.279 16.9942 195.304 1.17713 175.836 1.42924C163.322 1.59059 151.072 8.39994 143.965 19.4094C143.025 20.8665 133.841 35.6374 139.694 53.1108C144.893 68.6253 159.921 80.2171 176.716 80.2928H176.714Z" fill="#4A4899"/>
<path d="M173.746 74.8521C176.023 74.7437 189.226 73.9042 198.803 62.7133C199.985 61.3318 209.538 49.7853 206.621 34.301C206.036 31.2002 204.168 23.7681 197.732 17.3419C197.071 16.6814 185.507 5.49552 170.207 8.06951C154.871 10.6511 142.442 25.9362 143.342 42.9079C144.207 59.2368 157.059 72.9689 173.746 74.8547V74.8521Z" fill="#9EE9EF"/>
<path d="M147.124 25.5933C146.511 27.8976 142.901 42.439 151.929 55.6291C153.719 58.246 161.305 69.3285 175.423 70.3143C190.315 71.3529 199.814 60.2754 200.787 59.1006C200.195 60.104 191.376 74.5219 175.423 74.8522C163.738 75.0942 155.885 67.6218 153.664 65.5066C151.006 62.978 144.706 56.1586 143.385 45.3483C142.195 35.6322 145.707 28.2379 147.124 25.5908V25.5933Z" fill="#53C2E0"/>
<path opacity="0.46" d="M176.537 7.21723C176.492 6.22393 176.449 5.23064 176.403 4.23482C173.487 4.02558 168.407 4.06087 162.699 6.28192C154.455 9.4887 149.882 15.3199 148.148 17.8056C148.858 18.6653 149.572 19.525 150.283 20.3872C151.773 18.1006 155.791 12.6224 163.276 9.4408C168.848 7.07353 173.847 7.03823 176.537 7.21471V7.21723Z" fill="white"/>
<path opacity="0.46" d="M172.866 74.7892C172.824 75.7497 172.781 76.7102 172.738 77.6708C175.602 77.9103 180.535 77.9254 186.087 75.8304C194.663 72.5934 199.285 66.3638 200.918 63.9058C200.318 63.1419 199.718 62.3806 199.118 61.6167C197.628 63.9033 193.61 69.3815 186.125 72.5631C180.553 74.9304 175.554 74.9657 172.864 74.7892H172.866Z" fill="white"/>
<path d="M183.031 1.96631C186.251 2.92683 197.868 6.81177 205.726 18.7868C207.236 21.086 214.756 33.0635 211.733 48.5553C207.627 69.5985 187.776 78.1071 186.165 78.7676C189.392 77.9886 194.298 76.3903 199.355 72.8709C210.607 65.043 214.053 53.6756 214.804 50.9604C215.596 48.0965 218.334 36.9056 212.964 24.6482C211.554 21.4288 208.433 15.4867 202.121 10.311C194.52 4.07895 186.566 2.46548 183.034 1.96631H183.031Z" fill="#333172"/>
<path opacity="0.46" d="M183.523 2.47058C187.042 3.54202 192.246 5.64206 197.381 9.89759C198.347 10.6968 202.968 14.6044 206.807 21.2373C209.288 25.5205 210.884 29.9778 210.803 30.0156C210.773 30.0307 210.458 29.413 210.337 29.1811C201.947 13.0464 191.449 7.04376 191.449 7.04376C186.614 4.27817 181.367 2.98991 181.534 2.45797C181.604 2.22855 182.625 2.33696 183.52 2.4731L183.523 2.47058Z" fill="white"/>
<path d="M176.683 74.9934H174.634C174.399 74.9733 174.167 74.9531 173.933 74.9657C172.279 74.8926 170.638 74.6859 169.014 74.343C165.989 73.7001 163.107 72.6211 160.38 71.0934C157.198 69.3135 154.377 67.0319 151.917 64.2512C149.69 61.7352 147.865 58.9217 146.448 55.8183C145.354 53.4208 144.54 50.9174 144.008 48.3157C143.647 46.561 143.423 44.7862 143.332 42.9912C143.332 42.9609 143.342 42.9206 143.3 42.9055V39.313C143.353 39.2853 143.33 39.2348 143.33 39.192C143.416 37.5609 143.61 35.9449 143.917 34.3465C144.51 31.2708 145.483 28.3388 146.849 25.5506C148.526 22.127 150.691 19.0942 153.341 16.4496C155.784 14.0117 158.522 12.0251 161.554 10.4999C165.603 8.46036 169.876 7.38135 174.356 7.23513C176.119 7.17715 177.876 7.27294 179.625 7.52505C181.708 7.82505 183.742 8.32423 185.729 9.04777C190.7 10.8629 194.996 13.7949 198.611 17.8286C201.496 21.0454 203.694 24.7262 205.214 28.8607C206.263 31.7145 206.926 34.6667 207.213 37.7121C207.349 39.1668 207.402 40.6265 207.357 42.0887C207.324 43.2004 207.249 44.3072 207.117 45.4114C206.84 47.7283 206.346 49.9922 205.617 52.1981C203.903 57.399 201.153 61.8966 197.384 65.6958C194.984 68.1135 192.289 70.0849 189.304 71.6152C185.507 73.5615 181.504 74.6657 177.293 74.938C177.092 74.9506 176.885 74.9254 176.686 74.9959L176.683 74.9934ZM196.867 33.202C196.784 33.207 196.733 33.2549 196.68 33.2877C196.05 33.6684 195.425 34.0566 194.792 34.4297C194.653 34.5104 194.603 34.5986 194.603 34.7701C194.608 40.7449 194.605 46.7198 194.611 52.6947C194.611 52.8359 194.573 52.9141 194.454 52.9872C192.821 53.9779 191.192 54.9738 189.561 55.9696C187.468 57.2477 185.376 58.5234 183.286 59.8016C182.136 60.5049 180.984 61.2058 179.835 61.9092C178.38 62.7991 176.923 63.6865 175.468 64.5764C175.38 64.6319 175.309 64.6546 175.206 64.5916C173.726 63.6966 172.261 62.7688 170.766 61.8991C170.245 61.594 169.74 61.2537 169.224 60.9386C164.88 58.2864 160.536 55.6368 156.187 52.9897C156.059 52.9115 156.018 52.8258 156.018 52.672C156.021 44.9702 156.023 37.2659 156.018 29.5641C156.018 29.3876 156.074 29.2994 156.215 29.2137C161.471 26.0094 166.728 22.8001 171.982 19.5908C173.053 18.9353 174.127 18.2824 175.196 17.6244C175.284 17.5714 175.347 17.5588 175.443 17.6143C177.79 19.0538 180.14 20.4883 182.489 21.9228C184.998 23.4556 187.506 24.9884 190.015 26.5237C190.115 26.5867 190.191 26.5842 190.292 26.5237C190.799 26.2086 191.308 25.901 191.815 25.5909C192.001 25.4775 192.19 25.3615 192.395 25.2354C192.321 25.1901 192.266 25.1548 192.213 25.122C189.238 23.3043 186.261 21.4917 183.291 19.669C181.922 18.8294 180.541 18.0151 179.179 17.163C177.961 16.4017 176.731 15.6655 175.509 14.9117C175.377 14.8311 175.284 14.8235 175.151 14.9067C173.537 15.9 171.921 16.8832 170.305 17.8689C169.09 18.6101 167.875 19.3538 166.66 20.095C162.419 22.6841 158.179 25.2758 153.936 27.8649C153.827 27.9304 153.78 28.001 153.78 28.1397C153.782 36.7869 153.785 45.4316 153.78 54.0788C153.78 54.2149 153.82 54.288 153.931 54.3561C156.419 55.8713 158.907 57.3914 161.396 58.9116C164.55 60.8402 167.701 62.7688 170.855 64.6949C172.294 65.5748 173.734 66.4471 175.171 67.3294C175.289 67.4025 175.37 67.395 175.486 67.3244C180.704 64.1327 185.928 60.9436 191.149 57.7545C193.007 56.62 194.863 55.4855 196.723 54.3561C196.839 54.2855 196.869 54.2074 196.869 54.0763C196.867 47.1812 196.867 40.2861 196.867 33.391C196.867 33.3305 196.867 33.2725 196.867 33.207V33.202ZM172.299 29.8313C170.494 29.8313 168.689 29.8338 166.884 29.8263C166.715 29.8263 166.682 29.8767 166.685 30.0431C166.692 31.0591 166.687 32.075 166.69 33.091C166.69 33.3431 166.662 33.3179 166.902 33.3179C170.421 33.3179 173.938 33.3179 177.457 33.3179C177.709 33.3179 177.956 33.3482 178.204 33.3986C179.941 33.7465 181.557 35.5944 181.239 37.9541C180.977 39.8903 179.325 41.4433 177.477 41.4433C173.943 41.4433 170.408 41.4433 166.874 41.4433C166.753 41.4433 166.685 41.4458 166.685 41.6172C166.69 45.3207 166.69 49.0266 166.685 52.73C166.685 52.8762 166.728 52.9065 166.856 52.904C167.812 52.8989 168.767 52.8964 169.723 52.904C169.884 52.904 169.927 52.8636 169.924 52.6922C169.919 50.1787 169.919 47.6677 169.922 45.1543C169.922 44.9047 169.897 44.9349 170.124 44.9349C172.163 44.9349 174.203 44.9299 176.242 44.9349C176.996 44.9375 177.747 44.8946 178.491 44.761C179.121 44.6475 179.762 44.5366 180.346 44.2593C182.182 43.392 183.435 41.9349 184.153 39.9559C184.604 38.713 184.713 37.4272 184.481 36.1289C184.012 33.4944 182.613 31.6011 180.311 30.4742C179.414 30.033 178.458 29.8288 177.47 29.8263C175.745 29.8187 174.021 29.8263 172.297 29.8263L172.299 29.8313ZM177.846 47.2543C177.868 47.3072 177.883 47.3476 177.904 47.3854C178.826 49.0896 179.751 50.7913 180.672 52.4981C180.73 52.6065 180.798 52.6292 180.901 52.6267C182.043 52.6241 183.188 52.6267 184.33 52.6267C184.521 52.6267 184.521 52.6267 184.423 52.4451C183.377 50.5165 182.33 48.5879 181.287 46.6593C181.231 46.556 181.183 46.5308 181.075 46.5711C180.513 46.7854 179.935 46.9417 179.348 47.0577C178.856 47.156 178.36 47.219 177.846 47.2568V47.2543ZM192.354 29.3422C192.354 29.7607 192.357 30.1767 192.354 30.5952C192.354 30.7011 192.387 30.7565 192.473 30.807C193.136 31.1927 193.799 31.5809 194.459 31.9742C194.563 32.0347 194.638 32.0271 194.737 31.9692C195.392 31.5784 196.048 31.1927 196.708 30.8095C196.801 30.7565 196.834 30.6986 196.834 30.5851C196.829 29.7607 196.829 28.9363 196.834 28.112C196.834 28.0086 196.806 27.9506 196.721 27.8977C196.05 27.4918 195.379 27.0834 194.714 26.6674C194.621 26.6094 194.555 26.6195 194.469 26.6724C193.806 27.0834 193.143 27.4918 192.475 27.8926C192.382 27.9481 192.354 28.0111 192.357 28.1195C192.362 28.5254 192.357 28.9313 192.357 29.3397L192.354 29.3422Z" fill="#151142"/>
<path d="M173.895 74.9936C173.895 74.9936 173.918 74.9759 173.93 74.9658C174.165 74.9532 174.399 74.9734 174.631 74.9936H173.895Z" fill="#4764FC"/>
<path d="M196.867 33.2016C196.867 33.2646 196.867 33.3251 196.867 33.3856C196.867 40.2807 196.867 47.1757 196.869 54.0708C196.869 54.2019 196.839 54.2801 196.723 54.3506C194.863 55.4801 193.007 56.6146 191.149 57.749C185.928 60.9382 180.704 64.1248 175.486 67.3189C175.37 67.3895 175.287 67.3971 175.171 67.324C173.734 66.4441 172.292 65.5693 170.855 64.6895C167.701 62.7634 164.549 60.8323 161.396 58.9062C158.907 57.386 156.422 55.8658 153.931 54.3506C153.82 54.2826 153.78 54.2095 153.78 54.0733C153.782 45.4261 153.782 36.7814 153.78 28.1342C153.78 27.9956 153.825 27.925 153.936 27.8594C158.179 25.2728 162.419 22.6812 166.66 20.0896C167.875 19.3484 169.09 18.6047 170.305 17.8635C171.921 16.8777 173.537 15.892 175.15 14.9012C175.287 14.818 175.377 14.8231 175.508 14.9063C176.729 15.6601 177.961 16.3937 179.179 17.1576C180.54 18.0097 181.925 18.824 183.291 19.6635C186.263 21.4862 189.241 23.2989 192.213 25.1165C192.268 25.1493 192.321 25.1846 192.394 25.23C192.188 25.356 192.001 25.472 191.815 25.5855C191.305 25.8955 190.796 26.2031 190.292 26.5182C190.191 26.5813 190.115 26.5813 190.015 26.5182C187.509 24.9829 184.998 23.4501 182.489 21.9173C180.14 20.4828 177.79 19.0484 175.443 17.6089C175.35 17.5509 175.284 17.5635 175.196 17.6189C174.124 18.2769 173.053 18.9299 171.982 19.5854C166.728 22.7947 161.471 26.004 156.215 29.2082C156.074 29.2939 156.018 29.3822 156.018 29.5586C156.023 37.2604 156.023 44.9648 156.018 52.6666C156.018 52.8204 156.059 52.9061 156.187 52.9842C160.533 55.6313 164.877 58.281 169.224 60.9331C169.74 61.2482 170.245 61.5886 170.766 61.8936C172.261 62.7634 173.724 63.6911 175.206 64.5861C175.307 64.6466 175.377 64.6239 175.468 64.571C176.923 63.6811 178.377 62.7911 179.835 61.9037C180.984 61.2003 182.136 60.4995 183.286 59.7961C185.378 58.5179 187.471 57.2423 189.561 55.9641C191.192 54.9683 192.821 53.9725 194.454 52.9817C194.573 52.9111 194.61 52.833 194.61 52.6893C194.608 46.7144 194.61 40.7395 194.603 34.7646C194.603 34.5932 194.653 34.5075 194.792 34.4243C195.425 34.0511 196.05 33.6629 196.68 33.2822C196.733 33.2495 196.784 33.2015 196.867 33.1965V33.2016Z" fill="url(#paint4_linear_2001_2)"/>
<path d="M172.299 29.8313C174.024 29.8313 175.748 29.8263 177.472 29.8313C178.461 29.8339 179.416 30.0406 180.314 30.4792C182.615 31.6087 184.015 33.502 184.483 36.134C184.715 37.4348 184.604 38.718 184.156 39.9609C183.437 41.9399 182.184 43.3946 180.349 44.2644C179.764 44.5417 179.124 44.6501 178.493 44.766C177.75 44.8997 177.001 44.9425 176.245 44.94C174.205 44.9324 172.166 44.9375 170.126 44.94C169.899 44.94 169.924 44.9123 169.924 45.1593C169.924 47.6728 169.924 50.1838 169.927 52.6973C169.927 52.8712 169.884 52.9116 169.725 52.909C168.77 52.9015 167.814 52.9015 166.859 52.909C166.73 52.909 166.687 52.8813 166.687 52.7351C166.692 49.0317 166.692 45.3257 166.687 41.6223C166.687 41.4509 166.753 41.4483 166.876 41.4483C170.411 41.4483 173.945 41.4483 177.48 41.4483C179.328 41.4483 180.979 39.8954 181.241 37.9592C181.562 35.5995 179.946 33.7516 178.206 33.4037C177.959 33.3532 177.709 33.323 177.46 33.323C173.94 33.323 170.424 33.323 166.904 33.323C166.665 33.323 166.692 33.3482 166.692 33.0961C166.692 32.0801 166.695 31.0641 166.687 30.0481C166.687 29.8818 166.718 29.8313 166.886 29.8313C168.692 29.8389 170.497 29.8364 172.302 29.8364L172.299 29.8313Z" fill="url(#paint5_linear_2001_2)"/>
<path d="M177.845 47.2543C178.36 47.2165 178.856 47.1534 179.348 47.0551C179.935 46.9392 180.513 46.7828 181.075 46.5686C181.183 46.5282 181.231 46.5534 181.287 46.6568C182.33 48.5879 183.377 50.514 184.423 52.4426C184.521 52.6241 184.521 52.6241 184.33 52.6241C183.188 52.6241 182.043 52.6241 180.901 52.6241C180.798 52.6241 180.73 52.6014 180.672 52.4956C179.751 50.7888 178.826 49.0871 177.903 47.3829C177.883 47.345 177.868 47.3047 177.845 47.2518V47.2543Z" fill="url(#paint6_linear_2001_2)"/>
<path d="M192.354 29.3424C192.354 28.9366 192.357 28.5307 192.354 28.1223C192.354 28.0139 192.382 27.9508 192.473 27.8954C193.141 27.492 193.804 27.0861 194.467 26.6752C194.553 26.6222 194.618 26.6121 194.711 26.6701C195.377 27.0861 196.047 27.4945 196.718 27.9004C196.804 27.9533 196.832 28.0113 196.832 28.1147C196.826 28.9391 196.826 29.7635 196.832 30.5878C196.832 30.6988 196.799 30.7567 196.705 30.8122C196.045 31.1929 195.389 31.5811 194.734 31.9719C194.636 32.0299 194.558 32.0374 194.457 31.9769C193.796 31.5837 193.136 31.1954 192.47 30.8097C192.384 30.7593 192.349 30.7038 192.352 30.5979C192.357 30.1794 192.352 29.7635 192.352 29.345L192.354 29.3424Z" fill="url(#paint7_linear_2001_2)"/>
<path d="M174.071 79.6418C177.956 79.7351 181.821 79.1451 185.507 77.9224C189.132 76.7199 192.543 74.9148 195.626 72.666C198.722 70.4072 201.498 67.6693 203.817 64.6214C206.185 61.5104 208.123 58.0591 209.502 54.401C210.899 50.7026 211.749 46.7975 211.958 42.8471C212.167 38.8638 211.733 34.8679 210.69 31.0183C209.671 27.2644 208.091 23.6795 206.036 20.3794C203.981 17.0794 201.47 14.1045 198.581 11.5255C195.725 8.97925 192.495 6.84897 189.016 5.25314C185.537 3.65732 181.786 2.61612 177.977 2.24049C174.051 1.85224 170.066 2.1472 166.244 3.12789C162.633 4.05564 159.205 5.58844 156.089 7.63301C152.973 9.67759 150.27 12.1558 147.918 14.9819C145.571 17.8029 143.625 20.9618 142.107 24.2997C140.582 27.6577 139.503 31.225 138.903 34.8629C138.308 38.4604 138.21 42.1487 138.633 45.7715C139.082 49.6009 140.166 53.3674 141.754 56.8767C143.342 60.386 145.553 63.8726 148.163 66.8651C150.772 69.8576 153.79 72.4543 157.163 74.5241C160.571 76.614 164.31 78.1392 168.225 78.9586C170.151 79.362 172.108 79.5863 174.074 79.6393C174.798 79.6594 174.8 80.7838 174.074 80.7637C169.922 80.6502 165.805 79.783 161.96 78.2073C158.174 76.6569 154.68 74.4837 151.571 71.8265C148.478 69.182 145.793 66.0584 143.602 62.6297C141.414 59.2061 139.717 55.4498 138.633 51.5321C137.607 47.8211 137.156 43.9588 137.272 40.1117C137.385 36.3352 138.028 32.5712 139.142 28.9611C140.259 25.3434 141.85 21.8593 143.869 18.6576C145.881 15.4659 148.321 12.5314 151.14 10.0204C153.969 7.50192 157.17 5.39684 160.642 3.87665C164.28 2.28334 168.162 1.32534 172.123 1.03542C176.134 0.742979 180.198 1.16652 184.07 2.24553C187.942 3.32454 191.517 5.00104 194.807 7.19183C198.1 9.3801 201.067 12.0549 203.595 15.0928C206.144 18.1559 208.267 21.5669 209.845 25.2274C211.449 28.946 212.502 32.8738 212.926 36.9049C213.357 40.9916 213.105 45.1437 212.228 49.1572C211.368 53.0951 209.896 56.9019 207.919 60.4137C205.965 63.8852 203.51 67.0844 200.656 69.8652C197.832 72.6156 194.608 74.9728 191.101 76.7728C187.599 78.5703 183.818 79.8283 179.92 80.3981C177.982 80.6805 176.028 80.8065 174.069 80.7586C173.345 80.741 173.343 79.6166 174.069 79.6342L174.071 79.6418Z" fill="black" stroke="black" stroke-width="0.2395" stroke-miterlimit="10"/>
<path d="M173.466 0.972484C177.175 0.70021 180.919 0.929628 184.572 1.6204C190.335 2.71201 195.858 5.04398 200.623 8.46757C204.488 11.2432 207.859 14.687 210.546 18.6148C211.842 20.5056 212.959 22.5073 213.856 24.6174C215.581 28.6713 216.607 33.01 216.937 37.4017C217.355 42.9757 216.584 48.6355 214.696 53.8944C213.347 57.6508 211.461 61.2206 209.104 64.4399C207.7 66.3559 206.132 68.1409 204.405 69.772C201.251 72.7493 197.621 75.2401 193.693 77.078C188.527 79.4957 182.87 80.7839 177.17 80.8495C176.139 80.8621 175.105 80.8318 174.077 80.7663C173.358 80.7209 173.353 79.594 174.077 79.6419C179.353 79.9822 184.662 79.2814 189.654 77.5242C194.066 75.9738 198.195 73.5989 201.783 70.6014C203.712 68.9904 205.496 67.2005 207.08 65.2467C209.154 62.6853 210.98 59.6953 212.381 56.6323C214.522 51.9507 215.737 46.8455 215.908 41.7001C216.072 36.7739 215.306 31.8302 213.665 27.1839C212.918 25.0712 211.986 23.0544 210.821 21.1106C208.746 17.6442 206.107 14.5181 203.079 11.8458C198.7 7.98101 193.466 5.13726 187.849 3.54648C183.775 2.39184 179.53 1.87754 175.299 2.00107C174.689 2.01872 174.082 2.0515 173.474 2.09687C172.753 2.14982 172.756 1.02543 173.474 0.972484H173.466Z" fill="black" stroke="black" stroke-width="0.2395" stroke-miterlimit="10"/>
<path d="M207.884 16.5731C206.53 16.6614 205.179 16.7471 203.825 16.8353C203.53 16.8555 203.25 16.563 203.263 16.2731C203.278 15.9529 203.51 15.7311 203.825 15.7109C205.179 15.6227 206.53 15.537 207.884 15.4487C208.179 15.4286 208.459 15.721 208.446 16.0109C208.431 16.3311 208.199 16.553 207.884 16.5731Z" fill="black" stroke="black" stroke-width="0.2395" stroke-miterlimit="10"/>
<path d="M203.78 12.2572C202.474 12.3454 201.168 12.4312 199.862 12.5194C199.567 12.5396 199.287 12.2471 199.3 11.9572C199.315 11.6345 199.547 11.4152 199.862 11.395C201.168 11.3068 202.474 11.2211 203.78 11.1328C204.074 11.1127 204.354 11.4051 204.342 11.695C204.327 12.0177 204.095 12.237 203.78 12.2572Z" fill="black" stroke="black" stroke-width="0.2395" stroke-miterlimit="10"/>
<path d="M198.894 8.51599C197.689 8.60423 196.481 8.68995 195.276 8.77818C194.981 8.79835 194.701 8.50339 194.714 8.21599C194.729 7.89329 194.961 7.67648 195.276 7.65379C196.481 7.56555 197.689 7.47984 198.894 7.3916C199.189 7.37144 199.469 7.6664 199.456 7.9538C199.441 8.27649 199.209 8.4933 198.894 8.51599Z" fill="black" stroke="black" stroke-width="0.2395" stroke-miterlimit="10"/>
<path d="M211.325 21.4312C209.901 21.464 208.474 21.4967 207.049 21.527C206.754 21.5345 206.475 21.2623 206.487 20.9648C206.5 20.6673 206.734 20.4102 207.049 20.4026C208.474 20.3698 209.901 20.337 211.325 20.3068C211.62 20.2992 211.9 20.5715 211.887 20.869C211.875 21.1665 211.64 21.4236 211.325 21.4312Z" fill="black" stroke="black" stroke-width="0.2395" stroke-miterlimit="10"/>
<path d="M213.831 26.4356C212.407 26.4683 210.98 26.5011 209.555 26.5314C209.26 26.5389 208.98 26.2667 208.993 25.9692C209.006 25.6717 209.24 25.4146 209.555 25.407C210.98 25.3742 212.407 25.3414 213.831 25.3112C214.126 25.3036 214.406 25.5759 214.393 25.8734C214.381 26.1709 214.146 26.428 213.831 26.4356Z" fill="black" stroke="black" stroke-width="0.2395" stroke-miterlimit="10"/>
<path d="M215.422 31.44C213.997 31.4728 212.57 31.5055 211.146 31.5358C210.851 31.5433 210.571 31.2711 210.584 30.9736C210.597 30.6761 210.831 30.4189 211.146 30.4114C212.57 30.3786 213.997 30.3458 215.422 30.3156C215.717 30.308 215.997 30.5803 215.984 30.8778C215.971 31.1753 215.737 31.4324 215.422 31.44Z" fill="black" stroke="black" stroke-width="0.2395" stroke-miterlimit="10"/>
<path d="M216.239 36.1617C214.895 36.1944 213.554 36.2272 212.21 36.2575C211.915 36.265 211.635 35.9927 211.648 35.6953C211.66 35.3978 211.895 35.1406 212.21 35.1331C213.554 35.1003 214.895 35.0675 216.239 35.0373C216.534 35.0297 216.813 35.302 216.801 35.5995C216.788 35.8969 216.554 36.1541 216.239 36.1617Z" fill="black" stroke="black" stroke-width="0.2395" stroke-miterlimit="10"/>
<path d="M212.563 39.8577C213.907 39.8249 215.248 39.7922 216.592 39.7619C216.682 39.7619 216.786 39.235 216.884 38.519C216.909 38.6073 216.934 38.6955 216.962 38.7838C216.962 38.7863 216.965 38.7888 216.965 38.7938C216.849 39.946 216.715 40.8838 216.592 40.8888C215.248 40.9216 213.907 40.9544 212.563 40.9846C212.268 40.9922 211.988 40.7199 212.001 40.4224C212.016 40.1123 212.248 39.8678 212.563 39.8602V39.8577Z" fill="black" stroke="black" stroke-width="0.2395" stroke-miterlimit="10"/>
<path d="M216.012 47.1431C214.668 47.1759 213.327 47.2086 211.983 47.2389C211.688 47.2465 211.408 46.9742 211.421 46.6767C211.433 46.3792 211.668 46.1221 211.983 46.1145C213.327 46.0817 214.668 46.049 216.012 46.0187C216.307 46.0111 216.587 46.2834 216.574 46.5809C216.561 46.8784 216.327 47.1355 216.012 47.1431Z" fill="black"/>
<path d="M214.406 53.398C213.125 53.4308 211.847 53.4635 210.566 53.4938C210.271 53.5013 209.991 53.2291 210.004 52.9316C210.017 52.6341 210.251 52.377 210.566 52.3694C211.847 52.3366 213.125 52.3038 214.406 52.2736C214.701 52.266 214.981 52.5383 214.968 52.8358C214.955 53.1333 214.721 53.3904 214.406 53.398Z" fill="black" stroke="black" stroke-width="0.2395" stroke-miterlimit="10"/>
<path d="M211.771 59.6553C210.491 59.6881 209.212 59.7209 207.932 59.7511C207.637 59.7587 207.357 59.4864 207.369 59.1889C207.382 58.8914 207.617 58.6343 207.932 58.6267C209.212 58.5939 210.491 58.5612 211.771 58.5309C212.066 58.5234 212.346 58.7956 212.333 59.0931C212.321 59.3906 212.086 59.6477 211.771 59.6553Z" fill="black" stroke="black" stroke-width="0.2395" stroke-miterlimit="10"/>
<path d="M208.206 65.2979C206.926 65.3307 205.648 65.3634 204.367 65.3937C204.072 65.4012 203.792 65.129 203.805 64.8315C203.817 64.534 204.052 64.2769 204.367 64.2693C205.648 64.2365 206.926 64.2037 208.206 64.1735C208.501 64.1659 208.781 64.4382 208.769 64.7357C208.756 65.0332 208.522 65.2903 208.206 65.2979Z" fill="black" stroke="black" stroke-width="0.2395" stroke-miterlimit="10"/>
<path d="M204.367 69.6714C203.086 69.7042 201.808 69.737 200.527 69.7672C200.232 69.7748 199.953 69.5025 199.965 69.205C199.978 68.9075 200.212 68.6504 200.527 68.6428C201.808 68.6101 203.086 68.5773 204.367 68.547C204.662 68.5395 204.942 68.8117 204.929 69.1092C204.917 69.4067 204.682 69.6639 204.367 69.6714Z" fill="black" stroke="black" stroke-width="0.2395" stroke-miterlimit="10"/>
<path d="M199.789 73.4502C198.579 73.483 197.369 73.5158 196.158 73.546C195.863 73.5536 195.584 73.2813 195.596 72.9838C195.609 72.6863 195.843 72.4292 196.158 72.4216C197.369 72.3889 198.579 72.3561 199.789 72.3258C200.084 72.3183 200.364 72.5905 200.351 72.888C200.338 73.1855 200.104 73.4427 199.789 73.4502Z" fill="black" stroke="black" stroke-width="0.2395" stroke-miterlimit="10"/>
<path d="M173.653 74.2748C176.822 74.3857 179.976 73.9269 182.991 72.9512C185.996 71.9806 188.822 70.5083 191.396 68.6881C194.028 66.8251 196.39 64.5763 198.432 62.0855C200.49 59.5771 202.214 56.7913 203.565 53.8442C204.912 50.9021 205.867 47.771 206.364 44.5743C206.858 41.4078 206.88 38.138 206.369 34.9716C205.857 31.8051 204.76 28.5454 203.233 25.616C201.682 22.6462 199.695 19.9159 197.356 17.5184C194.996 15.1032 192.291 13.0334 189.321 11.425C186.329 9.80142 183.079 8.66946 179.719 8.12239C176.358 7.57533 172.872 7.64844 169.531 8.33416C166.337 8.99216 163.276 10.1947 160.47 11.8485C157.672 13.4998 155.146 15.5822 152.948 17.9721C150.749 20.3621 148.866 23.1025 147.389 26.0244C145.911 28.9463 144.832 32.0926 144.22 35.322C143.597 38.5893 143.476 41.9524 143.874 45.255C144.28 48.613 145.253 51.9231 146.67 54.9913C148.09 58.0619 149.95 60.9309 152.186 63.4696C154.395 65.978 156.951 68.1764 159.797 69.9285C162.644 71.6806 165.699 72.9563 168.936 73.6697C170.489 74.0126 172.065 74.2118 173.653 74.2723C174.374 74.3 174.379 75.4244 173.653 75.3966C170.242 75.2655 166.871 74.5067 163.72 73.1933C160.569 71.8798 157.596 70.0268 154.972 67.7906C152.325 65.5368 150.021 62.8796 148.13 59.9628C146.224 57.0207 144.742 53.7912 143.781 50.4181C142.826 47.0651 142.4 43.5583 142.543 40.0742C142.684 36.6733 143.337 33.2926 144.452 30.0782C145.563 26.874 147.111 23.8185 149.055 21.0377C150.976 18.2873 153.26 15.7889 155.872 13.6813C158.499 11.5611 161.421 9.83671 164.572 8.61904C167.771 7.38373 171.185 6.71061 174.614 6.64254C178.042 6.57447 181.751 7.15935 185.111 8.33668C188.411 9.49133 191.515 11.188 194.29 13.3132C197.069 15.441 199.519 17.9595 201.571 20.7957C203.583 23.5739 205.184 26.6546 206.273 29.9093C207.344 33.106 207.876 36.4792 207.861 39.8498C207.846 43.1927 207.304 46.5357 206.323 49.7298C205.338 52.9366 203.916 56.0173 202.128 58.856C200.348 61.6847 198.206 64.2965 195.758 66.573C193.36 68.8016 190.663 70.7302 187.738 72.2025C184.831 73.6647 181.703 74.6958 178.476 75.142C176.875 75.3639 175.264 75.4572 173.648 75.3992C172.927 75.374 172.922 74.2496 173.648 74.2748H173.653Z" fill="black" stroke="black" stroke-width="0.2395" stroke-miterlimit="10"/>
<path d="M164.043 44.354L44.2833 56.8816C34.7436 57.8795 27.8192 66.4219 28.8171 75.9615L32.0193 106.573C33.0172 116.113 41.5596 123.037 51.0992 122.039L170.859 109.512C180.398 108.514 187.323 99.9713 186.325 90.4317L183.123 59.8201C182.125 50.2805 173.582 43.3561 164.043 44.354Z" fill="url(#paint8_linear_2001_2)"/>
<path d="M170.695 108.564C168.463 108.799 166.228 109.031 163.996 109.266C158.284 109.863 152.572 110.461 146.86 111.058C139.011 111.877 131.164 112.7 123.315 113.519C114.827 114.407 106.336 115.295 97.8476 116.182C90.0471 116.997 82.2464 117.815 74.446 118.629C68.7634 119.223 63.084 119.817 57.4015 120.411C55.0978 120.652 52.7919 120.947 50.4812 121.129C44.5732 121.591 38.805 118.616 35.5472 113.716C34.0923 111.527 33.246 108.988 32.961 106.384C32.8861 105.712 32.8209 105.041 32.7492 104.37C31.9616 96.8494 31.1772 89.3292 30.3895 81.8088C30.18 79.8049 29.9609 77.8 29.7609 75.7971C29.1827 69.9581 31.854 64.1918 36.6056 60.7774C39.0718 59.005 41.9196 58.0929 44.9141 57.7791L48.368 57.4176C53.376 56.8951 58.3811 56.3692 63.3891 55.8468C70.8346 55.0678 78.2768 54.2885 85.7222 53.5095C94.1972 52.6237 102.676 51.7349 111.151 50.8491C119.254 50.0004 127.355 49.1545 135.458 48.3058C141.767 47.6455 148.072 46.9849 154.38 46.3278C157.531 45.9973 160.685 45.6671 163.835 45.3399C167.185 44.9905 170.511 45.5514 173.504 47.1269C178.363 49.6881 181.582 54.5848 182.178 60.0161C182.871 66.3502 183.503 72.6878 184.167 79.0255C184.514 82.3329 184.858 85.6431 185.205 88.9505C185.263 89.498 185.321 90.0455 185.376 90.5927C185.667 93.5559 185.145 96.5315 183.88 99.2233C181.443 104.416 176.366 107.927 170.696 108.558C169.466 108.696 169.79 110.592 171.022 110.457C177.1 109.781 182.442 106.067 185.295 100.68C186.721 97.9882 187.44 94.9194 187.369 91.8782C187.349 90.954 187.25 90.0412 187.151 89.1221C186.376 81.6997 185.598 74.2801 184.823 66.8577C184.576 64.4857 184.336 62.1112 184.079 59.7414C183.493 54.3369 180.512 49.3738 175.969 46.37C172.34 43.9668 168.034 42.9794 163.717 43.4225C162.776 43.5188 161.837 43.6186 160.895 43.7181L146.62 45.2117C139.211 45.9878 131.801 46.7608 124.395 47.5372C115.815 48.4352 107.236 49.3332 98.657 50.228C90.0779 51.1228 82.1469 51.9533 73.8931 52.8193C67.3959 53.4994 60.8986 54.1795 54.4017 54.8565C51.1173 55.1994 47.8329 55.5424 44.5482 55.8885C41.2635 56.2347 38.1063 57.3384 35.3902 59.2889C30.4924 62.8114 27.5789 68.7114 27.7772 74.7382C27.8491 76.9573 28.188 79.1837 28.4165 81.3862C28.8445 85.4658 29.2694 89.5451 29.6974 93.6248C30.0742 97.2156 30.4479 100.806 30.8248 104.397C31.1664 107.662 31.6457 110.808 33.3147 113.729C36.2785 118.925 41.6817 122.489 47.6607 123.027C49.2682 123.172 50.8551 123.037 52.4488 122.867C56.3589 122.457 60.2722 122.048 64.1823 121.639C71.0902 120.916 77.998 120.193 84.9023 119.473C93.3348 118.592 101.764 117.708 110.197 116.828C118.633 115.945 127.069 115.064 135.505 114.181C142.585 113.44 149.662 112.702 156.743 111.96C160.943 111.522 165.14 111.083 169.34 110.644C169.9 110.584 170.461 110.527 171.021 110.467C172.253 110.338 171.926 108.439 170.695 108.568L170.695 108.564Z" fill="black"/>
<path d="M83.2437 102.578C83.178 102.499 83.1391 102.402 83.1273 102.289C83.1438 102.172 83.1334 102.073 83.096 101.99C82.6847 102.177 82.3339 102.257 82.0438 102.23C81.7537 102.202 81.5444 102.124 81.4158 101.994C81.012 101.978 80.7361 101.95 80.5881 101.908C80.4431 101.894 80.3347 101.819 80.263 101.683C80.0357 101.707 79.8181 101.687 79.6102 101.622C79.5131 101.518 79.4526 101.352 79.4289 101.124C79.408 100.925 79.4928 100.5 79.6832 99.8479C79.8706 99.1676 80.1029 98.3677 80.3801 97.4481C80.6829 96.4971 81.0095 95.5006 81.3602 94.4585C81.7362 93.3849 82.0898 92.3712 82.421 91.4173C82.7521 90.4633 83.0368 89.6148 83.275 88.8717C83.5417 88.1256 83.7313 87.6031 83.8436 87.304C83.7435 87.1709 83.5798 87.1162 83.3524 87.14C83.1221 87.1353 82.93 87.0836 82.776 86.9848C82.4889 86.9861 82.2145 86.9717 81.9528 86.9416C81.7165 86.8802 81.4421 86.8658 81.1295 86.8985C80.9874 86.9133 80.7855 86.9057 80.5238 86.8757C80.2906 86.8426 80.0274 86.7983 79.7343 86.7428C79.4412 86.6873 79.1623 86.6303 78.8977 86.5718C78.63 86.4848 78.4222 86.4204 78.2742 86.3784C78.1261 86.3365 77.9639 86.296 77.7875 86.257C77.6365 86.1866 77.4742 86.1461 77.3007 86.1355C77.0959 86.0995 76.8783 86.0792 76.648 86.0745C76.4177 86.0699 76.1859 86.0511 75.9526 86.018C75.3754 85.9922 74.8108 85.9507 74.259 85.8935C73.7327 85.8049 73.1951 85.7463 72.6462 85.7175C72.1784 85.3643 71.8204 85.1001 71.5722 84.9249C71.3211 84.7214 71.0221 84.609 70.6751 84.5879C70.4855 84.148 70.4072 83.8115 70.4402 83.5782C70.4703 83.3165 70.4877 83.0705 70.4923 82.8402C70.6077 82.5696 70.7238 82.1696 70.8408 81.6403C70.9578 81.111 71.0568 80.6841 71.1377 80.3596C71.2276 80.1204 71.319 79.8953 71.4119 79.6845C71.5018 79.4453 71.5916 79.2061 71.6815 78.9669C71.9872 78.0443 72.2787 77.1233 72.556 76.2037C72.8616 75.2812 73.1658 74.3445 73.4685 73.3935C73.6169 72.8896 73.6934 72.5225 73.6981 72.2922C73.7282 72.0305 73.8053 71.807 73.9296 71.6216C73.9626 71.3883 74.0338 71.108 74.1432 70.7805C74.2781 70.4217 74.4271 70.0614 74.5903 69.6996C74.7536 69.3378 74.9041 68.9916 75.0419 68.6612C75.2081 68.3278 75.3504 68.04 75.4687 67.7978C75.7753 67.7083 75.9885 67.686 76.1081 67.731C76.2561 67.7729 76.4011 67.7865 76.5432 67.7716C76.8452 67.9124 77.0291 68.0224 77.0949 68.1017C77.1576 68.1526 77.2459 68.1721 77.3595 68.1602C77.3833 68.3876 77.4423 68.5394 77.5365 68.6157C78.1302 68.5249 78.5669 68.5798 78.8464 68.7803C79.123 68.9525 79.4489 69.0477 79.8243 69.0659C79.8332 69.1511 79.8137 69.2393 79.7658 69.3305C79.7433 69.3903 79.7366 69.4629 79.7455 69.5481C80.4017 70.054 80.9637 70.4836 81.4316 70.8369C81.9279 71.1871 82.3868 71.4551 82.8084 71.6408C83.5664 72.0212 84.4223 72.3769 85.3763 72.7081L85.8719 72.9148C85.9945 72.9881 86.1911 73.0825 86.4617 73.1978C86.7323 73.3131 87.0044 73.4427 87.278 73.5864C87.577 73.6988 87.8476 73.8141 88.0898 73.9324C88.332 74.0507 88.4845 74.1353 88.5473 74.1862C88.7835 74.2477 88.9958 74.3547 89.1842 74.5074C89.398 74.6287 89.6088 74.7215 89.8166 74.786C90.304 75.051 90.6605 75.301 90.8862 75.5359C91.1165 75.5406 91.3086 75.5923 91.4626 75.6911C91.6165 75.7899 91.7915 75.8147 91.9874 75.7654C92.3298 76.0169 92.5525 76.2234 92.6555 76.385C92.8812 76.62 92.9618 76.8414 92.8974 77.0492C92.8614 77.2541 92.7999 77.4903 92.713 77.7579C92.6515 77.9942 92.5758 78.2319 92.4859 78.4712C92.4215 78.679 92.3766 78.7986 92.3511 78.83C91.9942 80.3612 91.5461 81.8444 91.0067 83.2798C90.4958 84.7121 89.9423 86.149 89.3462 87.5903C88.75 89.0315 88.198 90.4826 87.6901 91.9434C87.1792 93.3757 86.7011 94.8478 86.256 96.3594C85.8994 97.3448 85.5428 98.3301 85.1863 99.3154C84.8551 100.269 84.5569 101.263 84.2915 102.296C84.1808 102.336 84.1015 102.402 84.0536 102.493C84.0057 102.585 83.9435 102.677 83.8672 102.771C83.6339 102.738 83.4261 102.674 83.2437 102.578ZM82.4 82.1548C82.6991 82.2671 82.9794 82.3384 83.2411 82.3684C83.5312 82.3956 83.8101 82.4526 84.0778 82.5395C84.3051 82.5157 84.5197 82.5076 84.7216 82.5152C84.9235 82.5228 85.1269 82.5446 85.3317 82.5807C85.6447 82.0021 85.8866 81.431 86.0574 80.8673C86.2567 80.3006 86.4417 79.7354 86.6126 79.1717C86.5753 79.0895 86.4654 79.0004 86.283 78.9046C86.1006 78.8087 85.904 78.7144 85.6932 78.6215C85.4794 78.5003 85.2686 78.4074 85.0608 78.343C84.8784 78.2471 84.7431 78.1895 84.6549 78.17C84.5891 78.0907 84.5107 78.027 84.4195 77.9791C84.3253 77.9028 84.2453 77.825 84.1796 77.7457C83.7923 77.6138 83.4761 77.4745 83.2309 77.3278C83.0142 77.1781 82.8117 77.0269 82.6233 76.8743C82.435 76.7216 82.2466 76.5689 82.0583 76.4163C81.8984 76.2606 81.6958 76.1095 81.4507 75.9627C81.3281 75.8894 81.1928 75.8317 81.0448 75.7897C80.9222 75.7164 80.8011 75.6572 80.6815 75.6123C80.3197 75.449 79.9721 75.2843 79.6387 75.1181C79.3053 74.9519 78.9734 74.7999 78.6429 74.6621C78.5844 74.9267 78.4975 75.1944 78.3822 75.465C78.2669 75.7356 78.1672 76.0189 78.0833 76.315C78.0413 76.463 77.9994 76.6111 77.9574 76.7591C77.9409 76.8757 77.9116 77.0081 77.8696 77.1561C77.8022 77.3355 77.7041 77.633 77.5752 78.0487C77.4433 78.436 77.3145 78.8516 77.1885 79.2957C77.0597 79.7114 76.9435 80.1114 76.8401 80.4956C76.765 80.877 76.735 81.1386 76.7498 81.2807C77.6889 81.4698 78.6152 81.6745 79.5288 81.8949C80.4709 82.1124 81.4279 82.199 82.4 82.1548ZM115.886 80.5479C115.653 80.5149 115.501 80.5738 115.431 80.7248C115.574 80.9971 115.718 81.2694 115.861 81.5417C116.03 81.7826 116.17 82.0264 116.282 82.2732C116.182 82.6859 116.053 83.1016 115.896 83.5203C115.735 83.9105 115.514 84.264 115.231 84.5809C115.161 84.7319 115.065 84.9143 114.943 85.1281C114.848 85.3105 114.78 85.4899 114.741 85.6663C114.672 86.1045 114.566 86.4603 114.422 86.7339C114.275 86.9791 114.141 87.2086 114.02 87.4223C113.921 87.5763 113.779 87.8641 113.593 88.2857C113.405 88.6789 113.206 89.1162 112.998 89.5976C112.818 90.0761 112.637 90.5403 112.454 90.9904C112.297 91.409 112.186 91.7222 112.122 91.9301C111.934 92.0645 111.807 92.2215 111.74 92.4009C111.672 92.5803 111.592 92.7754 111.499 92.9862C111.484 93.39 111.361 93.719 111.129 93.973C110.897 94.2271 110.729 94.5463 110.626 94.9306C110.672 95.0981 110.718 95.2657 110.764 95.4332C110.836 95.5693 110.895 95.7212 110.941 95.8887C110.723 95.9977 110.563 96.115 110.461 96.2406C110.385 96.3347 110.231 96.3795 110.001 96.3749C109.781 96.7426 109.606 97.1343 109.478 97.55C109.377 97.9627 109.14 98.3035 108.766 98.5725C108.621 98.5589 108.501 98.514 108.407 98.4376C108.344 98.3867 108.253 98.3388 108.133 98.2939C107.969 98.3686 107.789 98.4305 107.593 98.4797C107.428 98.5544 107.246 98.6021 107.047 98.6229C106.934 98.6348 106.828 98.5884 106.731 98.4837C106.634 98.3789 106.554 98.3011 106.491 98.2502C106.283 98.1858 106.134 98.1296 106.043 98.0817C105.952 98.0337 105.846 97.9873 105.727 97.9424C105.652 97.7778 105.522 97.6334 105.336 97.5092C105.021 97.5134 104.782 97.4236 104.619 97.2395C104.456 97.0555 104.333 96.8385 104.249 96.5887C104.364 96.3181 104.424 96.0676 104.429 95.8373C104.151 95.378 103.835 94.9658 103.481 94.6007C103.155 94.2326 102.814 93.8517 102.457 93.4582C102.231 93.2233 102.019 92.9868 101.822 92.7489C101.622 92.4826 101.406 92.2035 101.174 91.9117C101.017 91.7845 100.878 91.6842 100.755 91.6109C100.658 91.5061 100.559 91.3872 100.459 91.254C99.836 90.5148 99.2383 89.7442 98.6661 88.9423C98.1222 88.1373 97.4849 87.3996 96.754 86.7292C96.4969 86.4688 96.2414 86.2226 95.9873 85.9906C95.7616 85.7557 95.5203 85.508 95.2632 85.2476C95.175 85.2281 95.0868 85.2086 94.9985 85.1891C94.9073 85.1412 94.8019 85.0948 94.6823 85.0499C94.5822 84.9167 94.4836 84.7977 94.3864 84.693C94.3147 84.5568 94.2558 84.405 94.2095 84.2375C94.2799 84.0865 94.3488 83.9213 94.4162 83.7419C94.4807 83.534 94.5466 83.3404 94.614 83.161C94.656 83.0129 94.6979 82.8649 94.7399 82.7169C94.7819 82.5689 94.8239 82.4208 94.8658 82.2728C94.9947 81.8571 95.1393 81.4542 95.2996 81.064C95.4598 80.6737 95.6358 80.2962 95.8275 79.9315C96.1179 79.4127 96.38 78.8969 96.6136 78.3841C96.8757 77.8683 97.1534 77.3653 97.4468 76.8749C97.4769 76.6132 97.5795 76.3583 97.7547 76.1102C97.9298 75.862 98.0466 75.6056 98.1051 75.341C98.3506 74.9418 98.5663 74.5314 98.752 74.1098C98.9377 73.6882 99.1234 73.2666 99.3091 72.845C99.4618 72.6566 99.5704 72.4586 99.6348 72.2507C99.7247 72.0115 99.846 71.7977 99.9986 71.6094C100.06 71.3731 100.139 71.1638 100.235 70.9814C100.359 70.7961 100.436 70.5725 100.466 70.3108C100.619 70.1225 100.767 69.8915 100.911 69.618C101.054 69.3444 101.197 69.0566 101.337 68.7546C101.478 68.4526 101.606 68.1663 101.722 67.8956C101.834 67.5966 101.937 67.3417 102.029 67.1309C102.248 67.0219 102.389 66.8634 102.454 66.6556C102.544 66.4164 102.696 66.228 102.912 66.0906C102.928 65.9739 102.962 65.8842 103.013 65.8215C103.061 65.7303 103.093 65.6263 103.11 65.5097C103.462 65.5877 103.767 65.6133 104.022 65.5866C104.142 65.6315 104.222 65.7093 104.262 65.82C104.328 65.8993 104.434 65.9458 104.579 65.9593C104.715 65.8876 104.791 65.7935 104.808 65.6768C104.85 65.5288 104.921 65.392 105.023 65.2664C105.165 65.2516 105.283 65.2823 105.378 65.3586C105.497 65.4036 105.631 65.447 105.779 65.489C106.039 65.7778 106.272 66.0838 106.478 66.407C106.71 66.6987 106.927 66.992 107.131 67.2867C107.228 67.3915 107.312 67.5119 107.384 67.6481C107.455 67.7842 107.526 67.9061 107.594 68.0139C107.854 68.3027 108.102 68.6072 108.336 68.9274C108.596 69.2162 108.842 69.5065 109.074 69.7982C109.428 70.1634 109.771 70.5584 110.103 70.9833C110.431 71.3799 110.748 71.7921 111.051 72.22C111.457 72.8095 111.832 73.3735 112.176 73.9122C112.516 74.4223 112.92 74.9834 113.386 75.5954C113.586 75.8617 113.801 76.1266 114.029 76.3899C114.255 76.6249 114.481 76.8598 114.706 77.0948C114.935 77.3581 115.135 77.6244 115.307 77.8938C115.507 78.1601 115.72 78.4107 115.946 78.6457C115.995 78.8416 116.073 79.0346 116.179 79.2246C116.31 79.3832 116.388 79.5762 116.412 79.8035C116.427 79.9456 116.37 80.0951 116.243 80.252C116.113 80.3806 115.994 80.4792 115.886 80.5479ZM110.546 82.2269C110.95 81.6963 111.221 81.1222 111.357 80.5046C111.257 80.3714 111.144 80.254 111.019 80.1522C110.919 80.019 110.79 79.8888 110.633 79.7616C110.376 79.5012 110.035 79.1204 109.609 78.6191C109.183 78.1178 108.854 77.7213 108.622 77.4295L108.145 76.5745C107.97 76.2768 107.784 76.009 107.587 75.7711C107.415 75.5018 107.242 75.2183 107.067 74.9206C106.996 74.7844 106.924 74.6483 106.852 74.5121C106.78 74.376 106.695 74.2413 106.594 74.1082C106.466 73.978 106.339 73.862 106.213 73.7602C106.088 73.6585 105.985 73.4969 105.904 73.2755C105.81 73.1991 105.716 73.1228 105.622 73.0465C105.556 72.9672 105.487 72.8595 105.415 72.7233C104.879 73.6412 104.424 74.5076 104.05 75.3224C103.701 76.1058 103.325 76.9064 102.922 77.7242C102.73 78.089 102.539 78.4538 102.347 78.8185C102.155 79.1833 101.981 79.575 101.824 79.9937C101.734 80.2329 101.604 80.505 101.435 80.81C101.263 81.0865 101.094 81.3915 100.927 81.7249C100.758 82.0299 100.603 82.3334 100.463 82.6354C100.322 82.9374 100.243 83.1467 100.227 83.2633C100.664 83.8783 101.076 84.381 101.462 84.7716C101.847 85.1622 102.222 85.5827 102.585 86.033C102.897 86.5462 103.219 87.0153 103.551 87.4402C103.717 87.6527 103.897 87.8637 104.091 88.0732C104.314 88.2797 104.509 88.5034 104.678 88.7443C105.058 89.078 105.384 89.4461 105.656 89.8486C105.956 90.2481 106.323 90.5975 106.756 90.8969C107.024 90.438 107.262 89.9678 107.471 89.4864C107.676 88.9765 107.895 88.4652 108.129 87.9524C108.362 87.4396 108.583 86.9425 108.792 86.4611C109 85.9796 109.175 85.4586 109.318 84.8978C109.425 84.8291 109.505 84.7634 109.555 84.7006C109.606 84.6378 109.657 84.575 109.708 84.5123C109.809 84.0996 109.942 83.7265 110.108 83.3931C110.3 83.0283 110.446 82.6396 110.546 82.2269ZM107.609 79.6901C107.812 79.9848 108.03 80.2781 108.262 80.5699C108.519 80.8303 108.776 81.0907 109.033 81.351C109.124 81.399 109.231 81.4596 109.353 81.533C109.473 81.5779 109.54 81.6714 109.555 81.8135C109.567 81.9272 109.509 82.0625 109.382 82.2194C109.255 82.3764 109.186 82.5416 109.175 82.715C109.042 82.8152 108.939 82.9265 108.866 83.0491C108.792 83.1717 108.706 83.31 108.607 83.4639C108.431 83.4249 108.289 83.4398 108.181 83.5085C108.073 83.5772 107.948 83.619 107.806 83.6339C107.512 83.8371 107.326 83.9858 107.25 84.0799C107.199 84.1427 107.135 84.2212 107.059 84.3154C107.011 84.4066 106.935 84.5007 106.83 84.5979C106.754 84.692 106.605 84.7794 106.383 84.86C106.151 85.1141 106.008 85.2584 105.955 85.2927C105.841 85.3046 105.74 85.3008 105.652 85.2813C105.589 85.2304 105.513 85.1952 105.425 85.1757C105.303 85.1024 105.083 84.9243 104.766 84.6414C104.475 84.3271 104.168 84.0002 103.845 83.6605C103.519 83.2924 103.225 82.9497 102.962 82.6325C102.727 82.3123 102.602 82.0812 102.587 81.9391C102.728 81.6371 102.824 81.4547 102.875 81.3919C102.923 81.3007 103.018 81.2477 103.16 81.2328C103.378 81.1238 103.524 81.008 103.598 80.8854C103.671 80.7628 103.732 80.6559 103.779 80.5647C103.853 80.4421 103.943 80.3465 104.051 80.2778C104.156 80.1806 104.317 80.0775 104.536 79.9685C104.73 79.6321 104.867 79.4311 104.947 79.3653C105.026 79.2996 105.137 79.2593 105.279 79.2444C105.409 79.1159 105.465 78.9664 105.447 78.7959C105.455 78.594 105.574 78.4954 105.804 78.5C106.254 78.6827 106.636 78.9013 106.95 79.1558C107.104 79.2546 107.215 79.3578 107.284 79.4656C107.353 79.5733 107.461 79.6481 107.609 79.6901ZM124.614 79.1179C124.506 79.1866 124.43 79.2808 124.385 79.4004C124.34 79.52 124.263 79.6142 124.156 79.6829C124.102 79.7173 123.98 79.7875 123.79 79.8935C123.628 79.9966 123.533 80.0496 123.505 80.0526C123.164 80.0883 122.835 79.9647 122.518 79.6818C122.201 79.399 121.957 79.1229 121.785 78.8536C121.716 78.7459 121.622 78.6695 121.503 78.6246C121.408 78.5483 121.313 78.4577 121.216 78.353C121.059 78.2258 120.95 78.1509 120.89 78.1284C120.859 78.103 120.84 78.0619 120.834 78.005C120.483 77.6683 120.182 77.3982 119.931 77.1946C119.677 76.9626 119.424 76.7449 119.173 76.5413C118.998 76.2436 118.774 76.0229 118.501 75.8791C118.323 75.553 118.091 75.2612 117.806 75.0038C117.549 74.7434 117.319 74.4658 117.115 74.1711C117.053 74.1202 116.988 74.0551 116.923 73.9758C116.885 73.8935 116.834 73.8127 116.768 73.7334C116.81 73.5854 116.779 73.4306 116.676 73.269C116.573 73.1074 116.527 72.9399 116.538 72.7664C116.681 72.4928 116.872 72.2574 117.11 72.0602C117.245 71.7013 117.324 71.3627 117.348 71.0441C117.63 70.4401 117.922 69.9356 118.224 69.5305C118.524 69.097 118.831 68.6052 119.147 68.055C119.274 67.8981 119.372 67.7299 119.439 67.5505C119.535 67.3681 119.632 67.1999 119.731 67.0459C119.983 66.7036 120.218 66.3486 120.438 65.9808C120.659 65.6131 120.866 65.261 121.061 64.9247C121.234 64.9352 121.346 64.9091 121.397 64.8464C121.473 64.7522 121.578 64.655 121.711 64.5549C121.828 64.5715 121.932 64.6037 122.023 64.6516C122.111 64.6711 122.212 64.6749 122.326 64.663C122.64 64.9175 122.934 65.1165 123.207 65.2603C123.289 65.223 123.383 65.1557 123.488 65.0586C123.592 64.9614 123.687 64.9084 123.773 64.8995C123.972 64.8787 124.093 64.9378 124.136 65.0769C124.179 65.2161 124.3 65.2752 124.499 65.2544C125.136 65.8485 125.667 66.3962 126.093 66.8975C126.519 67.3988 126.985 67.8672 127.49 68.3027C127.675 68.427 127.845 68.5385 127.999 68.6373C128.15 68.7077 128.304 68.8065 128.461 68.9337C128.618 69.0609 128.781 69.245 128.949 69.4859C129.118 69.7267 129.283 69.925 129.443 70.0806C129.454 70.1943 129.501 70.3618 129.581 70.5832C129.548 70.8165 129.454 71.0131 129.298 71.173C129.168 71.3016 129.039 71.4443 128.912 71.6012C128.936 71.8286 128.995 71.9804 129.089 72.0567C129.212 72.1301 129.309 72.2348 129.38 72.371C129.365 72.7748 129.239 73.0753 129.001 73.2725C128.76 73.4414 128.568 73.6626 128.424 73.9362C128.265 74.0677 128.16 74.1648 128.11 74.2276C128.059 74.2904 128.009 74.3674 127.961 74.4585C127.625 74.8098 127.349 75.1977 127.135 75.6223C126.921 76.0469 126.647 76.449 126.313 76.8286C126.198 77.0992 126.088 77.2831 125.983 77.3802C125.878 77.4774 125.849 77.6097 125.895 77.7772C125.794 77.9028 125.69 78.0142 125.586 78.1113C125.506 78.177 125.396 78.2174 125.254 78.2322C125.058 78.2814 124.963 78.3345 124.969 78.3913C125.003 78.4452 124.98 78.505 124.901 78.5707C124.751 78.7875 124.665 78.9258 124.643 78.9856C124.617 79.0169 124.608 79.0611 124.614 79.1179ZM122.851 75.0362C123.482 74.4818 124.028 73.7927 124.488 72.969C124.947 72.1453 125.131 71.293 125.039 70.412L124.985 69.9005L122.3 69.3626C122.294 69.8517 122.205 70.2345 122.033 70.511C121.861 70.7876 121.671 71.0372 121.465 71.2599C121.258 71.4826 121.053 71.7195 120.85 71.9706C120.671 72.1904 120.546 72.5051 120.474 72.9148C120.914 73.271 121.284 73.6489 121.584 74.0484C121.913 74.4449 122.335 74.7742 122.851 75.0362ZM148.451 85.3719C148.39 85.6082 148.28 85.792 148.121 85.9235C147.991 86.0521 147.862 86.1948 147.735 86.3517C147.759 86.5791 147.818 86.7309 147.912 86.8072C148.034 86.8806 148.131 86.9854 148.203 87.1215C148.188 87.5253 148.061 87.8258 147.823 88.023C147.583 88.1919 147.392 88.4273 147.251 88.7293C147.089 88.8324 146.983 88.9153 146.932 88.9781C146.881 89.0409 146.846 89.1164 146.827 89.2046C146.462 89.5588 146.158 89.9497 145.915 90.3772C145.701 90.8018 145.441 91.2025 145.136 91.5791C145.021 91.8497 144.912 92.0478 144.81 92.1734C144.706 92.2705 144.662 92.4043 144.68 92.5748C144.578 92.7004 144.473 92.7975 144.366 92.8663C144.286 92.932 144.176 92.9723 144.034 92.9872C143.836 93.2951 143.71 93.4663 143.656 93.5006C143.6 93.5066 143.558 93.5253 143.533 93.5567C143.364 93.8616 143.243 94.0754 143.169 94.198C143.121 94.2892 143.058 94.3677 142.978 94.4334C142.924 94.4678 142.803 94.538 142.613 94.644C142.423 94.7501 142.313 94.8046 142.285 94.8076C141.972 94.8403 141.658 94.7152 141.341 94.4323C141.027 94.1779 140.784 93.916 140.612 93.6467C140.54 93.5106 140.445 93.42 140.325 93.3751C140.231 93.2988 140.15 93.2067 140.081 93.099C139.896 92.9748 139.787 92.8999 139.756 92.8745C139.724 92.849 139.706 92.8079 139.7 92.7511C139.32 92.4173 139.005 92.1487 138.754 91.9451C138.5 91.7132 138.247 91.4954 137.996 91.2918C137.924 91.1557 137.825 91.0367 137.7 90.935C137.603 90.8302 137.491 90.727 137.366 90.6252C137.16 90.302 136.915 90.0259 136.633 89.7969C136.376 89.5365 136.146 89.259 135.942 88.9642C135.877 88.8849 135.812 88.8198 135.75 88.7689C135.712 88.6867 135.674 88.5902 135.633 88.4795C135.675 88.3315 135.645 88.1767 135.542 88.0151C135.438 87.8535 135.38 87.7017 135.365 87.5596C135.477 87.2605 135.654 87.0266 135.895 86.8578C136.074 86.3793 136.152 86.0264 136.128 85.7991C136.438 85.1921 136.73 84.6876 137.004 84.2855C137.304 83.852 137.626 83.3586 137.97 82.8055C138.069 82.6516 138.166 82.4834 138.262 82.301C138.358 82.1186 138.469 81.9489 138.596 81.792C138.791 81.4556 139 81.1178 139.223 80.7784C139.471 80.4077 139.706 80.0385 139.926 79.6707C140.071 79.6843 140.169 79.6596 140.22 79.5969C140.296 79.5027 140.388 79.4213 140.496 79.3525C140.61 79.3406 140.712 79.3587 140.803 79.4066C140.891 79.4261 140.992 79.4299 141.106 79.418C141.386 79.6186 141.695 79.8304 142.034 80.0534C142.142 79.9847 142.234 79.9033 142.31 79.8091C142.387 79.7149 142.482 79.6619 142.595 79.65C142.766 79.6322 142.873 79.6928 142.916 79.8319C142.959 79.971 143.08 80.0302 143.279 80.0094C143.944 80.6005 144.49 81.1468 144.916 81.648C145.342 82.1493 145.821 82.6162 146.355 83.0488C146.512 83.176 146.655 83.3047 146.783 83.4349C146.937 83.5337 147.093 83.6467 147.25 83.7739C147.407 83.9011 147.582 84.0695 147.777 84.279C147.971 84.4885 148.134 84.6725 148.265 84.8312C148.274 84.9164 148.297 85.0002 148.335 85.0824C148.372 85.1647 148.411 85.2612 148.451 85.3719ZM141.853 89.8542C142.456 89.3027 142.975 88.6308 143.409 87.8385C143.843 87.0461 144.017 86.2379 143.931 85.4138L143.882 84.945L141.329 84.4363C141.323 84.9254 141.234 85.3081 141.062 85.5847C140.915 85.8299 140.737 86.0496 140.527 86.2439C140.346 86.4352 140.152 86.6422 139.946 86.8649C139.768 87.0846 139.657 87.3979 139.613 87.8046C140.021 88.1354 140.375 88.5005 140.676 88.9C141.002 89.2681 141.394 89.5862 141.853 89.8542ZM138.773 65.3556C138.812 65.7251 138.806 66.0847 138.757 66.4346C138.718 66.6111 138.656 66.8473 138.572 67.1434C138.488 67.4395 138.392 67.7512 138.282 68.0787C138.201 68.4031 138.105 68.7149 137.992 69.0139C137.88 69.3129 137.789 69.538 137.718 69.689C137.654 69.8968 137.588 70.0904 137.52 70.2698C137.453 70.4493 137.387 70.6429 137.323 70.8507C137.287 71.0556 137.236 71.2619 137.172 71.4698C137.105 71.6492 137.039 71.8428 136.974 72.0506C136.932 72.1987 136.862 72.3497 136.763 72.5036C136.69 72.6262 136.618 72.763 136.547 72.914C136.432 73.1846 136.35 73.4949 136.3 73.8448C136.247 74.1663 136.181 74.4893 136.1 74.8138C135.794 75.7363 135.501 76.6432 135.221 77.5343C134.941 78.4254 134.692 79.342 134.474 80.2841C134.144 81.5251 133.771 82.7564 133.353 83.978C132.96 85.1682 132.614 86.3965 132.316 87.663C132.265 87.7258 132.216 87.8028 132.168 87.894C132.148 87.9822 132.115 88.0719 132.067 88.1631C132.034 88.3964 131.912 88.8831 131.702 89.6232C131.489 90.335 131.254 91.1065 130.996 91.9378C130.739 92.7692 130.489 93.5422 130.248 94.2569C130.035 94.9686 129.879 95.4015 129.78 95.5554C129.607 95.5449 129.472 95.4872 129.375 95.3825C129.277 95.2777 129.153 95.1901 129.002 95.1197C128.86 95.1346 128.655 95.2279 128.385 95.3998C128.171 95.2785 127.938 95.2454 127.685 95.3006C127.433 95.3558 127.22 95.2487 127.049 94.9794C126.935 94.9913 126.824 95.0316 126.716 95.1003C126.634 95.1377 126.536 95.1623 126.423 95.1742C126.28 95.189 126.175 95.1426 126.106 95.0349C126.066 94.9242 126.038 94.7978 126.024 94.6557C126.009 94.5136 126.01 94.3843 126.026 94.2676C126.071 94.148 126.088 94.0314 126.076 93.9177L125.937 93.4151C125.941 93.1848 126.008 92.8618 126.137 92.4462C126.291 91.9991 126.444 91.5378 126.596 91.0624C126.772 90.5555 126.937 90.0643 127.088 89.5888C127.239 89.1134 127.344 88.7433 127.403 88.4786C127.773 87.3483 128.129 86.2194 128.47 85.092C128.809 83.9362 129.162 82.7789 129.529 81.6201C129.832 80.6691 130.105 79.707 130.348 78.7335C130.588 77.7317 130.859 76.7553 131.162 75.8043C131.229 75.6249 131.282 75.447 131.321 75.2706C131.389 75.0911 131.425 74.8863 131.429 74.656C131.672 74.2284 131.842 73.7941 131.939 73.353C132.062 72.8805 132.201 72.4207 132.355 71.9736C132.481 71.5295 132.607 71.0854 132.733 70.6414C132.859 70.1973 133.001 69.7659 133.158 69.3473C133.498 68.4786 133.822 67.5972 134.131 66.7031C134.437 65.7805 134.7 64.8625 134.92 63.9489C135.287 63.8818 135.503 63.8879 135.568 63.9672C135.66 64.0151 135.737 64.0645 135.799 64.1154C136.03 64.1201 136.23 64.1135 136.401 64.0956C136.713 64.0629 136.968 64.1655 137.165 64.4035C137.583 64.2736 137.8 64.2939 137.818 64.4644C137.833 64.6065 137.911 64.6701 138.053 64.6553C138.386 64.5344 138.579 64.6003 138.634 64.8531C138.715 65.0745 138.761 65.242 138.773 65.3556Z" fill="white"/>
<path opacity="0.71" d="M67.3042 58.1655C60.8143 58.6109 54.3528 59.3527 47.9335 60.4146C42.7171 61.2806 36.7167 62.6681 34.6849 68.2305C34.6179 68.4173 34.5838 68.5977 34.58 68.765C34.1051 69.1303 33.8919 69.7797 33.9811 70.3722C33.7392 70.5996 33.5592 70.917 33.5079 71.3342C33.3415 72.6138 33.1748 73.8966 33.0053 75.1759C32.7362 77.2256 35.9292 77.5409 36.1978 75.4945C36.3642 74.2149 36.5309 72.9321 36.7005 71.6528C36.7253 71.4683 36.7195 71.3 36.6933 71.1426C36.9104 70.8741 37.0351 70.5287 37.0603 70.1797C37.3246 70.0191 37.547 69.7607 37.6842 69.3875C39.5527 64.2666 46.3584 63.8881 50.9261 63.1896C56.5384 62.3308 62.1842 61.7173 67.8496 61.3282C69.9046 61.1882 69.356 58.0252 67.3074 58.1658L67.3042 58.1655Z" fill="white"/>
<path opacity="0.71" d="M164.894 102.943C150.723 104.492 136.549 106.041 122.378 107.593C120.327 107.817 120.87 110.98 122.92 110.755C137.091 109.206 151.265 107.657 165.436 106.105C167.487 105.881 166.945 102.718 164.894 102.943Z" fill="white"/>
<defs>
<linearGradient id="paint0_linear_2001_2" x1="17.9893" y1="136.786" x2="54.5496" y2="116.093" gradientUnits="userSpaceOnUse">
<stop stop-color="#59C1C0"/>
<stop offset="0.52" stop-color="#3E6DFF"/>
<stop offset="1" stop-color="#BE03FB"/>
</linearGradient>
<linearGradient id="paint1_linear_2001_2" x1="16.4615" y1="134.467" x2="53.3521" y2="113.585" gradientUnits="userSpaceOnUse">
<stop stop-color="#59C1C0"/>
<stop offset="0.52" stop-color="#3E6DFF"/>
<stop offset="1" stop-color="#BE03FB"/>
</linearGradient>
<linearGradient id="paint2_linear_2001_2" x1="21.9952" y1="144.934" x2="59.1353" y2="123.911" gradientUnits="userSpaceOnUse">
<stop stop-color="#59C1C0"/>
<stop offset="0.52" stop-color="#3E6DFF"/>
<stop offset="1" stop-color="#BE03FB"/>
</linearGradient>
<linearGradient id="paint3_linear_2001_2" x1="17.664" y1="136.221" x2="54.2848" y2="115.493" gradientUnits="userSpaceOnUse">
<stop stop-color="#59C1C0"/>
<stop offset="0.52" stop-color="#3E6DFF"/>
<stop offset="1" stop-color="#BE03FB"/>
</linearGradient>
<linearGradient id="paint4_linear_2001_2" x1="153.679" y1="53.3574" x2="196.262" y2="29.2561" gradientUnits="userSpaceOnUse">
<stop stop-color="#59C1C0"/>
<stop offset="0.52" stop-color="#3E6DFF"/>
<stop offset="1" stop-color="#BE03FB"/>
</linearGradient>
<linearGradient id="paint5_linear_2001_2" x1="151.899" y1="50.6577" x2="194.868" y2="26.3346" gradientUnits="userSpaceOnUse">
<stop stop-color="#59C1C0"/>
<stop offset="0.52" stop-color="#3E6DFF"/>
<stop offset="1" stop-color="#BE03FB"/>
</linearGradient>
<linearGradient id="paint6_linear_2001_2" x1="158.343" y1="62.8495" x2="201.604" y2="38.3601" gradientUnits="userSpaceOnUse">
<stop stop-color="#59C1C0"/>
<stop offset="0.52" stop-color="#3E6DFF"/>
<stop offset="1" stop-color="#BE03FB"/>
</linearGradient>
<linearGradient id="paint7_linear_2001_2" x1="153.301" y1="52.7" x2="195.952" y2="28.5583" gradientUnits="userSpaceOnUse">
<stop stop-color="#59C1C0"/>
<stop offset="0.52" stop-color="#3E6DFF"/>
<stop offset="1" stop-color="#BE03FB"/>
</linearGradient>
<linearGradient id="paint8_linear_2001_2" x1="34.936" y1="115.25" x2="180.2" y2="51.1408" gradientUnits="userSpaceOnUse">
<stop stop-color="#59C1C0"/>
<stop offset="0.52" stop-color="#3E6DFF"/>
<stop offset="1" stop-color="#BE03FB"/>
</linearGradient>
</defs>
</svg>
