<svg width="170" height="214" viewBox="0 0 170 214" fill="none" xmlns="http://www.w3.org/2000/svg">
<g clip-path="url(#clip0_73_12890)">
<path d="M-0.783867 -71.1577C-0.625868 -71.3268 -0.00813952 -71.9473 0.992466 -72.0471C2.26857 -72.1757 3.13301 -71.3528 3.25653 -71.2309C3.49725 -71.6776 5.19304 -74.6691 8.84604 -75.4511C13.1195 -76.359 16.2204 -73.42 16.4604 -73.1808C16.454 -80.3406 21.6961 -85.6712 27.0969 -85.7442C30.8127 -85.7945 34.4128 -83.3482 36.4837 -79.6728C38.5393 -85.8946 44.0942 -90.05 50.0547 -90.026C56.8696 -90.0004 60.9461 -84.5237 61.3805 -83.9204C65.1311 -89.0522 71.2327 -91.7401 77.1889 -90.839C83.9204 -89.8191 87.539 -84.6497 88.1614 -83.7251C94.1218 -88.7791 102.118 -90.3802 109.059 -87.7949C116.426 -85.0519 119.628 -78.7015 120.333 -77.2077C125.089 -80.3156 131.174 -80.5988 136.187 -77.9468C141.142 -75.3247 144.316 -70.2194 144.487 -64.6077C148.339 -66.5504 152.931 -66.1711 156.293 -63.6266C160.964 -60.0915 160.653 -54.3299 160.623 -53.9119C163.414 -54.8612 166.485 -54.0987 168.4 -51.9825C171.037 -49.0717 169.999 -45.2626 169.936 -45.0516C171.246 -45.0459 173.076 -44.8022 174.825 -43.7173C178.334 -41.5349 180.07 -36.849 179.327 -31.8016C179.199 -29.5595 178.897 -26.4296 178.121 -22.7619C177.198 -18.3988 175.165 -11.201 173.414 -9.03615C165.769 0.432514 120.288 -32.4501 73.9099 -42.268C55.471 -46.1735 29.5558 -47.9831 -3.7535 -39.1714C-4.68143 -42.8225 -5.68214 -48.5441 -5.01784 -55.5094C-4.36384 -62.3878 -2.35148 -67.7601 -0.772082 -71.1601L-0.783867 -71.1577Z" fill="#564DFF"/>
<path d="M-4.84739 -42.6511C-4.93747 -46.3869 -2.72213 -51.4668 1.1898 -52.1377C3.84979 -52.5929 6.23114 -50.567 7.00474 -49.8506C7.06094 -50.0662 8.30753 -54.5711 12.8399 -55.8852C17.1974 -57.1472 20.5693 -54.2949 20.7872 -54.0966C21.2307 -55.0903 22.871 -58.4218 26.5818 -59.9827C30.8486 -61.7728 36.1136 -60.5051 39.8024 -56.7377C41.1504 -62.3573 45.7224 -66.4643 51.0314 -66.9582C57.3212 -67.5467 61.4979 -62.7863 61.8946 -62.3178C64.7134 -67.5102 70.2265 -70.471 75.6757 -69.787C82.0201 -68.9931 85.2566 -63.639 85.6418 -62.9764C85.9927 -63.318 93.0576 -69.9312 102.527 -67.4028C111.647 -64.9656 114.601 -56.2915 114.794 -55.6899C115.659 -56.2275 120.558 -59.1499 126.338 -57.4762C131.907 -55.8621 136.043 -50.6276 136.678 -44.2786C140.877 -46.0116 145.488 -45.2392 148.287 -42.3743C150.755 -39.8514 150.934 -36.6071 150.95 -35.6701C153.417 -36.5045 156.118 -35.9776 157.958 -34.2725C160.225 -32.1798 160.143 -29.2921 160.123 -28.8615C160.522 -28.9023 164.371 -29.2357 167.117 -26.2085C170.069 -22.95 169.024 -18.7891 168.947 -18.4992C169.571 -18.4943 171.03 -18.3828 172.327 -17.3592C174.047 -15.998 174.776 -13.5814 174.229 -11.1591C170.26 -4.44726 164.527 3.8299 156.418 12.2394C147.802 21.1752 139.205 27.4574 132.338 31.7487C130.09 28.6617 110.885 3.21146 77.1369 2.33635C48.8254 1.60335 30.2616 18.6772 26.6912 22.0943C19.6771 13.1078 14.2621 6.57196 10.4378 2.07179C8.05666 -0.732076 5.66453 -3.70203 3.84228 -8.34441C1.72007 -13.7543 1.50025 -18.7242 1.64392 -22.0069C0.199847 -24.7304 -1.21118 -27.8946 -2.38328 -31.4903C-2.62168 -32.2275 -3.7465 -35.7372 -4.54571 -40.4423C-4.74595 -41.6311 -4.84462 -42.2215 -4.85539 -42.6482L-4.85628 -42.6406L-4.84739 -42.6511Z" fill="#88D4E8"/>
<path d="M24.5399 18.7734C24.2477 17.1636 24.925 15.5231 26.2715 14.6057C27.6439 13.6646 29.4555 13.6416 30.8624 14.5441C30.447 13.2954 30.8546 11.9256 31.8673 11.1412C32.7997 10.42 34.0883 10.3159 35.1526 10.8751C34.9964 8.31182 36.5485 5.95097 38.9213 5.10537C41.174 4.30303 43.7301 5.01595 45.274 6.89664C45.4591 4.33168 47.2291 2.23426 49.5301 1.73656C52.2996 1.13341 54.395 3.17909 54.5389 3.32262C55.4027 0.140553 58.0371 -2.16871 61.1143 -2.49013C64.8745 -2.88391 67.3878 -0.095045 67.6312 0.179076C68.885 -2.18646 71.3206 -3.69147 73.9733 -3.72975C76.7833 -3.76857 79.3895 -2.15291 80.6347 0.405227C83.3381 -1.96868 87.0722 -2.69133 90.2926 -1.4398C94.257 0.099153 95.5701 3.89556 95.7449 4.42598C98.4198 1.80726 102.342 1.34068 105.07 3.09718C108.05 5.01775 108.223 8.69826 108.231 9.05178C110.103 7.70617 112.535 7.4616 114.543 8.43532C116.888 9.57162 118.269 12.1841 117.913 14.8937C118.013 14.8557 120.364 14.0037 122.324 15.5772C124.227 17.1096 123.976 19.4904 123.96 19.6265C125.464 18.5745 127.502 18.7469 128.752 19.995C129.904 21.1433 130.163 22.9675 129.356 24.4432C131.025 24.7176 132.419 25.86 132.987 27.4335C133.804 29.6918 132.464 31.5948 132.35 31.7462C129.489 33.7335 126.636 35.7217 123.775 37.7129C119.991 33.5816 107.363 20.8448 86.6654 17.6912C59.2603 13.5129 39.4033 29.4372 36.245 32.0599C32.3429 27.6349 28.4411 23.206 24.5427 18.7814L24.539 18.7809L24.5399 18.7734Z" fill="#564DFF"/>
<path d="M34.903 30.6092C34.4022 29.0782 34.8479 27.3872 36.0414 26.3061C37.2349 25.2249 38.9576 24.95 40.4322 25.6038C40.4945 25.3697 40.8096 24.2305 41.9527 23.5419C43.2977 22.7355 44.6749 23.2091 44.8585 23.2768C44.5671 21.2724 45.6003 19.3445 47.3212 18.5673C48.7305 17.9295 50.4172 18.1523 51.7139 19.1108C51.7532 18.9736 52.5539 16.1941 55.3364 15.4162C57.7858 14.733 59.7187 16.1769 59.9298 16.3361C60.0032 16.1378 61.2408 13.0345 64.5504 12.3689C67.4715 11.7799 69.6205 13.5675 69.8778 13.7896C70.968 11.7688 73.0313 10.4956 75.2486 10.5092C78.0141 10.5226 79.682 12.5214 79.9056 12.8009C80.1426 12.645 83.6771 10.4041 87.4968 12.129C90.5415 13.5053 91.5316 16.405 91.6853 16.8869C93.6272 15.3119 96.319 15.1058 98.3819 16.3581C100.206 17.4633 101.262 19.5469 101.118 21.7334C103.303 20.1068 106.133 20.0589 107.976 21.4883C109.769 22.8812 109.915 25.1173 109.932 25.4911C111.72 24.3348 113.926 24.6422 115.022 25.964C116.17 27.3454 115.609 29.2335 115.56 29.3849C116.918 29.0821 118.307 29.5532 119.108 30.5871C120.022 31.7684 119.762 33.1556 119.721 33.373C121.352 32.8995 123.014 33.5294 123.73 34.7946C124.471 36.1088 123.873 37.5288 123.795 37.7035C120.384 40.0395 116.976 42.3759 113.564 44.7119C112.314 42.7779 101.48 26.6321 80.5957 24.8322C59.0662 22.9788 45.4136 37.9672 44.0011 39.5704C40.9748 36.5828 37.9448 33.5948 34.9228 30.6038L34.9115 30.6025L34.903 30.6092Z" fill="#964EE1"/>
<path d="M41.6425 37.4826C41.6841 35.8051 42.5478 34.3055 43.9222 33.606C45.0887 33.0122 46.2322 33.1937 46.6473 33.2812C46.3309 32.232 46.6918 31.0943 47.5463 30.4482C48.3341 29.8479 49.4178 29.7579 50.3135 30.2204C50.3787 28.538 51.4108 27.1043 52.8702 26.6257C54.4808 26.0999 55.8757 26.9742 56.0677 27.1004C56.2934 25.1956 57.6212 23.6283 59.3771 23.1695C61.6232 22.5848 63.3816 24.1115 63.5169 24.231C63.6805 22.0736 65.2707 20.3611 67.2131 20.1083C68.7545 19.9077 70.3256 20.6534 71.269 22.0069C71.3333 21.8842 72.6375 19.5132 75.3882 19.36C78.0964 19.2095 79.651 21.3559 79.7396 21.4814C79.9547 21.3152 82.2383 19.5738 85.0804 20.4279C87.4453 21.1373 88.463 23.1243 88.6333 23.4664C88.8177 23.3656 91.5593 21.8662 94.416 23.3735C97.2546 24.8711 97.5874 27.9496 97.6077 28.1667C99.4496 26.691 101.995 26.6822 103.651 28.0396C104.961 29.1145 105.552 30.9169 105.19 32.679C106.698 31.7233 108.504 31.8836 109.465 32.8942C110.283 33.7538 110.215 34.9415 110.194 35.2149C111.155 34.934 112.188 35.2021 112.874 35.9119C113.885 36.9553 113.559 38.3462 113.538 38.4318C114.652 38.2802 115.746 38.7509 116.364 39.6481C117.067 40.6665 117.028 42.0608 116.251 43.0916C113.575 44.7138 110.903 46.3364 108.227 47.9624C88.8045 46.9603 69.3821 45.9545 49.9629 44.9529C47.1873 42.4702 44.4155 39.988 41.6403 37.5015L41.6412 37.4939L41.6425 37.4826Z" fill="#6B8AEB"/>
<path d="M49.7384 45.133C57.4248 34.439 70.157 28.7388 82.8129 30.4107C99.1668 32.5706 107.306 45.9674 108.285 47.6356C106.884 55.2533 105.491 62.8719 104.09 70.4896C103.252 68.5737 101.672 65.6424 98.7411 63.0111C96.4341 60.9403 94.2997 59.967 91.6244 58.7723C89.1167 57.6513 84.5949 55.6745 78.2263 55.0196C72.3466 54.4111 68.0199 55.2513 64.1797 55.9959C57.9114 57.2116 55.5681 58.7467 54.4245 59.5999C52.5059 61.0436 51.2364 62.6369 50.4503 63.8047C50.2102 57.583 49.9776 51.3622 49.738 45.1368L49.7384 45.133Z" fill="#FF9700"/>
<path d="M60.2959 35.4692C60.4308 42.579 60.5695 49.6893 60.7039 56.8029C62.5814 56.2243 64.757 55.685 67.199 55.3228C68.6931 55.1012 70.0961 54.9685 71.4033 54.9011C71.4061 46.8878 71.4009 38.8774 71.4033 30.8679C67.7028 32.407 63.9993 33.9381 60.2993 35.4734L60.2959 35.4692Z" fill="#FFFF00"/>
<path d="M95.5878 34.7339C94.6982 43.148 93.8086 51.5621 92.9148 59.9796C94.5604 60.6459 97.1741 61.9405 99.7078 64.3946C102.018 66.6305 103.35 68.9422 104.09 70.49C105.491 62.8723 106.884 55.2537 108.285 47.636C107.001 45.5714 105.186 43.0646 102.683 40.5145C100.149 37.934 97.6456 36.0623 95.5878 34.7339Z" fill="#FF3C00"/>
<path opacity="0.49" d="M1.74631 -17.9554C1.51213 -17.8873 2.32871 -11.8732 5.42273 -5.60854C7.60711 -1.1762 10.1001 1.6869 11.533 3.33983C27.2836 21.5245 21.9139 16.3852 30.3305 25.373C35.3723 30.7571 41.9807 37.603 50.0161 45.3768C50.2424 44.8901 50.4649 44.4029 50.6908 43.9199C42.332 36.0618 35.4872 28.8162 30.1127 22.7795C20.0132 11.4346 22.8203 13.0051 13.7599 2.85252C11.0606 -0.176836 7.6218 -3.88784 4.79129 -9.9182C2.69254 -14.394 1.93244 -18.0061 1.75008 -17.9549L1.74631 -17.9554Z" fill="white"/>
<path opacity="0.49" d="M-0.391423 -73.1125C-0.677063 -73.1923 -3.52033 -66.4354 -4.77571 -57.7158C-5.23615 -54.509 -6.0347 -48.6748 -4.91917 -41.1729C-4.61471 -39.1171 -3.63757 -33.3906 -0.413705 -26.3134C2.91115 -19.0211 6.39315 -15.19 13.6953 -6.40316C25.7472 8.09723 22.5333 5.20618 31.8356 16.1309C37.5952 22.8954 44.9576 31.2064 53.8593 40.4664C54.2338 40.1198 54.6129 39.7662 54.9874 39.4197C46.8695 30.3369 40.092 22.4592 34.8786 16.2921C26.8149 6.75207 30.3451 10.5965 15.5104 -7.42598C6.25371 -18.671 4.14191 -21.0636 1.62911 -26.2821C-3.07642 -36.0567 -3.87883 -44.7134 -4.0651 -47.4757C-5.05389 -61.999 0.024256 -72.9981 -0.390975 -73.1163L-0.391423 -73.1125Z" fill="white"/>
<path opacity="0.49" d="M57.302 37.5132C52.5982 32.6406 47.0024 26.4014 41.1485 18.7826C38.0104 14.701 32.3247 7.24774 26.2517 -3.24452C22.4533 -9.80729 14.7417 -24.0655 8.92261 -43.4611C6.14013 -52.7434 5.19527 -58.5158 3.64802 -67.9698C2.16071 -77.0565 2.05734 -80.8743 3.05466 -85.0868C4.75792 -92.2816 8.88778 -97.3149 11.7085 -100.162C10.3083 -98.1775 8.47804 -95.1828 7.09717 -91.2265C5.29309 -86.0595 5.12793 -81.7867 5.04418 -79.1714C4.88345 -74.0627 5.59395 -70.1614 5.98534 -68.0953C8.83914 -53.0751 10.5329 -44.1786 15.2943 -31.5117C21.2915 -15.5595 28.0941 -4.43274 32.0242 1.92337C37.9321 11.4801 46.5832 23.761 58.841 36.6531C58.3245 36.9369 57.8076 37.2244 57.2949 37.5085L57.302 37.5132Z" fill="white"/>
<path opacity="0.49" d="M34.9103 -125.845C34.7191 -126.14 29.5024 -123.998 24.5809 -119.691C17.2222 -113.251 14.3319 -105.288 13.1454 -100.999C13.4256 -93.3043 14.2514 -82.4833 16.7084 -69.7751C17.8242 -63.99 20.9751 -49.019 31.4381 -23.5008C37.6755 -8.28282 47.0592 12.0142 60.96 35.073C61.5326 34.704 62.109 34.3353 62.6816 33.9663C51.5728 15.1933 43.6219 -1.18577 38.1409 -13.5049C32.1273 -27.0216 28.1436 -36.063 24.4776 -49.2747C19.8884 -65.7882 17.9676 -80.9853 17.0771 -88.2191C16.4163 -93.5747 16.0045 -98.0883 15.7421 -101.373C16.5506 -104.412 18.0417 -108.62 20.981 -112.92C26.8877 -121.564 35.1501 -125.475 34.9103 -125.845Z" fill="white"/>
<path opacity="0.49" d="M65.3223 -138.733C62.514 -139.031 58.1624 -139.114 53.2121 -137.604C44.1064 -134.823 38.9687 -128.465 37.1691 -125.988C35.2451 -106.708 35.68 -90.2272 36.6931 -77.6555C38.2585 -58.327 41.5443 -43.9455 44.2241 -32.4373C46.9849 -20.5783 49.9264 -8.20745 56.3167 7.36973C60.5159 17.6016 64.8236 25.8497 68.1491 31.7126C68.6804 31.5954 69.2117 31.4783 69.7391 31.3606C57.4654 6.21428 50.5817 -16.0668 46.5463 -32.5645C40.9725 -55.3573 39.441 -72.8039 39.0688 -77.3932C37.5897 -95.6384 38.1894 -111.407 39.315 -123.656C40.6872 -126.019 42.9744 -129.247 46.6247 -132.141C54.0403 -138.027 62.1788 -138.661 65.3227 -138.737L65.3223 -138.733Z" fill="white"/>
<path opacity="0.49" d="M91.3725 -141.395C91.3855 -141.796 87.5211 -142.691 83.1132 -142.362C77.1119 -141.912 72.5964 -139.381 70.073 -137.653C66.6333 -126.153 62.5903 -109.14 61.5303 -88.2259C60.8921 -75.6583 61.5539 -66.1061 62.1678 -58.2842C63.6319 -39.6537 66.4869 -9.82863 72.3817 30.7617C73.0183 30.6608 73.6592 30.5566 74.2958 30.4557C70.6214 6.96444 66.5302 -24.6206 64.9265 -57.988C64.2087 -72.9544 64.0731 -86.4951 65.9009 -102.892C67.401 -116.362 69.7458 -127.451 71.6643 -135.233C72.9064 -136.175 74.7648 -137.434 77.2045 -138.521C84.6042 -141.814 91.3552 -140.86 91.3721 -141.391L91.3725 -141.395Z" fill="white"/>
<path opacity="0.49" d="M118.899 -135.592C119.014 -135.878 114.327 -139.116 108.062 -139.417C104.198 -139.599 101.013 -138.601 98.9523 -137.734C97.0075 -132.576 94.3445 -124.72 92.212 -114.905C89.5862 -102.803 89.058 -93.6218 88.7045 -88.2446C87.1198 -64.1308 86.0464 -70.0795 82.8209 -31.6965C81.3297 -13.968 79.9172 6.81657 78.9767 30.152C79.6401 30.1808 80.3035 30.2096 80.9636 30.2341C82.2686 5.56985 83.9179 -15.5316 85.4124 -32.156C88.4239 -65.6281 88.7978 -58.4325 91.3973 -87.0364C91.987 -93.5008 92.9545 -104.772 96.3198 -119.558C97.8775 -126.398 99.4939 -131.986 100.665 -135.787C102.558 -136.594 105.272 -137.475 108.574 -137.59C114.562 -137.797 118.797 -135.34 118.897 -135.604L118.896 -135.597L118.899 -135.592Z" fill="white"/>
<path opacity="0.49" d="M133.374 -132.578C135.878 -131.623 139.754 -129.788 143.563 -126.289C146.704 -123.403 148.677 -120.414 149.866 -118.257C149.845 -114.584 149.702 -109.27 149.131 -102.9C148.438 -95.1749 147.14 -81.6316 141.7 -65.8618C140.871 -63.4612 139.698 -60.2852 135.609 -51.1731C127.704 -33.5493 120.338 -19.2226 112.999 -5.34867C107.534 4.97223 100.513 18.0099 92.0897 33.0776C92.7435 33.3811 93.3978 33.681 94.0517 33.9845C103.26 17.9484 110.754 4.44549 116.203 -5.50567C128.865 -28.6327 132.515 -36.2828 135.415 -42.8031C141.003 -55.3591 144.921 -64.1656 147.977 -76.3702C150.641 -87.0191 152.86 -101.124 152.147 -118.133C151.281 -120.174 149.572 -123.447 146.311 -126.454C141.301 -131.068 135.694 -132.231 133.374 -132.575L133.374 -132.578Z" fill="white"/>
<path opacity="0.49" d="M161.247 -111.911C161.609 -112.183 167.381 -107.107 170.369 -99.0077C171.753 -95.2566 172.164 -91.8736 172.272 -89.4502C170.966 -83.2201 168.746 -74.3773 164.868 -64.1633C159.834 -50.9094 154.433 -41.7498 146.747 -28.8598C139.468 -16.6536 133.625 -8.15574 124.659 4.82789C118.635 13.5535 110.511 25.0617 100.546 38.4596C99.963 37.9805 99.3793 37.5051 98.7922 37.0255C104.788 28.6607 113.235 16.6925 123.082 2.06181C132.52 -11.9658 138.438 -20.7691 143.678 -29.6412C151.556 -42.9912 161.583 -62.7666 169.737 -89.5359C169.544 -91.912 169.07 -95.287 167.809 -99.1348C165.168 -107.189 160.924 -111.67 161.248 -111.915L161.247 -111.911Z" fill="white"/>
<path opacity="0.49" d="M180.213 -78.9438C180.605 -78.9818 181.392 -75.9184 181.626 -72.7174C181.922 -68.6888 181.281 -65.3425 180.67 -63.1001C176.867 -56.1004 171.952 -47.4848 165.901 -37.8159C162.587 -32.5174 154.11 -19.1923 141.717 -2.70943C132.164 9.99758 119.719 25.336 104.077 41.9398C103.612 41.467 103.144 40.9861 102.679 40.5133C114.537 27.2821 126.894 12.2973 139.234 -4.52509C154.409 -25.2121 166.978 -45.1577 177.369 -63.5372C177.858 -64.7592 178.518 -66.6088 179.04 -68.9116C180.336 -74.6715 179.756 -78.8984 180.209 -78.9405L180.213 -78.9438Z" fill="white"/>
<path opacity="0.49" d="M184.651 -50.1192C184.924 -50.0638 184.562 -46.4276 183.743 -42.7765C183.21 -40.4137 182.482 -37.2769 180.653 -33.8451C178.943 -30.633 177.03 -28.5909 176.208 -27.6995C170.236 -21.1944 166.557 -14.8814 161.521 -8.7368C154.524 -0.203205 134.938 20.126 106.438 44.8563L105.708 43.8961C121.04 31.0038 137.497 15.3474 153.837 -3.49615C161.8 -12.678 168.957 -21.7215 175.386 -30.4681C176.746 -32.0851 178.632 -34.5713 180.336 -37.899C183.667 -44.399 184.306 -50.1831 184.651 -50.1192Z" fill="white"/>
<path opacity="0.49" d="M178.967 -27.8324C179.29 -27.7406 178.104 -20.5113 175.178 -13.2506C173.583 -9.29673 170.235 -2.26224 160.215 8.49247C150.12 19.3303 140.706 25.9449 127.873 34.8601C119.716 40.5277 112.834 44.8592 108.29 47.632C107.977 47.135 107.66 46.6376 107.347 46.1407C112.154 43.0886 119.227 38.4807 127.607 32.5713C142.131 22.3311 149.557 17.0331 157.713 8.357C162.984 2.75374 168.83 -3.56697 173.513 -13.5245C177.043 -21.0318 178.649 -27.9276 178.964 -27.8367L178.968 -27.8362L178.967 -27.8324Z" fill="white"/>
<path opacity="0.15" d="M2.25799 -21.206C2.51361 -21.3903 9.34185 -11.9353 18.6684 -0.179932C32.7169 17.5233 45.1368 31.2472 53.8551 40.47C53.358 40.9783 52.8571 41.4862 52.36 41.9945C44.6773 34.1552 34.296 22.8919 23.06 8.42684C11.5285 -6.42197 1.94697 -20.9746 2.25754 -21.2022L2.25799 -21.206Z" fill="black"/>
<path opacity="0.15" d="M56.9168 37.368C44.1549 24.3318 35.273 11.7668 29.2919 2.05193C24.0601 -6.45127 14.6298 -22.0207 8.3635 -44.5966C4.6459 -57.9868 3.20495 -69.6319 2.62964 -78.1353C2.19815 -73.3613 1.94309 -66.5506 2.88428 -58.483C4.20784 -47.1086 7.24182 -38.9463 10.6267 -30.0257C16.4851 -14.5844 22.958 -3.48906 25.2007 0.256517C31.3424 10.4925 41.0321 24.3911 55.7367 38.627C56.131 38.21 56.5211 37.7963 56.9155 37.3793L56.9168 37.368Z" fill="black"/>
<path opacity="0.15" d="M60.9683 35.0661C49.2809 15.8069 40.9332 -1.42785 35.0717 -14.9342C27.6385 -32.0606 20.9992 -47.6059 16.7865 -69.4326C14.3157 -82.2191 13.4591 -93.1357 13.1575 -101.005C12.6992 -100.76 12.2177 -100.48 11.7202 -100.164C11.1185 -99.7749 10.5748 -99.3909 10.0929 -99.0111C10.2615 -93.4801 10.7189 -86.4394 11.8779 -78.3344C12.2887 -75.4612 13.5224 -67.3397 16.4696 -56.0834C17.8706 -50.7322 21.2752 -38.5172 28.0978 -22.222C38.0745 1.60982 50.2948 22.0321 59.4712 35.9925C59.9677 35.6834 60.4676 35.3786 60.9683 35.0661Z" fill="black"/>
<path opacity="0.15" d="M37.1691 -125.988C36.089 -117.033 35.1615 -104.806 35.7513 -90.3108C36.2283 -78.5845 37.51 -70.0587 38.859 -61.2606C41.5816 -43.5157 45.5653 -18.5276 57.7149 10.8044C61.5475 20.0539 65.2101 27.3748 67.6398 32.001L65.3685 32.8624C55.2674 13.7681 43.1027 -14.4006 36.6201 -50.224C31.2995 -79.6168 31.4292 -105.198 32.9843 -124.437C34.3793 -124.954 35.7704 -125.471 37.1653 -125.988L37.1691 -125.988Z" fill="black"/>
<path opacity="0.15" d="M69.8466 -137.488C67.7104 -130.164 65.1007 -119.75 63.3491 -107.069C61.0491 -90.4062 61.2031 -76.8595 61.8292 -63.6094C63.621 -25.4253 69.3949 12.5945 72.3822 30.7578C71.8905 30.8643 71.3955 30.9666 70.9001 31.0727C64.2911 6.14913 58.2331 -26.3357 57.5606 -64.5214C57.0608 -92.8755 59.6423 -117.898 63.1616 -138.609C65.3898 -138.234 67.6184 -137.863 69.8428 -137.488L69.8466 -137.488Z" fill="black"/>
<path opacity="0.15" d="M79.3382 29.8492C78.4443 29.9541 77.5538 30.0632 76.6632 30.1723C76.2262 0.350147 77.5067 -33.2619 81.8853 -69.8297C84.9507 -95.4428 89.1375 -119.168 93.8724 -140.823C95.5211 -139.988 97.1726 -139.145 98.8212 -138.309C96.3908 -129.15 92.9907 -115.235 89.9977 -98.0602C85.5354 -72.4631 84.1826 -52.3115 81.6928 -13.6689C80.994 -2.82159 80.1208 12.0521 79.3378 29.853L79.3382 29.8492Z" fill="black"/>
<path opacity="0.15" d="M88.0963 31.5234C86.6792 31.0949 85.266 30.6668 83.8527 30.2388C87.3263 19.4558 91.5908 6.13744 96.4143 -9.1497C113.331 -62.754 116.963 -76.5805 118.739 -94.5204C119.811 -105.343 120.357 -119.232 118.903 -135.592C120.274 -134.388 121.645 -133.183 123.016 -131.978C124.929 -132.242 126.842 -132.502 128.755 -132.766C129.637 -126.947 130.633 -117.857 130.199 -106.756C129.906 -99.3024 128.92 -89.6849 125.639 -76.5451C120.667 -56.6459 107.7 -17.75 88.0959 31.5272L88.0963 31.5234Z" fill="black"/>
<path opacity="0.15" d="M152.149 -117.508C152.339 -108.625 151.885 -95.8016 148.643 -80.7984C145.364 -65.608 140.648 -54.7231 134.977 -41.8206C132.748 -36.7575 129.065 -28.7357 113.804 -1.08002C106.015 13.0394 99.2449 24.9572 94.0559 33.981C94.699 34.3752 95.3426 34.7658 95.9857 35.1601C104.409 21.1579 111.283 9.10679 116.462 -0.186474C130.661 -25.6799 136.492 -38.3106 138.247 -42.1574C143.206 -53.025 145.686 -58.4607 148.093 -65.7407C151.748 -76.7935 155.801 -93.6972 155.375 -115.98C154.301 -116.49 153.228 -117.004 152.15 -117.512L152.149 -117.508Z" fill="black"/>
<path opacity="0.15" d="M172.904 -89.5785C171.72 -84.0162 169.839 -76.647 166.769 -68.2382C164.038 -60.7474 161.203 -54.7368 158.434 -49.3163C149.593 -32.0141 140.229 -18.4491 135.882 -12.1999C123.182 6.06703 111.98 22.1429 100.543 38.4591C101.009 38.8862 101.476 39.3132 101.947 39.7369C116.809 20.0744 128.895 3.00724 138.036 -10.2929C152.534 -31.382 158.233 -40.9547 163.562 -52.4261C169.888 -66.0329 173.687 -77.9732 175.986 -86.4157C174.958 -87.4726 173.933 -88.5254 172.905 -89.5823L172.904 -89.5785Z" fill="black"/>
<path opacity="0.15" d="M104.365 42.2658C117.832 27.6464 128.931 14.0571 137.827 2.40273C141.415 -2.29611 154.016 -18.9498 168.688 -42.287C173.637 -50.1551 177.659 -56.9333 180.613 -62.0369C181.309 -60.7588 182.001 -59.4811 182.696 -58.203C179.578 -52.9463 175.53 -46.3015 170.633 -38.7071C170.633 -38.7071 162.882 -26.6948 155.249 -15.9983C137.015 9.54602 109.271 39.3136 105.379 43.4744C105.04 43.0701 104.701 42.6659 104.365 42.2658Z" fill="black"/>
<path opacity="0.15" d="M179.289 -31.2893C172.955 -23.0527 166.054 -14.6226 158.545 -6.09991C140.926 13.8989 123.178 30.7476 106.435 44.8448C106.627 45.132 106.816 45.4187 107.008 45.7021C120.324 36.3995 136.022 23.6578 151.653 6.59284C163.049 -5.85363 172.045 -18.0213 179.087 -28.8758C179.156 -29.6802 179.225 -30.4883 179.293 -31.2927L179.289 -31.2893Z" fill="black"/>
<path d="M50.1956 64.8556C50.8889 58.0662 69.3739 52.1047 84.5147 56.1253C93.7106 58.5677 104.79 65.5218 103.95 71.259C103.018 77.6331 87.5007 81.5777 75.0958 79.8895C63.3207 78.2874 49.5707 70.971 50.1956 64.8556Z" fill="black"/>
<path d="M50.7985 64.2945C50.6547 59.395 50.5071 54.495 50.3671 49.5958C50.3318 48.3729 50.2933 47.1458 50.2618 45.9234C50.2579 45.762 50.202 45.4257 50.2263 45.3175C50.2696 45.1463 50.5395 44.9062 50.6481 44.7658C50.9323 44.4047 51.2198 44.0479 51.5145 43.6957C52.6787 42.3121 53.9435 41.0172 55.2935 39.8128C60.4824 35.1886 66.9493 32.0381 73.8391 31.011C81.0137 29.941 88.4376 31.2958 94.7346 34.9162C99.503 37.658 103.598 41.5541 106.714 46.0814C107.018 46.5237 107.397 47.109 107.714 47.6333C107.737 47.6705 107.759 47.7076 107.778 47.7405C107.86 47.8958 107.765 47.7581 107.765 47.7581C107.66 48.0255 107.653 48.381 107.596 48.6655C107.538 48.9921 107.476 49.322 107.414 49.6481C107.197 50.8334 106.98 52.0188 106.763 53.2079C105.874 58.0541 104.986 62.9004 104.098 67.7428C103.887 68.9059 103.669 70.0644 103.459 71.2237C103.412 71.4903 103.691 71.7301 103.93 71.7432C104.227 71.7593 104.403 71.5349 104.45 71.2721C105.358 66.3247 106.266 61.3773 107.173 56.4375C107.627 53.9657 108.081 51.4901 108.531 49.0178C108.59 48.7144 108.642 48.41 108.7 48.1104C108.744 47.8741 108.829 47.6389 108.73 47.4087C108.691 47.3159 108.621 47.2272 108.57 47.1369C108.426 46.8975 108.278 46.6615 108.13 46.4255C105.33 42.0736 101.625 38.2467 97.3304 35.3579C91.104 31.1748 83.5886 29.1691 76.1068 29.7582C69.0158 30.3169 62.2169 33.0678 56.6117 37.4204C55.164 38.5442 53.7996 39.7738 52.5278 41.0947C51.8939 41.7554 51.2803 42.4377 50.6914 43.1383C50.3968 43.4904 50.1092 43.8473 49.825 44.2083C49.6845 44.391 49.5332 44.5685 49.4032 44.7601C49.1988 45.0616 49.2584 45.3676 49.2668 45.7174C49.4123 50.667 49.5575 55.6203 49.7035 60.5661C49.7387 61.789 49.7773 63.0161 49.8087 64.2386C49.8293 64.8734 50.8191 64.9293 50.7999 64.2832L50.7985 64.2945Z" fill="black"/>
<path d="M50.1074 44.8009C42.6477 38.0227 35.3298 30.8896 28.8116 23.1845C23.846 17.3189 18.9575 11.3858 13.9881 5.51971C11.3216 2.37543 8.51713 -0.769844 6.37247 -4.30835C4.11236 -8.03682 2.86924 -12.327 2.36808 -16.6365C2.20779 -18.0007 2.13665 -19.3735 2.13067 -20.7462C2.13015 -21.1947 2.23331 -21.742 2.11628 -22.1774C1.97508 -22.7 1.56798 -23.2426 1.3307 -23.7306C-0.00222961 -26.4218 -1.13186 -29.2115 -2.0382 -32.0745C-4.0509 -38.441 -4.9672 -45.1337 -4.75894 -51.8081C-4.63702 -55.6836 -4.14826 -59.5501 -3.22312 -63.3151C-2.59847 -65.8701 -1.79131 -68.3806 -0.819906 -70.8217C-0.165323 -72.4649 0.562161 -74.0765 1.36966 -75.6518C1.97851 -76.8443 3.07789 -78.1014 3.05878 -79.4604C2.96892 -85.3653 4.87116 -91.199 8.43757 -95.9081C9.8091 -97.7155 11.4068 -99.2968 13.1664 -100.725C13.7558 -101.203 13.7795 -101.921 13.9793 -102.637C14.2503 -103.597 14.5619 -104.545 14.9142 -105.481C17.1613 -111.411 21.105 -116.62 26.245 -120.346C28.4586 -121.95 30.8865 -123.26 33.4273 -124.262C34.3639 -124.63 35.3144 -124.955 36.2827 -125.235C36.9612 -125.43 37.4122 -125.484 37.8333 -126.063C43.6716 -134.032 53.2023 -138.847 63.1401 -138.202C64.5016 -138.114 65.8599 -137.934 67.1949 -137.653C67.6997 -137.547 68.1994 -137.43 68.7011 -137.298C69.0468 -137.207 69.5966 -136.931 69.954 -137.004C70.3821 -137.091 70.8979 -137.628 71.2589 -137.861C71.9147 -138.286 72.5896 -138.677 73.2807 -139.044C77.9285 -141.494 83.253 -142.507 88.466 -141.705C91.4774 -141.245 94.3969 -140.171 97.0192 -138.626C97.6139 -138.276 98.5519 -137.329 99.2552 -137.476C100.041 -137.636 100.817 -138.008 101.603 -138.206C107.384 -139.644 113.571 -138.585 118.522 -135.255C120.045 -134.231 121.431 -133.024 122.648 -131.65C122.763 -131.521 122.954 -131.449 123.124 -131.494C130.771 -133.447 139.611 -132.043 145.564 -126.654C147.402 -124.992 148.935 -123.017 150.123 -120.845C150.516 -120.124 150.873 -119.384 151.194 -118.629C151.479 -117.959 151.549 -117.261 152.239 -116.942C155.7 -115.321 158.904 -113.446 161.729 -110.835C165.777 -107.09 168.825 -102.314 170.498 -97.0572C171.064 -95.2693 171.483 -93.43 171.738 -91.5717C171.812 -91.034 171.733 -90.139 172.039 -89.6812C172.293 -89.3061 172.854 -88.9943 173.189 -88.6826C179.911 -82.4709 182.772 -72.9149 180.437 -64.0397C180.304 -63.538 179.882 -62.7564 179.966 -62.2367C180.039 -61.7798 180.545 -61.2024 180.765 -60.7931C181.523 -59.3657 182.17 -57.8749 182.671 -56.3401C184.231 -51.5563 184.476 -46.3803 183.264 -41.4843C182.67 -39.0942 181.76 -36.7837 180.552 -34.6427C180.184 -33.9889 179.79 -33.3533 179.372 -32.7322C179.209 -32.4909 178.96 -32.2368 178.863 -31.9609C178.709 -31.5384 178.78 -30.9091 178.746 -30.4571C178.348 -25.3841 177.286 -20.3706 175.565 -15.5808C169.938 0.0555898 156.953 11.9576 144.309 22.0947C133.253 30.9522 121.502 39.007 109.406 46.3885C108.964 46.658 108.522 46.9276 108.077 47.1929C107.533 47.5193 107.979 48.4077 108.527 48.0817C119.568 41.4529 130.276 34.1752 140.494 26.3451C154.496 15.6177 169.038 3.1836 175.858 -13.5571C177.431 -17.4178 178.499 -21.4877 179.166 -25.5976C179.347 -26.6991 179.489 -27.8051 179.606 -28.9181C179.696 -29.7773 179.573 -30.9992 179.921 -31.7742C180.222 -32.4398 180.782 -33.0595 181.153 -33.6977C181.682 -34.6046 182.161 -35.5405 182.589 -36.4978C186.225 -44.6095 185.689 -54.1582 181.302 -61.8677C181.197 -62.0487 180.995 -62.2797 180.945 -62.4772C181.026 -62.1609 180.977 -62.4198 181.049 -62.5798C181.112 -62.718 181.143 -62.8868 181.188 -63.0348C181.438 -63.8904 181.645 -64.7627 181.807 -65.6441C182.233 -67.943 182.353 -70.2856 182.154 -72.6164C181.729 -77.5991 179.818 -82.3669 176.735 -86.3002C175.763 -87.5421 174.677 -88.694 173.498 -89.7382C173.317 -89.8976 173.086 -90.0476 172.928 -90.2312C172.769 -90.4147 172.839 -90.418 172.886 -90.2668C172.849 -90.4053 172.855 -90.5885 172.841 -90.7319C172.755 -91.5547 172.637 -92.3734 172.489 -93.1882C171.625 -97.9278 169.731 -102.452 166.955 -106.391C164.18 -110.33 160.352 -113.769 156.062 -116.178C155.383 -116.562 154.686 -116.92 153.982 -117.253C153.684 -117.395 153.386 -117.534 153.08 -117.666C152.949 -117.724 152.814 -117.778 152.683 -117.84C152.322 -117.997 152.604 -117.784 152.501 -118.053C151.814 -119.82 150.998 -121.508 149.947 -123.085C147.068 -127.408 142.785 -130.628 137.815 -132.156C133.892 -133.361 129.689 -133.564 125.636 -132.994C124.728 -132.868 123.819 -132.699 122.934 -132.475L123.409 -132.319C117.297 -139.213 107.434 -141.616 98.8246 -138.37L99.3229 -138.338C91.5413 -143.79 81.4325 -144.382 73.0252 -140.024C71.8123 -139.394 70.6499 -138.673 69.5467 -137.869L70.0299 -137.969C61.2739 -140.566 51.8053 -139.089 44.3386 -133.807C41.8161 -132.022 39.5584 -129.852 37.6456 -127.422C37.389 -127.1 37.1679 -126.689 36.8771 -126.402C36.7124 -126.241 37.198 -126.49 36.809 -126.41C36.7068 -126.388 36.6069 -126.354 36.5042 -126.327C36.1079 -126.217 35.7107 -126.099 35.3206 -125.977C33.5846 -125.428 31.8862 -124.744 30.2605 -123.928C21.8702 -119.714 15.5928 -111.984 13.0629 -102.956C12.9351 -102.492 12.8828 -101.889 12.5953 -101.532C12.1181 -100.933 11.2993 -100.459 10.7343 -99.9283C9.20698 -98.4881 7.83471 -96.8686 6.67289 -95.1169C3.94565 -91.0212 2.36974 -86.1951 2.12135 -81.2845C2.0861 -80.5989 2.24215 -79.7487 2.10198 -79.0832C1.9618 -78.4176 1.38495 -77.754 1.07655 -77.1888C0.678175 -76.4465 0.297798 -75.6944 -0.0679051 -74.9368C-1.1492 -72.7003 -2.08892 -70.3972 -2.87393 -68.0413C-3.83726 -65.1508 -4.56453 -62.1825 -5.04037 -59.1691C-6.57111 -49.5164 -5.65355 -39.4702 -2.43902 -30.244C-1.66621 -28.0331 -0.773759 -25.8617 0.245264 -23.7558C0.676313 -22.8654 1.17511 -22.1586 1.16784 -21.1592C1.16057 -20.1598 1.19347 -19.079 1.27377 -18.0424C1.57638 -13.9978 2.50508 -9.93269 4.23807 -6.25134C5.36469 -3.85672 6.89726 -1.68611 8.51751 0.391422C11.2354 3.87904 14.1604 7.20341 17.0229 10.5702C20.7159 14.9168 24.324 19.3339 27.9954 23.701C32.6677 29.2597 37.839 34.456 43.0547 39.5043C45.1382 41.5217 47.2534 43.4969 49.3983 45.4488C49.8651 45.8759 50.6133 45.2211 50.1394 44.7893L50.1234 44.7951L50.1074 44.8009Z" fill="black"/>
<path d="M178.903 -32.0784C174.752 -26.538 170.474 -21.0969 166.074 -15.7547C161.369 -10.046 156.529 -4.44926 151.546 1.0195C146.718 6.32252 141.764 11.5149 136.691 16.5859C131.918 21.3513 127.043 26.0126 122.062 30.5618C117.412 34.8091 112.674 38.9616 107.856 43.0126C107.273 43.5031 106.69 43.9897 106.103 44.4797C105.61 44.8889 106.269 45.6338 106.762 45.2209C111.58 41.2119 116.316 37.1052 120.965 32.9037C125.952 28.3974 130.834 23.779 135.613 19.0527C140.701 14.0218 145.672 8.87366 150.515 3.61067C155.53 -1.84272 160.418 -7.41851 165.162 -13.1071C169.638 -18.4711 173.98 -23.9391 178.203 -29.5016C178.713 -30.1771 179.221 -30.8488 179.727 -31.5248C180.11 -32.039 179.281 -32.5855 178.899 -32.0751L178.903 -32.0784Z" fill="black"/>
<path d="M180.019 -62.613C175.982 -55.3612 171.781 -48.2018 167.404 -41.1475C162.672 -33.5221 157.747 -26.0191 152.627 -18.6465C147.535 -11.3167 142.256 -4.11637 136.79 2.94305C131.694 9.52897 126.441 15.9889 121.035 22.3196C116.019 28.1945 110.868 33.9575 105.592 39.6061C104.977 40.2653 104.359 40.9202 103.741 41.5752C103.304 42.0368 103.962 42.7855 104.401 42.3163C109.638 36.7666 114.751 31.1063 119.739 25.3316C125.157 19.0675 130.421 12.674 135.527 6.16214C140.985 -0.794787 146.26 -7.89216 151.354 -15.1144C156.587 -22.5387 161.626 -30.0971 166.465 -37.7865C170.951 -44.9161 175.261 -52.1546 179.396 -59.4905C179.876 -60.3457 180.357 -61.2009 180.835 -62.0603C181.142 -62.6141 180.318 -63.1677 180.007 -62.6106L180.019 -62.613Z" fill="black"/>
<path d="M171.919 -90.1634C169.932 -80.7027 167.179 -71.4057 163.659 -62.3988C160.067 -53.2011 155.608 -44.3897 150.535 -35.9233C146.26 -28.7955 141.671 -21.8583 137.094 -14.9236C131.979 -7.17484 126.78 0.51402 121.499 8.14722C115.324 17.0773 109.044 25.9296 102.661 34.7123C101.819 35.8695 100.977 37.0268 100.13 38.1836C99.7514 38.6982 100.579 39.2485 100.958 38.7339C107.502 29.7901 113.94 20.7687 120.269 11.6692C125.678 3.8902 131.006 -3.94439 136.245 -11.8393C140.86 -18.7965 145.475 -25.7612 149.848 -32.8736C154.852 -41.0148 159.362 -49.4484 163.058 -58.2658C166.99 -67.6417 170.075 -77.3822 172.309 -87.3042C172.497 -88.1518 172.686 -89.0032 172.864 -89.856C172.995 -90.4766 172.055 -90.7911 171.92 -90.1671L171.919 -90.1634Z" fill="black"/>
<path d="M94.4679 34.2558C101.734 21.7759 108.809 9.18534 115.687 -3.51297C121.779 -14.7561 127.763 -26.0617 133.408 -37.538C136.578 -43.9841 139.682 -50.484 142.34 -57.1633C144.222 -61.8918 145.726 -66.7264 147.019 -71.6513C150.548 -85.1027 152.386 -98.9691 152.627 -112.872C152.656 -114.409 152.658 -115.949 152.649 -117.487C152.644 -118.124 151.654 -118.176 151.658 -117.532C151.756 -103.9 150.37 -90.2594 147.311 -76.9629C145.917 -70.8889 144.248 -64.8551 142.013 -59.0301C139.66 -52.8857 136.867 -46.9047 134 -40.9859C128.595 -29.8148 122.813 -18.83 116.935 -7.90268C110.318 4.40875 103.514 16.6175 96.5298 28.7246C95.5704 30.3853 94.6072 32.0456 93.644 33.7059C93.3218 34.2579 94.1495 34.8082 94.4717 34.2562L94.4679 34.2558Z" fill="black"/>
<path d="M122.525 -131.875C124.044 -123.31 124.758 -114.557 124.318 -105.859C123.888 -97.3178 122.392 -88.8606 120.564 -80.5193C117.911 -68.4127 114.607 -56.4369 111.109 -44.5454C107.228 -31.3579 102.988 -18.2819 98.5612 -5.27406C94.7994 5.77373 90.8792 16.7683 86.7939 27.7011C86.4017 28.7468 86.0095 29.7926 85.6169 30.8422C85.3928 31.4403 86.337 31.7515 86.5612 31.1533C90.5199 20.6424 94.3319 10.0758 97.993 -0.543159C102.537 -13.7288 106.893 -26.9825 110.898 -40.3431C114.523 -52.4305 117.931 -64.6047 120.768 -76.9003C122.778 -85.6224 124.508 -94.462 125.16 -103.399C125.776 -111.795 125.31 -120.247 124.069 -128.569C123.893 -129.74 123.702 -130.908 123.495 -132.075C123.382 -132.701 122.411 -132.494 122.524 -131.868L122.525 -131.875Z" fill="black"/>
<path d="M98.5476 -138.069C94.9463 -128.861 92.227 -119.269 90.75 -109.487C89.748 -102.842 89.1359 -96.123 88.3451 -89.4486C86.9711 -77.8841 85.4346 -66.3389 84.2911 -54.7471C82.8959 -40.6098 81.9064 -26.4358 80.9513 -12.2617C80.1281 0.0234264 79.3852 12.3103 78.749 24.6023C78.6532 26.4458 78.5612 28.2898 78.4692 30.1338C78.4397 30.7703 79.43 30.8225 79.4603 30.1784C80.0868 17.483 80.8159 4.79582 81.6521 -7.89012C82.557 -21.641 83.4921 -35.3883 84.747 -49.1169C85.8158 -60.7904 87.2801 -72.4055 88.6853 -84.039C89.6468 -91.9924 90.4353 -99.9739 91.514 -107.913C92.6684 -116.396 94.8118 -124.75 97.6419 -132.819C98.2218 -134.478 98.839 -136.13 99.4814 -137.767C99.7169 -138.364 98.7722 -138.671 98.5371 -138.078L98.5476 -138.069Z" fill="black"/>
<path d="M69.3744 -137.643C66.5457 -128.033 64.3985 -118.224 62.9558 -108.311C61.2935 -96.8692 60.6143 -85.3144 60.893 -73.7572C61.1754 -62.1996 62.0764 -51.7874 63.0446 -40.8423C64.109 -28.8011 65.4065 -16.786 66.8983 -4.7938C68.2337 5.93046 69.7206 16.6382 71.3518 27.3246C71.5307 28.4994 71.7124 29.6822 71.8947 30.8612C71.9922 31.4936 72.9638 31.2829 72.8658 30.6543C71.2531 20.2651 69.7686 9.86044 68.4289 -0.569229C66.911 -12.3729 65.5831 -24.1961 64.4689 -36.0439C63.4103 -47.3256 62.4445 -58.6461 62.004 -69.9695C61.5696 -81.0852 61.9443 -92.2047 63.2801 -103.252C64.5599 -113.828 66.6476 -124.3 69.5188 -134.56C69.7782 -135.488 70.0446 -136.41 70.3149 -137.333C70.495 -137.947 69.5503 -138.255 69.3706 -137.644L69.3744 -137.643Z" fill="black"/>
<path d="M36.6733 -126.008C35.4717 -116.19 34.9353 -106.293 35.0819 -96.4034C35.242 -85.5923 36.3397 -74.9001 38.0619 -64.2373C39.8366 -53.2425 41.6512 -42.2277 43.9512 -31.3317C46.2512 -20.4356 49.1613 -10.0307 52.8941 0.287756C56.3385 9.80557 60.4003 19.0938 65.0249 28.0961C65.7386 29.4798 66.4607 30.8569 67.1989 32.2282C67.4999 32.7928 68.3883 32.3462 68.0877 31.7778C63.0634 22.4293 58.6333 12.7563 54.8855 2.82316C51.1142 -7.17027 48.0748 -17.4219 45.7306 -27.8479C43.386 -38.2702 41.5422 -49.4265 39.7217 -60.2618C37.9424 -70.8624 36.5383 -81.4607 36.1757 -92.2115C35.8134 -102.966 36.2111 -112.791 37.3223 -123.011C37.4273 -123.995 37.5442 -124.981 37.6649 -125.967C37.7401 -126.602 36.749 -126.647 36.6737 -126.012L36.6733 -126.008Z" fill="black"/>
<path d="M12.6351 -101.351C13.1654 -91.9176 14.2709 -82.5198 15.9484 -73.2266C17.8182 -62.8721 20.4249 -52.6564 23.7293 -42.6685C26.4928 -34.2929 29.7446 -26.0933 33.2389 -17.9991C36.4644 -10.5154 39.7954 -3.08057 43.3979 4.22932C47.9886 13.5495 52.9653 22.6855 58.2936 31.6026C59.029 32.8356 59.7728 34.0619 60.5247 35.2854C60.8553 35.8266 61.747 35.3843 61.4135 34.835C55.8456 25.7401 50.6488 16.4248 45.8481 6.9034C42.1495 -0.437034 38.7348 -7.90864 35.4415 -15.4348C31.9638 -23.3776 28.6593 -31.3919 25.8205 -39.5847C22.4763 -49.2363 19.7665 -59.1001 17.7531 -69.1152C15.7912 -78.8866 14.4624 -88.7938 13.7934 -98.7377C13.7378 -99.5951 13.6823 -100.453 13.6381 -101.309C13.6019 -101.941 12.6083 -101.998 12.6469 -101.353L12.6356 -101.355L12.6351 -101.351Z" fill="black"/>
<path d="M2.07712 -78.9054C2.73133 -69.2889 4.15087 -59.7274 6.37743 -50.3462C8.07709 -43.1813 10.2462 -36.1294 12.8693 -29.2537C16.1208 -20.7283 20.0839 -12.4827 24.6674 -4.58906C28.5821 2.15613 32.9029 8.708 37.4904 15.0155C42.836 22.3633 48.6477 29.3678 54.8902 35.971C55.5205 36.6359 56.1549 37.2974 56.7898 37.9552C57.2337 38.414 57.9782 37.7587 57.531 37.2957C51.4763 31.0481 45.8025 24.4317 40.5544 17.4902C35.7142 11.0838 31.1956 4.38967 27.0553 -2.48955C22.2394 -10.4913 18.0428 -18.868 14.591 -27.5474C11.9981 -34.0631 9.83512 -40.7464 8.09112 -47.5371C5.78642 -56.5175 4.2207 -65.6863 3.37964 -74.9224C3.25888 -76.2321 3.1579 -77.5471 3.06782 -78.857C3.02365 -79.4869 2.03385 -79.5429 2.07667 -78.9016L2.07757 -78.9092L2.07712 -78.9054Z" fill="black"/>
<path d="M1.27956 -21.6822C4.39534 -17.5419 7.54871 -13.4278 10.741 -9.35129C13.9333 -5.27475 17.3674 -0.974124 20.7442 3.16259C24.2043 7.40499 27.7109 11.6107 31.2569 15.7752C34.732 19.8584 38.2494 23.9083 41.8095 27.9211C45.2308 31.7795 48.6906 35.6041 52.1851 39.3945C52.6167 39.8596 53.0441 40.3279 53.4757 40.793C53.9073 41.258 54.6556 40.6032 54.2168 40.1335C50.7101 36.3493 47.2414 32.5351 43.8117 28.6834C40.2769 24.7157 36.7777 20.7063 33.3203 16.6673C29.7621 12.5091 26.2504 8.31426 22.7809 4.08609C19.3115 -0.142089 15.9885 -4.2801 12.654 -8.51528C9.32286 -12.7462 6.28719 -16.6892 3.16296 -20.8228C2.77873 -21.3321 2.3945 -21.8413 2.01406 -22.3501C1.63361 -22.859 0.888672 -22.1999 1.2729 -21.6906L1.27956 -21.6822Z" fill="black"/>
<path d="M103.954 71.2552L103.78 71.7864C99.5973 84.4438 95.415 97.1012 91.2326 109.759C90.1379 109.391 89.0427 109.028 87.9442 108.66C92.3688 94.5405 96.801 80.4219 101.226 66.3023C101.826 66.8985 102.619 67.8318 103.238 69.1468C103.605 69.9262 103.822 70.6532 103.954 71.2514L103.954 71.2552Z" fill="#FF9700"/>
<path d="M103.482 71.0997C101.832 76.0972 100.178 81.0942 98.5283 86.0917C96.8785 91.0892 95.2132 96.1193 93.5573 101.135C92.6252 103.957 91.6884 106.785 90.7562 109.606L91.3839 109.29C90.2892 108.923 89.1941 108.559 88.0956 108.191L88.4121 108.819C90.1427 103.302 91.869 97.7888 93.5995 92.272C95.3194 86.7807 97.043 81.29 98.7667 75.7992C99.7451 72.6843 100.719 69.5729 101.693 66.4614L100.849 66.6372C102.15 67.9412 103.058 69.5626 103.462 71.3618C103.603 71.9841 104.577 71.7814 104.433 71.155C103.991 69.1978 103.008 67.4027 101.589 65.9815C101.329 65.7207 100.862 65.7803 100.745 66.1573C99.014 71.6741 97.2876 77.1876 95.5571 82.7044C93.8372 88.1956 92.1136 93.6864 90.39 99.1772C89.4116 102.292 88.4374 105.403 87.4632 108.515C87.3832 108.77 87.5219 109.055 87.7797 109.143C88.8744 109.51 89.9696 109.874 91.0681 110.241C91.3226 110.325 91.612 110.179 91.6958 109.925C93.3517 104.909 95.0109 99.8971 96.6668 94.8812C98.3227 89.8653 99.9819 84.8536 101.638 79.8376C102.564 77.0309 103.49 74.228 104.421 71.4218C104.619 70.8129 103.678 70.506 103.477 71.1106L103.477 71.103L103.482 71.0997Z" fill="black"/>
<path d="M85.1414 56.9157C82.1641 72.8585 79.1867 88.8012 76.2094 104.744C77.3599 104.834 78.5071 104.92 79.6581 105.007C82.6971 89.4816 85.7395 73.9604 88.7785 58.435C87.5658 57.9311 86.3537 57.4234 85.1452 56.9161L85.1414 56.9157Z" fill="#FF9700"/>
<path d="M84.6694 56.7599C83.5056 62.9915 82.3424 69.2194 81.1786 75.451C80.0149 81.6826 78.8612 87.8618 77.7044 94.0674C77.0514 97.5734 76.3941 101.083 75.7411 104.589C75.6804 104.907 75.8358 105.213 76.1891 105.24C77.3396 105.33 78.4868 105.416 79.6377 105.503C79.8314 105.518 80.0948 105.365 80.1341 105.163C81.3183 99.1137 82.5026 93.0646 83.6864 87.0193C84.8707 80.9703 86.0549 74.9212 87.2387 68.8759C87.9092 65.4486 88.5835 62.0219 89.254 58.5946C89.3103 58.3139 89.2111 58.0836 88.9375 57.9669C87.7248 57.463 86.5126 56.9553 85.3042 56.448C84.7163 56.2021 84.4089 57.1468 84.993 57.3923C86.2057 57.8962 87.4179 58.4039 88.6263 58.9111L88.3098 58.2835C87.1255 64.3325 85.9413 70.3816 84.7575 76.4269C83.5732 82.476 82.3889 88.5251 81.2051 94.5704C80.5346 97.9976 79.8603 101.424 79.1898 104.852L79.6861 104.512C78.5356 104.422 77.3884 104.335 76.2374 104.249L76.6854 104.9C77.8491 98.6682 79.0124 92.4403 80.1761 86.2087C81.3367 80.0035 82.4935 73.7979 83.6504 67.5923C84.3034 64.0863 84.9606 60.577 85.6136 57.071C85.6605 56.8045 85.5734 56.5374 85.2971 56.4433C85.0686 56.3665 84.7196 56.4976 84.6694 56.7599Z" fill="black"/>
<path d="M68.4179 55.7085C67.6369 71.6164 66.8634 87.5252 66.0823 103.433C67.2883 103.476 68.4951 103.512 69.6935 103.554C70.6158 87.5214 71.5381 71.4884 72.4571 55.4513C71.1095 55.5369 69.7623 55.6187 68.4141 55.7081L68.4179 55.7085Z" fill="#FF9700"/>
<path d="M67.9222 55.6884C67.6193 61.8994 67.3132 68.1062 67.0103 74.3172C66.7075 80.5282 66.4014 86.7349 66.0985 92.9459C65.9265 96.4361 65.7586 99.9229 65.5861 103.417C65.5737 103.684 65.79 103.928 66.0573 103.936C67.2632 103.98 68.47 104.015 69.6684 104.058C69.9394 104.067 70.1713 103.857 70.1879 103.586C70.5453 97.3359 70.9059 91.0896 71.267 84.8395C71.6244 78.589 71.985 72.3427 72.3461 66.0926C72.5462 62.5598 72.7544 59.0241 72.9549 55.4876C72.9689 55.2401 72.7504 54.9498 72.4838 54.968C71.1361 55.0536 69.7889 55.1354 68.4408 55.2248C67.8113 55.2652 67.7549 56.2588 68.3962 56.216C69.7439 56.1304 71.0911 56.0485 72.4392 55.9592L71.968 55.4396C71.6107 61.6901 71.25 67.9364 70.8889 74.1865C70.5316 80.437 70.1709 86.6833 69.8098 92.9334C69.6097 96.4662 69.4016 100.002 69.201 103.538L69.7206 103.067C68.5146 103.024 67.3078 102.988 66.1094 102.946L66.5806 103.466C66.8834 97.2546 67.1896 91.0478 67.4924 84.8368C67.7952 78.6258 68.1014 72.4191 68.4042 66.2081C68.5763 62.718 68.7441 59.2311 68.9166 55.7372C68.9461 55.1007 67.9558 55.0485 67.9255 55.6926L67.9222 55.6884Z" fill="black"/>
<path d="M50.1955 64.8554C49.9142 78.454 49.6295 92.0485 49.3482 105.647C50.6208 105.775 51.8971 105.903 53.1692 106.035C53.5804 90.7575 53.9917 75.4803 54.4067 60.2035C53.7836 60.5129 52.8398 61.0718 51.9392 62.042C50.9556 63.0982 50.4518 64.1806 50.1955 64.8554Z" fill="#FF9700"/>
<path d="M49.6997 64.8352C49.588 70.1452 49.48 75.4557 49.3678 80.7695C49.2587 86.0568 49.1463 91.3399 49.0377 96.6235C48.9772 99.6248 48.9129 102.626 48.8524 105.627C48.8461 105.906 49.051 106.118 49.3235 106.146C50.5961 106.274 51.8724 106.402 53.1445 106.534C53.4091 106.565 53.6568 106.319 53.6641 106.063C53.8242 100.119 53.9852 94.1667 54.1452 88.2224C54.3047 82.2512 54.4683 76.2767 54.6278 70.3054C54.719 66.9475 54.8065 63.5892 54.8978 60.2313C54.9076 59.8569 54.5174 59.5922 54.1791 59.7629C52.1256 60.7919 50.54 62.5625 49.7229 64.7038C49.495 65.3015 50.4397 65.6089 50.6672 65.015C51.39 63.1192 52.8169 61.556 54.6299 60.6479L53.9113 60.1796C53.7512 66.1239 53.5902 72.0757 53.4301 78.02C53.2707 83.9913 53.107 89.9658 52.9476 95.937C52.8564 99.2949 52.7689 102.653 52.6776 106.011L53.1972 105.54C51.9246 105.412 50.6483 105.284 49.3762 105.152L49.8473 105.672C49.9591 100.362 50.067 95.0515 50.1793 89.7377C50.2883 84.4504 50.4007 79.1673 50.5094 73.8837C50.5699 70.8824 50.6341 67.8816 50.6946 64.8803C50.7085 64.2457 49.7145 64.1931 49.7035 64.8356L49.6997 64.8352Z" fill="black"/>
<path d="M58.7055 212.404C94.4275 216.637 126.817 191.109 131.049 155.387C135.282 119.665 109.754 87.2757 74.0323 83.0433C38.3103 78.8109 5.92089 104.338 1.6885 140.06C-2.5439 175.782 22.9835 208.172 58.7055 212.404Z" fill="#FF9700"/>
<path opacity="0.65" d="M87.5087 86.1034C56.4428 75.9803 22.6678 89.9834 8.33497 118.121C-6.86596 147.956 3.78421 185.868 33.434 203.933C6.61133 185.49 -2.8258 150.052 11.0717 121.093C24.6125 92.8812 56.8589 77.9995 87.5087 86.1034Z" fill="white"/>
<path d="M114.474 140.117C119.937 139.584 125.404 139.055 130.867 138.522C131.494 144.034 131.796 152.348 129.656 162.101C127.582 171.548 123.996 178.792 121.201 183.489C116.311 180.771 111.425 178.049 106.535 175.332C108.964 171.197 112.08 164.759 113.672 156.364C114.899 149.894 114.844 144.273 114.474 140.121L114.474 140.117Z" fill="#FFFF00"/>
<path d="M60.6869 195.681C87.1726 198.819 111.187 179.892 114.326 153.406C117.464 126.92 98.5366 102.905 72.0509 99.7674C45.5652 96.6294 21.5503 115.556 18.4123 142.042C15.2742 168.528 34.2012 192.543 60.6869 195.681Z" fill="#FFF9D9"/>
<path d="M33.6712 183.266C55.2695 200.745 86.0704 198.128 102.742 179.496C116.877 163.699 118.661 138.838 106.213 119.374C116.385 138.615 113.764 161.797 100.072 176.892C83.9241 194.7 55.2875 198.037 33.6675 183.266L33.6712 183.266Z" fill="#EAD683"/>
<path d="M113.411 154.524C112.687 159.474 111.213 164.282 109.003 168.768C106.883 173.074 104.095 177.036 100.789 180.515C97.48 183.99 93.7203 186.902 89.5834 189.213C85.4093 191.547 80.8791 193.263 76.1982 194.246C71.3369 195.264 66.3318 195.522 61.393 194.994C56.4159 194.466 51.5416 193.168 46.9698 191.128C42.5546 189.156 38.4609 186.509 34.8403 183.298C31.2852 180.148 28.2196 176.458 25.7454 172.402C23.2646 168.337 21.3839 163.864 20.2378 159.24C19.0921 154.613 18.6029 149.523 18.9345 144.622C19.2741 139.588 20.3917 134.619 22.2758 129.941C24.0829 125.46 26.5641 121.274 29.635 117.545C32.6703 113.858 36.2552 110.642 40.2424 108.01C44.2295 105.378 48.6026 103.37 53.1792 102.039C57.7595 100.707 62.7889 100.05 67.6616 100.198C72.6872 100.349 77.6975 101.276 82.4324 102.975C87.013 104.618 91.3304 106.961 95.1958 109.918C98.9767 112.811 102.309 116.256 105.073 120.133C107.837 124.009 110.033 128.335 111.534 132.882C113.034 137.429 113.852 142.362 113.904 147.228C113.933 149.669 113.751 152.108 113.404 154.523C113.262 155.491 114.769 155.712 114.907 154.74C115.635 149.664 115.587 144.473 114.718 139.422C113.877 134.547 112.298 129.796 110.037 125.393C107.773 120.989 104.863 116.954 101.408 113.409C97.957 109.869 93.973 106.879 89.6257 104.529C85.2785 102.178 80.268 100.411 75.2573 99.4882C70.1903 98.5545 64.9641 98.4143 59.8589 99.0971C54.7498 99.7795 50.1207 101.166 45.6289 103.271C41.137 105.375 37.0268 108.108 33.3882 111.421C29.7496 114.734 26.5754 118.624 24.0532 122.897C21.4736 127.267 19.6132 132.036 18.5016 136.986C17.3901 141.936 17.034 147.271 17.5235 152.422C18.0131 157.574 19.2357 162.264 21.1769 166.84C23.0971 171.367 25.7056 175.616 28.8822 179.373C32.0588 183.129 35.7889 186.419 39.9364 189.064C44.2191 191.798 48.8905 193.839 53.7985 195.144C58.7068 196.446 64.0414 196.998 69.2232 196.704C74.2079 196.424 79.1515 195.358 83.8197 193.577C88.4195 191.823 92.7618 189.363 96.6363 186.323C100.498 183.293 103.915 179.682 106.709 175.644C109.566 171.514 111.789 166.952 113.252 162.147C113.991 159.724 114.545 157.249 114.914 154.744C115.056 153.776 113.553 153.556 113.411 154.528L113.411 154.524Z" fill="black"/>
<path d="M130.077 156.931C129.1 163.625 127.101 170.141 124.109 176.214C121.117 182.286 117.471 187.408 112.993 192.112C108.555 196.775 103.392 200.786 97.7703 203.921C92.1484 207.057 85.9883 209.397 79.649 210.727C73.0736 212.109 66.2955 212.452 59.6122 211.737C52.8793 211.02 46.277 209.264 40.0927 206.504C34.1158 203.837 28.5734 200.253 23.6762 195.913C18.8659 191.649 14.7089 186.657 11.3617 181.171C7.98867 175.643 5.4421 169.578 3.88357 163.292C2.32504 157.006 1.67856 150.138 2.12737 143.504C2.58921 136.694 4.10332 129.964 6.6543 123.636C9.09746 117.571 12.4628 111.907 16.6138 106.857C20.7685 101.808 25.5739 97.51 30.9699 93.9528C36.3578 90.3984 42.2803 87.6701 48.4768 85.8634C54.6729 84.0604 61.5247 83.1591 68.1463 83.3611C74.7715 83.5636 81.7275 84.8246 88.1387 87.1249C94.5462 89.4247 100.18 92.5258 105.413 96.526C110.53 100.436 115.042 105.11 118.783 110.351C122.546 115.626 125.496 121.452 127.531 127.602C129.565 133.753 130.675 140.43 130.75 147.016C130.786 150.331 130.547 153.645 130.077 156.927C129.936 157.895 131.443 158.116 131.581 157.144C132.558 150.323 132.495 143.348 131.322 136.552C130.15 129.756 128.068 123.615 125.025 117.698C121.995 111.801 118.095 106.387 113.464 101.642C108.831 96.885 103.476 92.8549 97.6296 89.698C91.604 86.4394 85.0564 84.1575 78.3206 82.9148C71.5096 81.6595 64.4879 81.4714 57.6191 82.386C51.0112 83.2663 44.5315 85.166 38.4936 87.9956C32.5046 90.8004 26.9344 94.5017 22.0418 98.954C17.128 103.423 12.9113 108.607 9.53924 114.328C6.16344 120.048 3.56913 126.612 2.07243 133.261C0.547832 140.047 0.0973659 147.084 0.75646 154.007C1.38553 160.666 3.05634 167.233 5.66909 173.387C8.25121 179.476 11.7599 185.184 16.0291 190.232C20.2978 195.283 25.3164 199.698 30.893 203.253C36.6261 206.91 42.8892 209.652 49.462 211.397C56.2019 213.188 63.2312 213.894 70.1954 213.501C76.8972 213.122 83.5394 211.694 89.8129 209.302C95.9978 206.946 101.832 203.64 107.037 199.554C112.23 195.479 116.818 190.626 120.577 185.196C124.415 179.646 127.4 173.511 129.364 167.052C130.354 163.809 131.096 160.493 131.585 157.137C131.727 156.168 130.224 155.948 130.082 156.92L130.077 156.931Z" fill="black"/>
<path d="M42.8334 131.704C42.7731 132.018 42.761 132.258 42.797 132.422C43.0994 132.348 43.2625 132.325 43.2861 132.354C43.4269 132.289 43.5309 132.193 43.5979 132.066C43.6649 131.939 43.7584 131.815 43.8784 131.694C43.9843 131.706 44.0741 131.742 44.1479 131.803C44.2245 131.838 44.2878 131.872 44.3379 131.904C44.7756 131.817 45.036 131.885 45.1194 132.108C45.4246 132.006 45.6524 132.004 45.8028 132.1C45.956 132.17 46.0973 132.225 46.2269 132.266C46.3006 132.327 46.3612 132.387 46.4085 132.446C46.4558 132.504 46.531 132.552 46.634 132.59C46.6187 133.74 46.5637 134.885 46.469 136.026C46.3743 137.167 46.265 138.32 46.141 139.484C46.0621 140.225 45.9567 140.964 45.8248 141.699C45.7223 142.411 45.633 143.125 45.5569 143.839C45.5259 144.13 45.5095 144.41 45.5078 144.677C45.5089 144.918 45.4954 145.171 45.4672 145.436C45.4447 145.648 45.4103 145.845 45.3641 146.027C45.3444 146.212 45.3246 146.398 45.3049 146.583C45.2514 147.086 45.1992 147.576 45.1485 148.052C45.1243 148.531 45.0854 149.023 45.0318 149.525L44.9177 150.597C44.8951 150.809 44.874 151.008 44.8543 151.193C44.8638 151.355 44.8588 151.528 44.839 151.713C44.8052 152.031 44.7567 152.361 44.6936 152.702C44.6598 153.019 44.6246 153.35 44.588 153.694C44.5541 154.012 44.535 154.318 44.5304 154.612C44.5524 154.909 44.5479 155.203 44.5169 155.494C44.4267 156.341 44.3247 157.173 44.2108 157.991C44.0998 158.782 44.0139 159.59 43.953 160.413C43.8916 160.487 43.817 160.559 43.7291 160.63C43.6705 160.677 43.6252 160.726 43.5931 160.776C43.5261 160.903 43.4723 161.031 43.4317 161.161C43.3911 161.29 43.299 161.401 43.1554 161.493C42.9701 161.473 42.8553 161.421 42.8108 161.335C42.7927 161.253 42.7336 161.18 42.6334 161.116C42.363 161.141 42.0927 161.165 41.8224 161.19C41.5813 161.191 41.311 161.216 41.0114 161.264C40.9376 161.203 40.8492 161.153 40.7461 161.116C40.6723 161.054 40.5825 161.018 40.4766 161.007C40.2677 160.958 40.1689 160.88 40.1801 160.774C40.1914 160.668 40.1587 160.598 40.0821 160.563C39.947 160.575 39.8341 160.63 39.7434 160.728C39.6555 160.799 39.5057 160.823 39.2939 160.8C39.2145 160.792 39.1275 160.729 39.0329 160.612C38.9411 160.468 38.8744 160.341 38.8327 160.229L38.8792 159.793C38.9074 159.528 38.9021 159.327 38.8632 159.189C39.0046 158.615 39.1106 157.997 39.181 157.335C39.2543 156.647 39.3219 156.012 39.3839 155.429C39.4234 155.059 39.4468 154.713 39.4541 154.393C39.4615 154.072 39.4716 153.725 39.4846 153.352C39.4976 152.979 39.5385 152.595 39.6072 152.2C39.6788 151.78 39.7343 151.384 39.7737 151.014C39.8554 150.246 39.9225 149.49 39.975 148.746C40.0302 147.976 40.0987 147.207 40.1804 146.439C40.2114 146.148 40.2557 145.858 40.3131 145.57C40.3999 145.258 40.4616 144.93 40.4982 144.586C40.5377 144.215 40.5625 143.856 40.5726 143.509C40.6121 143.139 40.6515 142.768 40.691 142.398C40.7784 141.577 40.9082 140.734 41.0806 139.869C41.0362 139.784 41.0181 139.702 41.0266 139.622C41.0379 139.517 41.0199 139.434 40.9725 139.376C40.8903 139.394 40.8317 139.441 40.7968 139.518C40.7647 139.568 40.718 139.63 40.6566 139.704C40.5451 139.745 40.444 139.815 40.3533 139.912C40.2919 139.986 40.2305 140.06 40.1691 140.134C39.9461 140.217 39.7481 140.316 39.5752 140.432C39.4051 140.521 39.2099 140.594 38.9897 140.65C38.8602 140.61 38.7599 140.546 38.689 140.458C38.6445 140.373 38.6 140.288 38.5555 140.203C38.3522 140.101 38.1517 139.972 37.9541 139.817C37.7829 139.665 37.5956 139.538 37.3923 139.436C37.309 139.213 37.1803 139.039 37.0063 138.913C36.8616 138.764 36.7594 138.593 36.6997 138.399C36.4935 138.323 36.2931 138.195 36.0982 138.014C35.9326 137.809 35.8611 137.6 35.8837 137.388C35.9034 137.203 36.0011 137.04 36.1769 136.898C36.3526 136.756 36.4517 136.579 36.4743 136.367C36.9305 135.854 37.3971 135.368 37.8742 134.91C38.3541 134.426 38.8075 133.939 39.2344 133.449C39.4603 133.339 39.6625 133.2 39.841 133.031C40.0196 132.863 40.1967 132.708 40.3724 132.566C40.4811 132.551 40.5648 132.519 40.6233 132.472C40.6847 132.398 40.7844 132.342 40.9224 132.303C41.2108 132.361 41.4107 132.369 41.5222 132.327C41.6602 132.288 41.785 132.248 41.8965 132.206C41.9106 132.074 41.9365 131.956 41.9742 131.853C42.0148 131.723 42.0686 131.595 42.1356 131.469C42.5383 131.458 42.7709 131.536 42.8334 131.704ZM69.0611 148.992C68.855 148.916 68.7052 148.94 68.6117 149.064C68.6894 149.34 68.7671 149.616 68.8448 149.892C68.9518 150.145 69.0323 150.394 69.0863 150.641C68.9145 150.997 68.7162 151.351 68.4915 151.702C68.2696 152.026 67.9989 152.305 67.6796 152.539C67.5861 152.663 67.4633 152.81 67.3112 152.982C67.1884 153.129 67.0921 153.279 67.0223 153.433C66.8741 153.818 66.708 154.122 66.5238 154.343C66.3424 154.538 66.1757 154.721 66.0236 154.892C65.9036 155.013 65.7181 155.248 65.4668 155.596C65.2184 155.918 64.9526 156.277 64.6693 156.676C64.4124 157.077 64.157 157.464 63.903 157.839C63.6782 158.19 63.5163 158.454 63.4171 158.63C63.2206 158.717 63.0741 158.835 62.9778 158.985C62.8815 159.136 62.7705 159.298 62.6449 159.472C62.5525 159.837 62.376 160.112 62.1152 160.299C61.8544 160.485 61.6395 160.743 61.4705 161.073C61.4801 161.235 61.4897 161.397 61.4992 161.558C61.5381 161.696 61.5623 161.846 61.5718 162.008C61.3516 162.065 61.1829 162.14 61.0658 162.235C60.9779 162.306 60.8295 162.317 60.6206 162.268C60.3485 162.56 60.1134 162.883 59.9151 163.237C59.7433 163.593 59.4608 163.858 59.0677 164.03C58.9382 163.989 58.8379 163.925 58.767 163.837C58.7197 163.779 58.6459 163.717 58.5457 163.653C58.3812 163.689 58.2049 163.711 58.0168 163.717C57.8524 163.753 57.6775 163.761 57.4922 163.742C57.3863 163.73 57.2993 163.668 57.2312 163.553C57.163 163.439 57.1053 163.353 57.058 163.294C56.8812 163.195 56.7559 163.115 56.6821 163.053C56.6083 162.992 56.5213 162.929 56.4211 162.865C56.385 162.7 56.2947 162.543 56.1499 162.394C55.8616 162.337 55.6611 162.208 55.5485 162.009C55.4359 161.81 55.3658 161.588 55.3382 161.344C55.4959 161.12 55.5993 160.903 55.6483 160.694C55.4844 160.222 55.2766 159.785 55.0249 159.383C54.7997 158.985 54.5626 158.571 54.3137 158.143C54.1538 157.885 54.0071 157.629 53.8736 157.373C53.743 157.092 53.6005 156.796 53.4462 156.485C53.328 156.338 53.2201 156.22 53.1227 156.129C53.0546 156.015 52.9878 155.887 52.9225 155.746C52.4985 154.952 52.1038 154.133 51.7383 153.291C51.3993 152.452 50.9621 151.656 50.4265 150.903C50.243 150.616 50.058 150.342 49.8716 150.081C49.7117 149.823 49.5399 149.55 49.3563 149.263C49.2797 149.228 49.2031 149.193 49.1265 149.158C49.0528 149.097 48.9658 149.034 48.8655 148.97C48.8002 148.829 48.7335 148.702 48.6653 148.587C48.6265 148.449 48.6023 148.299 48.5927 148.138C48.6862 148.014 48.7811 147.877 48.8774 147.726C48.9766 147.55 49.0743 147.386 49.1706 147.236C49.2377 147.109 49.3047 146.982 49.3717 146.855C49.4387 146.729 49.5058 146.602 49.5728 146.475C49.7711 146.122 49.9812 145.783 50.2031 145.458C50.425 145.134 50.6588 144.824 50.9044 144.529C51.2699 144.113 51.609 143.694 51.9216 143.272C52.2607 142.853 52.6116 142.449 52.9743 142.059C53.0526 141.826 53.1957 141.614 53.4035 141.422C53.6113 141.23 53.7676 141.019 53.8724 140.789C54.1737 140.473 54.45 140.141 54.7012 139.793C54.9524 139.445 55.2036 139.097 55.4549 138.749C55.6306 138.607 55.768 138.448 55.8672 138.271C55.9956 138.071 56.1477 137.899 56.3234 137.758C56.4253 137.554 56.5377 137.379 56.6605 137.231C56.8098 137.087 56.9235 136.898 57.0018 136.665C57.1776 136.523 57.3575 136.342 57.5417 136.12C57.7259 135.899 57.9115 135.665 58.0985 135.417C58.2855 135.169 58.4578 134.933 58.6155 134.709C58.7761 134.458 58.9191 134.246 59.0447 134.072C59.265 134.015 59.4246 133.898 59.5238 133.721C59.6522 133.521 59.8279 133.379 60.051 133.296C60.0887 133.193 60.1369 133.117 60.1954 133.07C60.2568 132.996 60.3064 132.908 60.3441 132.805C60.6505 132.945 60.9228 133.027 61.161 133.052C61.2613 133.117 61.319 133.203 61.3342 133.312C61.3787 133.397 61.4657 133.46 61.5952 133.5C61.7332 133.461 61.8211 133.39 61.8588 133.287C61.9258 133.161 62.0179 133.05 62.1351 132.955C62.2674 132.969 62.3691 133.02 62.44 133.108C62.5403 133.173 62.6538 133.238 62.7805 133.305C62.9612 133.619 63.1141 133.943 63.2391 134.278C63.3934 134.588 63.5345 134.898 63.6623 135.206C63.7304 135.32 63.7839 135.447 63.8228 135.584C63.8616 135.722 63.9019 135.847 63.9435 135.959C64.1243 136.272 64.2904 136.598 64.4419 136.935C64.6227 137.249 64.7902 137.561 64.9445 137.872C65.1962 138.274 65.4318 138.7 65.6515 139.152C65.8739 139.577 66.0817 140.014 66.2748 140.463C66.5305 141.08 66.7624 141.666 66.9708 142.224C67.1819 142.755 67.4404 143.345 67.7462 143.993C67.8768 144.275 68.0207 144.558 68.1778 144.842C68.3377 145.1 68.4976 145.358 68.6576 145.616C68.8147 145.9 68.9453 146.182 69.0495 146.461C69.1801 146.742 69.3254 147.012 69.4853 147.27C69.4921 147.458 69.5253 147.649 69.585 147.843C69.6739 148.013 69.7072 148.204 69.6846 148.416C69.6705 148.548 69.5903 148.673 69.4438 148.792C69.3002 148.883 69.1726 148.95 69.0611 148.992ZM63.869 149.483C64.3404 149.078 64.6983 148.608 64.9428 148.071C64.8775 147.931 64.7975 147.802 64.7029 147.685C64.6376 147.544 64.5458 147.4 64.4276 147.254C64.244 146.966 64.0069 146.553 63.7163 146.013C63.4258 145.474 63.2034 145.049 63.0491 144.738L62.7805 143.866C62.6791 143.561 62.5617 143.28 62.4283 143.025C62.3241 142.747 62.2213 142.454 62.12 142.149C62.0811 142.011 62.0423 141.873 62.0034 141.735C61.9646 141.597 61.9125 141.458 61.8472 141.317C61.7554 141.173 61.6622 141.043 61.5676 140.926C61.473 140.809 61.4105 140.642 61.3801 140.424C61.3091 140.336 61.2382 140.248 61.1672 140.161C61.1227 140.075 61.0811 139.964 61.0422 139.826C60.3753 140.558 59.7921 141.259 59.2925 141.929C58.8222 142.574 58.324 143.231 57.7979 143.898C57.5523 144.193 57.3067 144.488 57.0612 144.783C56.8156 145.078 56.5804 145.401 56.3557 145.752C56.2273 145.952 56.0563 146.175 55.8429 146.42C55.6322 146.639 55.4187 146.883 55.2024 147.155C54.989 147.4 54.7887 147.646 54.6017 147.894C54.4147 148.142 54.3024 148.317 54.2646 148.42C54.5439 149.066 54.8212 149.604 55.0966 150.035C55.372 150.466 55.6313 150.922 55.8746 151.403C56.0592 151.931 56.2614 152.421 56.481 152.873C56.5908 153.098 56.7139 153.326 56.8501 153.554C57.0129 153.786 57.1477 154.028 57.2547 154.28C57.5357 154.658 57.761 155.057 57.9305 155.476C58.1264 155.899 58.3928 156.288 58.7295 156.646C59.063 156.28 59.3714 155.897 59.6547 155.499C59.9408 155.075 60.2402 154.651 60.5528 154.23C60.8654 153.808 61.1634 153.398 61.4467 153C61.73 152.602 61.9911 152.161 62.2299 151.678C62.3414 151.636 62.4265 151.591 62.485 151.544C62.5436 151.497 62.6022 151.45 62.6608 151.402C62.8326 151.046 63.0266 150.732 63.2429 150.46C63.4885 150.165 63.6972 149.839 63.869 149.483ZM61.6863 146.6C61.8141 146.908 61.9551 147.218 62.1094 147.529C62.293 147.816 62.4766 148.103 62.6602 148.391C62.7339 148.452 62.8195 148.528 62.917 148.619C63.0172 148.683 63.0603 148.781 63.0462 148.914C63.0349 149.019 62.9561 149.132 62.8096 149.25C62.6632 149.368 62.5683 149.505 62.5249 149.661C62.3841 149.726 62.2684 149.808 62.1777 149.905C62.087 150.003 61.9817 150.112 61.8617 150.233C61.7085 150.163 61.5762 150.149 61.4646 150.191C61.3531 150.232 61.2312 150.246 61.0988 150.232C60.7908 150.36 60.5928 150.459 60.5049 150.53C60.4464 150.578 60.3731 150.637 60.2853 150.708C60.2239 150.781 60.136 150.852 60.0217 150.921C59.9338 150.991 59.7812 151.042 59.5638 151.073C59.303 151.259 59.1448 151.363 59.089 151.383C58.9831 151.372 58.8919 151.349 58.8153 151.314C58.768 151.256 58.706 151.209 58.6294 151.174C58.532 151.083 58.3665 150.878 58.1328 150.559C57.9283 150.216 57.7121 149.858 57.484 149.486C57.2588 149.087 57.0572 148.718 56.8793 148.377C56.7278 148.04 56.6591 147.805 56.6732 147.673C56.8602 147.425 56.983 147.278 57.0415 147.23C57.1029 147.156 57.1998 147.127 57.3322 147.141C57.5524 147.084 57.7078 147.007 57.7985 146.909C57.8892 146.812 57.9652 146.726 58.0266 146.652C58.1173 146.555 58.2184 146.486 58.3299 146.444C58.4443 146.376 58.6115 146.313 58.8317 146.256C59.0745 145.988 59.2384 145.831 59.3234 145.787C59.4085 145.742 59.5172 145.727 59.6495 145.741C59.7932 145.649 59.8734 145.524 59.8903 145.365C59.9365 145.183 60.0641 145.116 60.273 145.165C60.6475 145.419 60.9531 145.692 61.1896 145.985C61.3107 146.105 61.392 146.221 61.4337 146.333C61.4754 146.444 61.5595 146.533 61.6863 146.6ZM77.291 149.386C77.1795 149.428 77.0917 149.499 77.0274 149.599C76.9632 149.699 76.8754 149.77 76.7638 149.812C76.7081 149.833 76.5833 149.873 76.3896 149.933C76.2223 149.995 76.1254 150.025 76.099 150.022C75.7813 149.988 75.5057 149.812 75.272 149.492C75.0383 149.173 74.8693 148.874 74.7652 148.595C74.7235 148.484 74.6525 148.396 74.5523 148.332C74.4813 148.244 74.4118 148.143 74.3437 148.028C74.2254 147.882 74.1412 147.793 74.0911 147.76C74.0674 147.731 74.0584 147.69 74.0641 147.637C73.8095 147.262 73.5877 146.957 73.3984 146.723C73.212 146.462 73.0242 146.215 72.835 145.98C72.7337 145.675 72.5723 145.43 72.351 145.246C72.2525 144.914 72.0982 144.604 71.8881 144.314C71.7046 144.026 71.5489 143.729 71.421 143.421C71.3737 143.362 71.3278 143.29 71.2834 143.205C71.2653 143.123 71.2341 143.039 71.1896 142.954C71.2566 142.827 71.2589 142.68 71.1964 142.513C71.1339 142.346 71.1243 142.184 71.1677 142.028C71.3519 141.807 71.5716 141.63 71.8267 141.496C72.0193 141.195 72.1576 140.902 72.2416 140.617C72.6156 140.121 72.9797 139.718 73.334 139.408C73.6911 139.071 74.067 138.683 74.4619 138.243C74.6083 138.125 74.7297 137.99 74.826 137.84C74.9488 137.693 75.0702 137.558 75.1901 137.437C75.4858 137.174 75.7697 136.897 76.0418 136.604C76.3138 136.312 76.5712 136.032 76.814 135.763C76.97 135.806 77.0772 135.804 77.1358 135.757C77.2237 135.686 77.338 135.618 77.4788 135.553C77.5819 135.59 77.6703 135.64 77.7441 135.701C77.8207 135.736 77.9119 135.759 78.0178 135.771C78.2543 136.064 78.4832 136.302 78.7045 136.486C78.7868 136.468 78.8851 136.425 78.9994 136.357C79.1137 136.289 79.2106 136.259 79.29 136.267C79.4753 136.287 79.5741 136.365 79.5865 136.5C79.5989 136.635 79.6977 136.712 79.883 136.732C80.3476 137.397 80.7252 138 81.0157 138.539C81.3063 139.079 81.6394 139.596 82.015 140.091C82.1597 140.24 82.2926 140.375 82.4137 140.495C82.5376 140.589 82.6587 140.709 82.7769 140.855C82.8952 141.001 83.0078 141.201 83.1148 141.453C83.2218 141.705 83.333 141.918 83.4484 142.091C83.4372 142.197 83.4467 142.358 83.4771 142.576C83.4016 142.782 83.2775 142.943 83.1045 143.058C82.9609 143.15 82.8159 143.255 82.6694 143.373C82.6469 143.585 82.6711 143.735 82.7421 143.823C82.8395 143.913 82.9076 144.028 82.9465 144.166C82.8541 144.531 82.6803 144.78 82.4252 144.913C82.1729 145.02 81.9546 145.184 81.7704 145.406C81.6003 145.495 81.486 145.563 81.4274 145.61C81.3689 145.657 81.3089 145.718 81.2475 145.792C80.8724 146.046 80.546 146.346 80.2683 146.691C79.9906 147.037 79.6628 147.35 79.2849 147.631C79.1272 147.855 78.9911 148.001 78.8768 148.069C78.7625 148.137 78.7101 148.252 78.7196 148.414C78.6025 148.508 78.4868 148.59 78.3724 148.658C78.2874 148.702 78.1787 148.718 78.0463 148.704C77.8582 148.71 77.7613 148.74 77.7557 148.793C77.7765 148.849 77.7444 148.899 77.6594 148.943C77.4808 149.112 77.3755 149.221 77.3434 149.271C77.3141 149.295 77.2967 149.333 77.291 149.386ZM76.4787 145.324C77.1618 144.942 77.7929 144.42 78.372 143.759C78.951 143.098 79.2842 142.357 79.3715 141.536L79.4223 141.06L77.0806 140.048C76.9797 140.492 76.824 140.824 76.6133 141.042C76.4027 141.261 76.1816 141.451 75.9501 141.614C75.7186 141.777 75.4857 141.953 75.2514 142.142C75.0464 142.307 74.8712 142.57 74.7259 142.929C75.057 143.339 75.3206 143.755 75.5165 144.178C75.739 144.603 76.0597 144.985 76.4787 145.324ZM97.7941 159.72C97.6922 159.924 97.5562 160.07 97.3861 160.159C97.2425 160.251 97.0974 160.356 96.951 160.474C96.9284 160.686 96.9526 160.835 97.0236 160.923C97.121 161.014 97.1892 161.128 97.228 161.266C97.1356 161.631 96.9619 161.88 96.7067 162.014C96.4544 162.121 96.2347 162.298 96.0477 162.546C95.8805 162.609 95.7675 162.663 95.709 162.711C95.6504 162.758 95.6036 162.82 95.5687 162.897C95.1671 163.148 94.8143 163.445 94.5101 163.788C94.2324 164.133 93.9179 164.447 93.5664 164.731C93.4087 164.955 93.2713 165.115 93.1541 165.209C93.0398 165.278 92.9742 165.391 92.9573 165.55C92.8401 165.644 92.7258 165.713 92.6143 165.754C92.5292 165.799 92.4205 165.814 92.2882 165.8C92.0482 166.042 91.9004 166.174 91.8446 166.194C91.7917 166.189 91.7506 166.198 91.7213 166.221C91.5078 166.466 91.3557 166.638 91.265 166.735C91.2036 166.809 91.1304 166.868 91.0454 166.912C90.9896 166.933 90.8649 166.973 90.6711 167.033C90.4774 167.093 90.3673 167.121 90.3408 167.118C90.0496 167.087 89.7872 166.912 89.5535 166.593C89.317 166.3 89.1466 166.014 89.0425 165.735C89.0036 165.597 88.9341 165.496 88.8338 165.432C88.7629 165.344 88.7066 165.245 88.6649 165.133C88.5202 164.984 88.436 164.895 88.4123 164.865C88.3887 164.836 88.3797 164.795 88.3853 164.742C88.1043 164.364 87.8692 164.058 87.68 163.824C87.4936 163.563 87.3058 163.315 87.1166 163.081C87.0777 162.943 87.011 162.815 86.9164 162.698C86.8482 162.584 86.7669 162.468 86.6723 162.351C86.5473 162.016 86.3783 161.717 86.1655 161.454C85.9819 161.167 85.8262 160.869 85.6984 160.561C85.6539 160.476 85.608 160.404 85.5607 160.345C85.5427 160.263 85.526 160.168 85.5109 160.059C85.5779 159.932 85.5801 159.785 85.5176 159.618C85.4551 159.451 85.4309 159.301 85.445 159.169C85.6056 158.918 85.812 158.739 86.0643 158.632C86.3212 158.231 86.4608 157.925 86.4834 157.713C86.8839 157.22 87.248 156.817 87.5758 156.504C87.9329 156.167 88.3221 155.781 88.7434 155.344C88.8634 155.223 88.9847 155.088 89.1075 154.941C89.2303 154.793 89.3649 154.66 89.5114 154.542C89.7541 154.273 90.0101 154.006 90.2794 153.74C90.5779 153.451 90.8632 153.16 91.1352 152.868C91.2647 152.908 91.3588 152.905 91.4174 152.858C91.5052 152.787 91.6049 152.73 91.7164 152.689C91.8223 152.7 91.9121 152.736 91.9859 152.798C92.0625 152.833 92.1537 152.856 92.2596 152.867C92.4753 153.104 92.716 153.357 92.9819 153.626C93.0934 153.585 93.1931 153.529 93.2809 153.458C93.3688 153.387 93.4657 153.357 93.5715 153.368C93.7304 153.385 93.816 153.461 93.8283 153.596C93.8407 153.731 93.9395 153.809 94.1248 153.828C94.6159 154.496 95.0067 155.1 95.2973 155.64C95.5878 156.179 95.9342 156.698 96.3362 157.196C96.4545 157.342 96.5595 157.487 96.6513 157.631C96.7724 157.751 96.8921 157.884 97.0103 158.031C97.1286 158.177 97.2558 158.365 97.3921 158.593C97.5284 158.822 97.641 159.021 97.73 159.191C97.7215 159.271 97.7263 159.352 97.7443 159.434C97.7623 159.516 97.7789 159.612 97.7941 159.72ZM90.9106 162.521C91.5673 162.136 92.1705 161.625 92.7202 160.987C93.27 160.35 93.5857 159.647 93.6674 158.879L93.7139 158.443L91.4871 157.483C91.3863 157.927 91.2305 158.259 91.0199 158.477C90.8385 158.672 90.6335 158.838 90.4048 158.974C90.2026 159.113 89.9858 159.264 89.7543 159.427C89.5493 159.592 89.3873 159.856 89.2685 160.218C89.5759 160.599 89.8277 161 90.0236 161.423C90.2489 161.822 90.5445 162.188 90.9106 162.521ZM92.8689 139.6C92.8323 139.945 92.7574 140.271 92.6441 140.58C92.5743 140.734 92.4723 140.937 92.3383 141.19C92.2042 141.444 92.0555 141.709 91.8921 141.986C91.7553 142.266 91.6066 142.531 91.446 142.782C91.2855 143.032 91.1585 143.22 91.065 143.344C90.9659 143.52 90.8681 143.684 90.7718 143.834C90.6755 143.985 90.5778 144.148 90.4786 144.325C90.406 144.505 90.3201 144.683 90.2209 144.86C90.1246 145.01 90.0269 145.174 89.9277 145.351C89.8607 145.477 89.7672 145.601 89.6472 145.722C89.5566 145.82 89.4645 145.93 89.371 146.054C89.2133 146.278 89.0778 146.545 88.9646 146.854C88.8542 147.137 88.7305 147.418 88.5936 147.698C88.1357 148.479 87.6924 149.249 87.2637 150.006C86.8351 150.764 86.4301 151.55 86.0487 152.366C85.5069 153.433 84.9267 154.482 84.3082 155.514C83.719 156.522 83.1653 157.574 82.6471 158.67C82.5885 158.717 82.5286 158.778 82.4672 158.852C82.4322 158.928 82.3841 159.003 82.3227 159.077C82.2472 159.283 82.0419 159.703 81.7067 160.337C81.3744 160.944 81.01 161.601 80.6134 162.308C80.2169 163.016 79.8392 163.671 79.4804 164.276C79.1481 164.883 78.9219 165.247 78.8019 165.368C78.6459 165.325 78.5339 165.246 78.4657 165.131C78.3976 165.017 78.3016 164.913 78.1777 164.82C78.0453 164.806 77.8398 164.851 77.561 164.955C77.3898 164.803 77.1837 164.727 76.9426 164.728C76.7016 164.729 76.529 164.591 76.4248 164.312C76.3189 164.301 76.2102 164.316 76.0987 164.357C76.0165 164.375 75.9224 164.379 75.8165 164.367C75.6842 164.353 75.5972 164.291 75.5555 164.179C75.5403 164.07 75.5398 163.95 75.5538 163.818C75.5679 163.685 75.5938 163.567 75.6316 163.464C75.6958 163.364 75.7335 163.261 75.7448 163.155L75.7161 162.67C75.7651 162.461 75.8888 162.18 76.0871 161.826C76.3146 161.449 76.5436 161.058 76.774 160.655C77.0336 160.227 77.2787 159.812 77.509 159.408C77.7394 159.004 77.907 158.687 78.0118 158.458C78.5688 157.5 79.1127 156.54 79.6433 155.579C80.1767 154.592 80.7234 153.606 81.2833 152.622C81.744 151.814 82.1797 150.991 82.5903 150.151C83.0038 149.285 83.4409 148.448 83.9017 147.64C83.998 147.49 84.0811 147.338 84.1509 147.185C84.2472 147.035 84.3199 146.855 84.3689 146.646C84.6731 146.304 84.9124 145.941 85.0871 145.558C85.291 145.151 85.5067 144.76 85.7343 144.382C85.9354 144.002 86.1365 143.622 86.3375 143.242C86.5386 142.862 86.7516 142.496 86.9763 142.145C87.4551 141.42 87.922 140.68 88.3771 139.925C88.8351 139.144 89.2533 138.359 89.6318 137.569C89.9788 137.579 90.1745 137.627 90.219 137.712C90.2927 137.773 90.3533 137.833 90.4006 137.892C90.6095 137.941 90.7934 137.974 90.9522 137.991C91.2434 138.022 91.4557 138.165 91.5891 138.42C91.9947 138.383 92.189 138.444 92.172 138.603C92.158 138.735 92.2171 138.808 92.3494 138.822C92.6755 138.777 92.8391 138.874 92.8402 139.115C92.8706 139.333 92.8802 139.495 92.8689 139.6Z" fill="black"/>
</g>
<defs>
<clipPath id="clip0_73_12890">
<rect width="170" height="214" fill="white"/>
</clipPath>
</defs>
</svg>
