<svg width="17" height="15" viewBox="0 0 17 15" fill="none" xmlns="http://www.w3.org/2000/svg">
<path d="M5.13672 14.7959C4.92253 14.7959 4.75391 14.7253 4.63086 14.584C4.51237 14.4473 4.45312 14.2604 4.45312 14.0234V12.0684H3.94043C3.29329 12.0684 2.73047 11.9385 2.25195 11.6787C1.77344 11.4189 1.40202 11.0452 1.1377 10.5576C0.87793 10.07 0.748047 9.48438 0.748047 8.80078V3.44824C0.748047 2.76465 0.875651 2.17904 1.13086 1.69141C1.39062 1.20378 1.76432 0.830078 2.25195 0.570312C2.73958 0.30599 3.32747 0.173828 4.01562 0.173828H12.9775C13.6702 0.173828 14.2581 0.30599 14.7412 0.570312C15.2288 0.830078 15.6003 1.20378 15.8555 1.69141C16.1152 2.17904 16.2451 2.76465 16.2451 3.44824V8.80078C16.2451 9.48438 16.1152 10.07 15.8555 10.5576C15.6003 11.0452 15.2288 11.4189 14.7412 11.6787C14.2581 11.9385 13.6702 12.0684 12.9775 12.0684H8.54785L6.01855 14.3311C5.84082 14.4951 5.68587 14.6136 5.55371 14.6865C5.42611 14.7594 5.28711 14.7959 5.13672 14.7959Z" fill="#1B1A1A"/>
</svg>
