<svg width="40" height="40" viewBox="0 0 40 40" fill="none" xmlns="http://www.w3.org/2000/svg">
<path fill-rule="evenodd" clip-rule="evenodd" d="M19.1663 5C20.8049 4.99957 22.3985 5.53575 23.7035 6.52655C25.0085 7.51736 25.9532 8.90828 26.393 10.4867L26.4797 10.8283L29.5963 10.05C29.8241 9.9933 30.0614 9.98536 30.2924 10.0267C30.5235 10.0681 30.7433 10.1577 30.9373 10.2899C31.1313 10.4221 31.2952 10.5938 31.4182 10.7937C31.5413 10.9936 31.6207 11.2173 31.6513 11.45L31.6663 11.6667V14.6833C32.6064 15.5838 33.3765 16.6464 33.9397 17.82L34.1697 18.3333H34.9997C35.4079 18.3334 35.8019 18.4833 36.107 18.7545C36.412 19.0258 36.6069 19.3996 36.6547 19.805L36.6663 20V25C36.6664 25.2743 36.5987 25.5444 36.4693 25.7863C36.34 26.0282 36.1529 26.2344 35.9247 26.3867L35.7447 26.49L33.798 27.465C33.0024 29.0077 31.8478 30.3367 30.4313 31.34L29.9997 31.63V33.3333C29.9996 33.7416 29.8497 34.1356 29.5785 34.4406C29.3072 34.7457 28.9334 34.9406 28.528 34.9883L28.333 35H23.333C22.9248 34.9999 22.5308 34.8501 22.2257 34.5788C21.9207 34.3075 21.7258 33.9338 21.678 33.5283L21.6663 33.3333H19.9997C19.9996 33.7416 19.8497 34.1356 19.5785 34.4406C19.3072 34.7457 18.9334 34.9406 18.528 34.9883L18.333 35H13.333C12.9248 34.9999 12.5308 34.8501 12.2257 34.5788C11.9207 34.3075 11.7258 33.9338 11.678 33.5283L11.6663 33.3333V31.63C10.4618 30.8608 9.42142 29.8609 8.60505 28.6878C7.78868 27.5147 7.21249 26.1917 6.90967 24.795C5.92664 24.5029 5.05719 23.9156 4.41919 23.1128C3.78118 22.3099 3.40548 21.3303 3.34301 20.3067L3.33301 20V19.1667C3.33348 18.7419 3.49614 18.3333 3.78776 18.0244C4.07937 17.7155 4.47793 17.5296 4.902 17.5047C5.32607 17.4798 5.74364 17.6178 6.0694 17.8904C6.39515 18.1631 6.6045 18.5498 6.65467 18.9717L6.66634 19.1667V20C6.66856 20.2489 6.71856 20.4794 6.81634 20.6917C7.07033 19.1911 7.63766 17.7608 8.48136 16.4941C9.32506 15.2274 10.4262 14.1527 11.713 13.34C11.5948 12.2908 11.6994 11.2285 12.02 10.2225C12.3406 9.21651 12.87 8.28957 13.5736 7.50231C14.2772 6.71504 15.139 6.0852 16.1028 5.65399C17.0666 5.22278 18.1105 4.99993 19.1663 5ZM26.6663 18.3333C26.2243 18.3333 25.8004 18.5089 25.4878 18.8215C25.1753 19.134 24.9997 19.558 24.9997 20C24.9997 20.442 25.1753 20.8659 25.4878 21.1785C25.8004 21.4911 26.2243 21.6667 26.6663 21.6667C27.1084 21.6667 27.5323 21.4911 27.8449 21.1785C28.1574 20.8659 28.333 20.442 28.333 20C28.333 19.558 28.1574 19.134 27.8449 18.8215C27.5323 18.5089 27.1084 18.3333 26.6663 18.3333ZM19.1663 8.33333C18.1568 8.33333 17.1816 8.69983 16.422 9.36473C15.6624 10.0296 15.17 10.9477 15.0363 11.9483C15.844 11.7605 16.6705 11.666 17.4997 11.6667H23.128L23.2447 11.6383C23.047 10.7033 22.5339 9.86456 21.7914 9.26284C21.0489 8.66111 20.1221 8.33294 19.1663 8.33333Z" fill="#3EAF3F"/>
</svg>
