<svg width="25" height="20" viewBox="0 0 25 20" fill="none" xmlns="http://www.w3.org/2000/svg">
<path d="M13.0078 12.3418C13.2031 12.3418 13.3236 12.2344 13.3691 12.0195C13.4798 11.4271 13.5872 10.9258 13.6914 10.5156C13.8021 10.099 13.9355 9.75391 14.0918 9.48047C14.2546 9.20703 14.4661 8.98242 14.7266 8.80664C14.987 8.63086 15.3223 8.49089 15.7324 8.38672C16.1491 8.27604 16.6634 8.17839 17.2754 8.09375C17.4967 8.07422 17.6074 7.95378 17.6074 7.73242C17.6074 7.51758 17.4967 7.39388 17.2754 7.36133C16.6634 7.27669 16.1491 7.17904 15.7324 7.06836C15.3158 6.95768 14.9707 6.81445 14.6973 6.63867C14.4303 6.46289 14.2155 6.23828 14.0527 5.96484C13.89 5.69141 13.7565 5.34961 13.6523 4.93945C13.5482 4.5293 13.4538 4.03451 13.3691 3.45508C13.3301 3.23372 13.2096 3.12305 13.0078 3.12305C12.8125 3.12305 12.6855 3.23047 12.627 3.44531C12.5163 4.03776 12.4056 4.54232 12.2949 4.95898C12.1908 5.36914 12.0573 5.71094 11.8945 5.98438C11.7383 6.25781 11.5299 6.48242 11.2695 6.6582C11.0091 6.82747 10.6738 6.96745 10.2637 7.07812C9.86003 7.18229 9.34896 7.27669 8.73047 7.36133C8.50911 7.39388 8.39844 7.51758 8.39844 7.73242C8.39844 7.94076 8.50911 8.0612 8.73047 8.09375C9.4987 8.17188 10.1172 8.28581 10.5859 8.43555C11.0547 8.57878 11.416 8.79036 11.6699 9.07031C11.9303 9.34375 12.1289 9.7181 12.2656 10.1934C12.4023 10.6686 12.5228 11.2741 12.627 12.0098C12.6595 12.2311 12.7865 12.3418 13.0078 12.3418ZM9.04297 13.9922C9.1862 13.9922 9.2806 13.9141 9.32617 13.7578C9.39128 13.3932 9.44661 13.1068 9.49219 12.8984C9.54427 12.6836 9.61914 12.5208 9.7168 12.4102C9.81445 12.2995 9.96745 12.2181 10.1758 12.166C10.3906 12.1074 10.6999 12.0488 11.1035 11.9902C11.2598 11.9512 11.3379 11.8568 11.3379 11.707C11.3379 11.5443 11.2598 11.4531 11.1035 11.4336C10.6999 11.3685 10.3906 11.3066 10.1758 11.248C9.96745 11.1829 9.81445 11.0983 9.7168 10.9941C9.61914 10.8835 9.54427 10.724 9.49219 10.5156C9.44661 10.3073 9.39128 10.0273 9.32617 9.67578C9.2806 9.5 9.1862 9.41211 9.04297 9.41211C8.90625 9.41211 8.81185 9.5 8.75977 9.67578C8.68164 10.0273 8.61979 10.3073 8.57422 10.5156C8.52865 10.724 8.45703 10.8835 8.35938 10.9941C8.26823 11.0983 8.11523 11.1829 7.90039 11.248C7.69206 11.3066 7.38932 11.3685 6.99219 11.4336C6.83594 11.4531 6.75781 11.5443 6.75781 11.707C6.75781 11.8633 6.84245 11.9577 7.01172 11.9902C7.40885 12.0488 7.71159 12.1074 7.91992 12.166C8.12826 12.2181 8.27799 12.2995 8.36914 12.4102C8.46029 12.5143 8.52865 12.6706 8.57422 12.8789C8.61979 13.0872 8.68164 13.3704 8.75977 13.7285C8.81185 13.9043 8.90625 13.9922 9.04297 13.9922ZM2.80273 16.3945C1.9694 16.3945 1.34115 16.1895 0.917969 15.7793C0.501302 15.3691 0.292969 14.7376 0.292969 13.8848V2.69336C0.292969 1.84049 0.501302 1.20898 0.917969 0.798828C1.34115 0.388672 1.9694 0.183594 2.80273 0.183594H22.1973C23.0306 0.183594 23.6556 0.388672 24.0723 0.798828C24.4954 1.20898 24.707 1.84049 24.707 2.69336V13.8848C24.707 14.7376 24.4954 15.3691 24.0723 15.7793C23.6556 16.1895 23.0306 16.3945 22.1973 16.3945H2.80273ZM7.58789 19.7051C7.37305 19.7051 7.1875 19.627 7.03125 19.4707C6.875 19.3145 6.79688 19.1289 6.79688 18.9141C6.79688 18.6927 6.875 18.5039 7.03125 18.3477C7.1875 18.1979 7.37305 18.123 7.58789 18.123H17.4121C17.627 18.123 17.8125 18.1979 17.9688 18.3477C18.125 18.5039 18.2031 18.6927 18.2031 18.9141C18.2031 19.1289 18.125 19.3145 17.9688 19.4707C17.8125 19.627 17.627 19.7051 17.4121 19.7051H7.58789Z" fill="#292524"/>
</svg>
